<svg width="80" height="80" viewBox="0 0 80 80" fill="none" xmlns="http://www.w3.org/2000/svg">
<rect width="80" height="80" rx="40" fill="white"/>
<path fill-rule="evenodd" clip-rule="evenodd" d="M39.4234 18.177C39.1465 18.3616 38.9277 18.7302 38.1298 20.3566L37.1696 22.3142L35.0387 22.6285C33.8667 22.8014 32.7942 23.0016 32.6553 23.0735C32.3787 23.2167 32.0914 23.7325 32.0919 24.0848C32.0925 24.4719 32.403 24.8476 33.9206 26.2976L35.3961 27.7074L35.0252 29.8683C34.8213 31.0568 34.6785 32.1261 34.7081 32.2445C34.8088 32.6486 35.2519 33.0379 35.6759 33.0948C36.0381 33.1434 36.2278 33.0649 37.9917 32.1357C39.0484 31.5792 39.9553 31.1238 40.007 31.1238C40.0587 31.1238 40.951 31.5741 41.9898 32.1246C43.1175 32.7221 43.9883 33.1252 44.1505 33.125C44.5337 33.1245 45.0169 32.8018 45.1953 32.4272C45.3392 32.1252 45.3278 31.9972 44.9707 29.9106L44.5946 27.712L46.0694 26.2999C47.5869 24.847 47.8969 24.4715 47.8975 24.0848C47.898 23.727 47.609 23.2158 47.3221 23.0673C47.1767 22.9921 46.1044 22.792 44.9391 22.6226L42.8205 22.3146L41.8598 20.3625C41.2532 19.1295 40.8107 18.3458 40.659 18.2354C40.2577 17.9435 39.8057 17.922 39.4234 18.177ZM40.6199 22.9481C40.9522 23.6334 41.2829 24.1826 41.423 24.2818C41.611 24.415 43.6972 24.8255 44.2185 24.8319C44.2634 24.8325 43.8509 25.2725 43.3015 25.8099C42.6441 26.453 42.2873 26.8755 42.2576 27.0459C42.22 27.2607 42.3733 28.3928 42.607 29.6255C42.6572 29.8903 42.6559 29.8899 41.4656 29.2681C40.8031 28.922 40.1523 28.6456 39.9998 28.6456C39.8477 28.6456 39.193 28.9231 38.5287 29.2692L37.3317 29.8929L37.3822 29.6266C37.616 28.3926 37.7693 27.2608 37.7316 27.0459C37.7018 26.8764 37.343 26.4494 36.693 25.8099C36.1467 25.2726 35.7342 24.8325 35.7762 24.8319C36.2955 24.825 38.3795 24.4141 38.5664 24.2818C38.7065 24.1826 39.0372 23.6334 39.3695 22.9481C39.6803 22.3072 39.9617 21.7828 39.9947 21.7828C40.0277 21.7828 40.3091 22.3072 40.6199 22.9481ZM20.1667 27.365C19.6283 27.6574 19.5925 27.8693 19.6686 30.3146L19.7375 32.5298L18.0503 33.7926C16.3956 35.0312 16.0007 35.4314 16 35.8705C15.9995 36.1371 16.2034 36.5487 16.4422 36.7634C16.5391 36.8506 17.5623 37.1878 18.7155 37.5128L20.8126 38.1037L21.4209 39.9039C21.7554 40.894 22.1045 41.8728 22.1966 42.0788C22.4947 42.7451 23.3449 42.9692 23.8764 42.5216C24.0269 42.3947 24.6609 41.5216 25.285 40.5814L26.4199 38.8719L28.6606 38.807C30.5883 38.7512 30.9346 38.7185 31.1394 38.5726C31.4863 38.3255 31.7397 37.764 31.6627 37.4129C31.627 37.2502 31.0063 36.3735 30.2404 35.4037L28.8815 33.6832L29.3959 32.046C30.1464 29.6577 30.1895 29.472 30.0823 29.0834C30.0316 28.8998 29.8802 28.6629 29.7457 28.5571C29.2446 28.1625 29.0355 28.1952 26.8241 29.0139L24.7595 29.7783L22.9357 28.4971C20.9798 27.1231 20.7701 27.0373 20.1667 27.365ZM57.0558 28.498L55.2351 29.7803L53.1679 29.0149C50.9529 28.1948 50.745 28.1623 50.2427 28.5579C50.1077 28.6641 49.9528 28.9163 49.8985 29.1181C49.8092 29.4502 49.8622 29.686 50.4533 31.5848L51.1069 33.6844L49.7484 35.4044C48.9828 36.3737 48.3624 37.2502 48.3267 37.4129C48.2496 37.7642 48.5033 38.3262 48.85 38.5717C49.0542 38.7163 49.4071 38.7496 51.3285 38.8056L53.5688 38.8709L54.704 40.5808C55.3283 41.5214 55.9625 42.3947 56.113 42.5216C56.4509 42.8062 56.9658 42.8251 57.3864 42.5685C57.7203 42.3646 57.7648 42.2624 58.6349 39.7022L59.1788 38.1018L61.2916 37.5098C63.4366 36.9086 63.612 36.8269 63.8826 36.3009C64.2164 35.6523 63.9185 35.2663 61.9344 33.7756L60.2524 32.5121L60.3211 30.3059C60.3974 27.8546 60.3612 27.6492 59.8033 27.3604C59.1959 27.0461 59.0056 27.1249 57.0558 28.498ZM23.8447 31.9221C24.3605 32.2704 24.7135 32.2423 26.0412 31.747C26.6674 31.5134 27.1879 31.3313 27.1978 31.3422C27.2077 31.3531 27.0494 31.8982 26.8463 32.5535C26.6431 33.2088 26.4761 33.8569 26.4753 33.9937C26.4734 34.2802 26.7027 34.6397 27.5826 35.7299L28.2115 36.5091L26.7809 36.5567C25.0858 36.6132 25.2286 36.5313 24.2336 38.0179L23.5427 39.0501L23.1452 37.856C22.9265 37.1992 22.6625 36.5536 22.5586 36.4212C22.4322 36.2605 22.1499 36.1165 21.7079 35.9874C21.344 35.8811 20.743 35.7057 20.3724 35.5974L19.6987 35.4006L20.6343 34.704C22.1353 33.5865 22.0517 33.7469 22.014 32.0561L21.982 30.6225L22.7281 31.1473C23.1385 31.4359 23.6409 31.7846 23.8447 31.9221ZM57.975 32.0661C57.9378 33.7379 57.8408 33.5492 59.307 34.6579L60.2897 35.4008L59.6165 35.5976C59.2462 35.7057 58.6454 35.8811 58.2815 35.9874C57.8395 36.1165 57.5572 36.2605 57.4308 36.4212C57.3269 36.5536 57.0629 37.1992 56.8442 37.856L56.4466 39.0501L55.7557 38.0179C54.7608 36.5313 54.9035 36.6132 53.2085 36.5567L51.7779 36.5091L52.4068 35.7299C53.2867 34.6397 53.516 34.2802 53.5141 33.9937C53.5133 33.8569 53.3463 33.2088 53.1431 32.5535C52.9399 31.8982 52.7844 31.3505 52.7974 31.3364C52.8104 31.3223 53.3309 31.5044 53.9539 31.7413C54.577 31.9781 55.2448 32.1719 55.4379 32.172C55.7859 32.1722 56.2002 31.9323 57.4982 30.9789C57.743 30.799 57.9576 30.6508 57.975 30.6496C57.9924 30.6482 57.9924 31.2857 57.975 32.0661ZM39.5662 35.5924C39.4615 35.6395 39.2687 35.7933 39.1377 35.9343L38.8997 36.1906L38.8723 39.3648L38.8448 42.5391L37.8249 44.1913L36.8049 45.8434L35.567 46.6651L34.3292 47.4868L34.2766 46.7844C34.2295 46.1544 34.1926 46.0504 33.9177 45.7753L33.6114 45.4687H29.3302H25.049L24.7377 45.7803L24.4265 46.0919V55.7151V65.3383L24.7377 65.6499L25.049 65.9615H29.3299H33.6108L33.8665 65.7054L34.1224 65.4494L34.4662 65.625C35.2077 66.0036 35.639 66.0199 44.0891 65.9902L52.2303 65.9615L52.8121 65.6923C53.5402 65.3555 54.1876 64.7043 54.5346 63.9599C54.7608 63.4745 54.8012 63.2654 54.8012 62.5778C54.8012 61.9007 54.7598 61.6793 54.549 61.2294L54.297 60.6912L54.6603 60.3359C54.8603 60.1405 55.1449 59.7179 55.2929 59.3968C55.5212 58.9014 55.5621 58.69 55.5625 58.0027C55.5628 57.325 55.5217 57.1045 55.3108 56.6543L55.0587 56.116L55.4221 55.7608C55.6221 55.5654 55.9067 55.1427 56.0546 54.8216C56.283 54.3263 56.3238 54.1149 56.3242 53.4275C56.3246 52.7391 56.2847 52.5318 56.0583 52.048C55.9119 51.7349 55.7232 51.4026 55.6389 51.3094C55.4983 51.1537 55.4983 51.1263 55.6389 50.9706C55.7232 50.8774 55.9119 50.545 56.0583 50.2319C56.2845 49.7486 56.3247 49.5403 56.3247 48.8524C56.3247 48.1648 56.2843 47.9557 56.0581 47.4703C55.7111 46.7259 55.0637 46.0747 54.3356 45.7379L53.7538 45.4687L49.739 45.441L45.7243 45.4133L45.6847 42.4862C45.6514 40.0252 45.6184 39.4757 45.477 39.0349C44.9171 37.2899 43.7843 36.2062 42.0419 35.7485C41.3572 35.5686 39.8328 35.4725 39.5662 35.5924ZM41.8448 38.0875C42.443 38.3115 43.022 38.894 43.2296 39.4804C43.3252 39.7505 43.3731 40.7782 43.4145 43.4416L43.4702 47.0381L43.7813 47.3496L44.0925 47.661L48.7548 47.7086L53.4171 47.7563L53.7283 48.0679C53.996 48.3361 54.0394 48.4454 54.0394 48.8524C54.0394 49.2593 53.996 49.3688 53.7284 49.6369L53.4173 49.9485L51.8018 49.9962L50.1863 50.0439L49.8752 50.3554C49.6076 50.6236 49.5642 50.7331 49.5642 51.14C49.5642 51.5469 49.6076 51.6564 49.8752 51.9245L50.1863 52.2361L51.8018 52.2838L53.4173 52.3314L53.7284 52.643C53.996 52.9111 54.0394 53.0206 54.0394 53.4275C54.0394 53.8344 53.996 53.944 53.7284 54.2121L53.4173 54.5237L51.8018 54.5713L50.1863 54.619L49.8752 54.9306C49.6076 55.1987 49.5642 55.3082 49.5642 55.7151C49.5642 56.1221 49.6075 56.2314 49.8754 56.4997L50.1867 56.8112L51.4209 56.8589L52.6551 56.9066L52.9664 57.2181C53.2344 57.4864 53.2777 57.5957 53.2777 58.0027C53.2777 58.4097 53.2344 58.519 52.9664 58.7872L52.6551 59.0988L51.4209 59.1465L50.1867 59.1941L49.8754 59.5057C49.6075 59.7739 49.5642 59.8833 49.5642 60.2903C49.5642 60.6949 49.6081 60.8071 49.8679 61.0673C50.1518 61.3514 50.2288 61.3754 51.04 61.434C51.8513 61.4927 51.9283 61.5167 52.2122 61.8008C52.472 62.061 52.5159 62.1732 52.5159 62.5778C52.5159 62.9848 52.4726 63.0941 52.2047 63.3624L51.8933 63.674H43.7233H35.5531L35.1671 63.4182C34.9548 63.2776 34.6794 62.9988 34.5551 62.7987L34.3292 62.4348L34.3039 56.3347L34.2785 50.2345L36.2522 48.9477C38.5239 47.4666 38.7189 47.316 38.8895 46.9108C38.9586 46.7468 39.4819 45.8619 40.0524 44.9445L41.0897 43.2765L41.1177 40.5838C41.1338 39.0317 41.1827 37.8911 41.2331 37.8911C41.2813 37.8911 41.5565 37.9795 41.8448 38.0875ZM31.9963 55.7151V63.7216H29.3302H26.6641V55.7151V47.7086H29.3302H31.9963V55.7151ZM28.9017 60.8529C28.4779 61.0392 28.2352 61.4265 28.2352 61.9164C28.2352 62.3168 28.2796 62.428 28.5465 62.6952C28.8144 62.9634 28.9236 63.0067 29.3302 63.0067C29.7368 63.0067 29.846 62.9634 30.114 62.6952C30.3819 62.4269 30.4252 62.3176 30.4252 61.9106C30.4252 61.5091 30.3808 61.3932 30.1307 61.1428C29.8163 60.8281 29.2578 60.6964 28.9017 60.8529Z" fill="#F6CE45"/>
</svg>
