<svg width="80" height="80" viewBox="0 0 80 80" fill="none" xmlns="http://www.w3.org/2000/svg">
<rect width="80" height="80" rx="40" fill="white"/>
<path fill-rule="evenodd" clip-rule="evenodd" d="M49.0779 21.0861C48.9595 21.133 47.8942 22.1397 46.7104 23.3233C44.9312 25.1025 44.4986 25.4916 44.2139 25.5693C43.7361 25.6997 36.0753 25.6983 35.6051 25.5676C35.322 25.489 34.8777 25.09 33.1085 23.3252C30.8047 21.0271 30.7288 20.9726 30.0376 21.1215C29.6912 21.1961 29.2306 21.6466 22.727 28.2735L18 33.09V33.6729V34.2559L19.9156 36.2141C22.1547 38.5031 22.2649 38.6709 22.4027 40.001C22.5347 41.2733 22.7054 41.9989 23.0307 42.6704L23.3228 43.2733L23.1552 43.5101C22.2826 44.7422 22.251 46.6692 23.0825 47.9315C23.6574 48.8042 24.6547 49.4768 25.6298 49.6495L26.1505 49.7418L26.2493 50.2759C26.5094 51.682 27.5169 52.8366 28.8962 53.3091C29.1228 53.3868 29.4153 53.4503 29.5461 53.4503C29.8342 53.4503 29.8588 53.4864 29.969 54.0708C30.2515 55.5685 31.4546 56.8128 32.9668 57.1713C33.4067 57.2756 34.3558 57.2528 34.8809 57.1252C35.0832 57.076 35.1263 57.1162 35.3517 57.5641C36.3676 59.5832 39.0444 60.2965 40.9164 59.0471C41.4872 58.6662 42.546 57.5715 42.7719 57.1288L42.9309 56.8171L43.142 56.9829C44.3224 57.9101 46.139 58.0365 47.4368 57.2818C48.3869 56.7292 49.0708 55.7977 49.305 54.7372C49.3824 54.3865 49.4591 54.0841 49.4752 54.0652C49.4915 54.0464 49.7082 53.9986 49.9568 53.9591C51.4421 53.723 52.899 52.2182 53.0841 50.729L53.1405 50.2751L53.6702 50.176C54.8693 49.9518 55.9265 49.1386 56.447 48.0403C57.0026 46.8679 56.9855 45.6517 56.3972 44.4849L56.0398 43.7763L56.3035 43.3455C56.9051 42.3624 57.287 41.1104 57.3931 39.7732C57.4252 39.3688 57.4948 38.934 57.5476 38.8069C57.6004 38.6797 58.5997 37.5846 59.7682 36.3732C62.0979 33.9581 62.1526 33.876 61.8963 33.1781C61.8063 32.9329 60.3314 31.383 56.0521 27.0368C52.5663 23.4965 50.2197 21.178 50.0502 21.1068C49.729 20.9719 49.3849 20.9646 49.0779 21.0861ZM54.2575 28.9106L58.8775 33.5852L57.2229 35.2729C55.1025 37.4354 54.9883 37.645 54.7721 39.7737C54.6954 40.5289 54.311 41.8511 54.1682 41.8511C54.1379 41.8511 52.7074 40.4373 50.9894 38.7093L47.8657 35.5676L48.4719 35.1511C49.5617 34.4023 50.867 32.7913 51.0242 32.0011C51.1011 31.6144 50.8522 30.9939 50.5268 30.761C50.167 30.5033 49.6125 30.4538 49.2141 30.6439C48.9827 30.7544 48.7668 30.9925 48.4247 31.5148C47.8435 32.4022 47.2613 32.9278 46.3661 33.3735C45.5235 33.793 44.8823 33.9193 43.8695 33.8653C43.2222 33.8307 42.9319 33.7616 42.1047 33.4446C41.1744 33.0881 41.0627 33.0652 40.2538 33.0652C38.8257 33.0652 38.1744 33.3623 36.9234 34.5844C36.0309 35.4564 35.2933 35.8046 34.2352 35.8539C33.7319 35.8773 33.3186 35.8494 33.0766 35.7756L32.7004 35.6609L35.6358 32.1125C37.2502 30.1608 38.6786 28.5059 38.8099 28.4349C39.0003 28.3318 39.606 28.2942 41.8034 28.2492C45.6002 28.1714 45.4521 28.2308 47.8358 25.8303C48.732 24.9277 49.504 24.1998 49.5514 24.2126C49.5987 24.2255 51.7165 26.3396 54.2575 28.9106ZM32.0708 25.9114C33.4489 27.2826 33.8006 27.5858 34.2707 27.8086C34.5784 27.9546 34.9756 28.1008 35.1531 28.1338C35.3307 28.1668 35.4759 28.2094 35.4759 28.2284C35.4759 28.2475 34.1585 29.8499 32.5484 31.7894C30.6228 34.109 29.5878 35.424 29.5242 35.6321C29.2965 36.3766 29.7158 37.007 30.8705 37.6563C31.7569 38.1547 32.618 38.3988 33.6793 38.4525C35.6685 38.5532 37.1721 37.9657 38.7042 36.4893C39.083 36.1243 39.5013 35.7791 39.6337 35.7222C40.0232 35.5549 40.5082 35.6018 41.1854 35.8723C42.2481 36.2967 42.7761 36.4058 44.0253 36.4587L45.2141 36.5089L49.6174 40.9955C52.0392 43.4631 54.0771 45.5902 54.1461 45.7224C54.3225 46.0605 54.3027 46.6232 54.1022 46.9685C53.76 47.5576 53.0936 47.7976 52.4624 47.5591C52.3292 47.5089 51.5615 46.812 50.7566 46.0106C49.2146 44.4755 49.052 44.3687 48.4342 44.4852C48.084 44.5512 47.7394 44.8138 47.5696 45.1438C47.4185 45.4375 47.4029 46.0275 47.5392 46.2931C47.5926 46.3971 48.2263 47.0859 48.9474 47.8238C49.6684 48.5618 50.3221 49.2902 50.3998 49.4425C50.935 50.4904 49.9413 51.724 48.8467 51.3705C48.6068 51.293 48.1355 50.8852 47.0978 49.8573C46.3166 49.0833 45.5928 48.4065 45.4894 48.3533C45.3859 48.3002 45.1341 48.2569 44.9298 48.2573C44.116 48.2585 43.5354 49.0437 43.7496 49.8533C43.8245 50.1367 44.1045 50.4711 45.2024 51.5892C45.9505 52.351 46.6292 53.1073 46.7106 53.2699C46.9006 53.6491 46.8477 54.286 46.5967 54.6404C46.2149 55.1795 45.4161 55.3373 44.844 54.9863C44.6698 54.8794 44.007 54.2467 43.371 53.5802C42.7351 52.9136 41.9977 52.2185 41.7324 52.0353C41.1566 51.6378 40.3532 51.2917 39.9956 51.287C39.6228 51.2821 39.5553 51.207 39.4912 50.7256C39.3607 49.7451 38.5132 48.5228 37.6108 48.0142C37.3145 47.8471 37.2126 47.7435 37.2533 47.6507C37.4767 47.1408 37.6478 46.496 37.688 46.012C37.8157 44.4785 36.877 42.8907 35.4329 42.1971C34.9018 41.9421 34.7281 41.9036 33.9694 41.8727C33.2497 41.8434 33.0238 41.8679 32.592 42.0224C32.3079 42.1239 32.0104 42.2281 31.9308 42.254C31.8256 42.2882 31.7352 42.2004 31.5986 41.9311C31.3564 41.4538 30.641 40.7399 30.1046 40.4401C28.6828 39.6458 26.9385 39.8308 25.647 40.9131C25.4257 41.0985 25.2212 41.212 25.1924 41.1652C25.1637 41.1185 25.1018 40.7375 25.0548 40.3188C24.7637 37.7185 24.4556 37.118 22.3131 34.9741L21.02 33.6802L25.6438 28.9884C28.1869 26.4078 30.3043 24.2926 30.349 24.2878C30.3938 24.2832 31.1686 25.0137 32.0708 25.9114ZM28.8485 42.7041C29.4046 43.0017 29.6804 43.7948 29.4445 44.4186C29.3206 44.7463 27.2374 46.8621 26.8914 47.0116C26.0087 47.3931 25.0592 46.7734 25.0592 45.8158C25.0592 45.5824 25.1147 45.2864 25.1824 45.1578C25.3202 44.8965 27.416 42.7905 27.6849 42.6432C27.9515 42.4971 28.517 42.5267 28.8485 42.7041ZM34.4999 44.6298C35.0442 44.968 35.2645 45.6918 35.0097 46.3049C34.8707 46.6393 31.2232 50.4074 30.7596 50.6956C29.6488 51.3859 28.3064 50.1064 28.9 48.9232C29.0588 48.6066 32.7166 44.8594 33.1085 44.6118C33.4656 44.3862 34.1216 44.3946 34.4999 44.6298ZM36.4077 50.3094C36.9057 50.6825 37.1123 51.4797 36.8459 52.0002C36.7006 52.2843 34.7965 54.2389 34.4429 54.467C33.8282 54.8634 32.9614 54.6042 32.635 53.9264C32.4185 53.4766 32.4166 53.1001 32.6288 52.6894C32.8263 52.3075 34.8229 50.294 35.1316 50.1656C35.4516 50.0324 36.142 50.1102 36.4077 50.3094ZM39.9176 53.9614C40.5018 54.2281 40.8069 54.9036 40.6364 55.5526C40.5064 56.0473 39.5933 56.9617 39.145 57.0463C38.4257 57.182 37.743 56.782 37.5606 56.1181C37.3994 55.5308 37.5496 55.1323 38.1658 54.5127C38.6824 53.9932 38.9721 53.8323 39.436 53.8073C39.507 53.8035 39.7238 53.8728 39.9176 53.9614Z" fill="#F6CE45"/>
</svg>
