<svg width="80" height="80" viewBox="0 0 80 80" fill="none" xmlns="http://www.w3.org/2000/svg">
<rect width="80" height="80" rx="40" fill="white"/>
<path fill-rule="evenodd" clip-rule="evenodd" d="M28.6219 18.1676C28.2063 18.396 28.1216 18.7732 28.0459 20.7359C27.887 24.8503 28.2918 29.1441 29.0891 31.8018C29.3123 32.5459 29.3032 32.5696 28.8558 32.4101C27.3647 31.8781 25.9783 30.689 25.2053 29.2794C24.4662 27.9313 23.9867 26.0996 23.8183 23.9795L23.7512 23.1346H24.8824C25.5045 23.1346 26.1055 23.0849 26.2179 23.024C26.3305 22.9631 26.4875 22.7557 26.5671 22.5632C26.6925 22.2596 26.6925 22.1662 26.5671 21.8627C26.4875 21.6701 26.3305 21.4628 26.2179 21.4018C26.0945 21.335 25.3312 21.2912 24.291 21.2912C22.6153 21.2912 22.5605 21.298 22.2842 21.5386L22 21.7861L22.0004 23.4077C22.001 25.8502 22.4223 27.7833 23.3725 29.704C24.646 32.278 26.6119 33.8619 29.2636 34.4505L30.0459 34.6241L30.7884 36.0739C32.2083 38.8458 33.5512 40.8064 35.5845 43.0763C36.2516 43.821 36.902 44.6422 37.03 44.9013C37.5891 46.0335 37.5427 47.6962 36.9173 48.94L36.5813 49.6081L35.4175 49.6593C34.7775 49.6875 34.1561 49.7672 34.0366 49.8364C33.687 50.039 33.5955 50.5135 33.5955 52.1253V53.639L32.0284 53.6719C29.8177 53.7181 30.008 53.3928 29.9707 57.1893L29.9412 60.2078H29.3332C28.8228 60.2078 28.6854 60.2481 28.4768 60.4592C28.1448 60.7948 28.1431 61.3253 28.4725 61.7126L28.717 62H40.3807H52.0444L52.2889 61.7126C52.6133 61.3312 52.6117 60.8354 52.2849 60.4788C52.0694 60.2437 51.956 60.2078 51.4284 60.2078H50.8202L50.7907 57.1893C50.7534 53.3928 50.9437 53.7181 48.733 53.6719L47.1659 53.639V52.1253C47.1659 51.2817 47.1161 50.4675 47.0537 50.286C46.8412 49.6697 46.7665 49.6593 42.5303 49.6593H38.6948L38.9525 48.9169C39.1825 48.2543 39.2098 48.02 39.2062 46.7406C39.2027 45.489 39.1722 45.2288 38.9662 44.6924C38.6198 43.7906 38.1983 43.1755 37.1417 42.0297C35.1677 39.8889 33.761 37.8337 32.3755 35.0656C31.2097 32.7363 30.63 30.8441 30.2106 27.9992C29.892 25.8382 29.7224 21.4107 29.9135 20.2415L29.9763 19.8574H40.3807H50.7851L50.8479 20.2415C50.9478 20.8532 50.9227 24.2105 50.8074 25.6545C50.5188 29.2674 49.8644 31.9847 48.6826 34.4783C47.305 37.3851 45.7489 39.7042 43.6284 42.0106C42.1708 43.5958 41.6398 44.6776 41.5232 46.299C41.4676 47.0733 41.4717 47.0916 41.7766 47.3999C42.3807 48.0108 43.3148 47.6497 43.3197 46.8035C43.3233 46.1621 43.5684 45.2115 43.8596 44.7091C44.0139 44.4426 44.6468 43.6617 45.2659 42.9736C47.1924 40.8323 48.5691 38.8146 49.9716 36.0764L50.7128 34.6295L51.6597 34.4081C54.4695 33.7516 56.5737 31.8466 57.7771 28.8697C58.4645 27.1692 58.8482 24.964 58.7951 23.02C58.7621 21.8123 58.7551 21.7796 58.4772 21.5381L58.1931 21.2912H55.4788H52.7644L52.6928 20.0522C52.613 18.6736 52.5211 18.3731 52.1135 18.16C51.6962 17.9417 29.0194 17.9492 28.6219 18.1676ZM39.8465 23.2467C39.7477 23.3048 39.3666 23.9602 38.9996 24.7029C38.6326 25.4457 38.3261 26.0607 38.3184 26.0697C38.3108 26.0787 37.6459 26.1832 36.8408 26.302C35.2562 26.5357 34.9846 26.664 34.8602 27.2365C34.7649 27.6756 35.0103 28.0375 36.0904 29.051L37.0732 29.9732L36.8516 31.3417C36.5728 33.0628 36.5751 33.2235 36.8823 33.5341C37.2962 33.9527 37.7003 33.8766 39.1255 33.1121L40.3807 32.4387L41.6488 33.119C42.9825 33.8344 43.3454 33.9248 43.7662 33.646C44.1572 33.3869 44.1815 33.053 43.9265 31.4457L43.6923 29.9694L44.6731 29.0491C45.7512 28.0375 45.9965 27.6754 45.9012 27.2365C45.7768 26.664 45.5052 26.5357 43.9206 26.302C43.1155 26.1832 42.4506 26.0787 42.443 26.0697C42.4353 26.0607 42.1283 25.4447 41.7608 24.7008C41.3932 23.9569 41.0037 23.3001 40.8952 23.2414C40.6448 23.106 40.0808 23.1087 39.8465 23.2467ZM56.9431 23.9795C56.583 28.5128 54.9 31.3416 51.9336 32.4001C51.4363 32.5775 51.4402 32.6031 51.7738 31.3837C52.2712 29.5654 52.7347 26.079 52.7355 24.1503C52.7356 23.6668 52.7662 23.2404 52.8033 23.2029C52.8404 23.1654 53.8022 23.1346 54.9406 23.1346H57.0102L56.9431 23.9795ZM40.7351 26.8212C41.1347 27.6668 41.3135 27.8057 42.1724 27.9382C42.5729 27.9999 42.9345 28.0504 42.9758 28.0504C43.0172 28.0504 42.7692 28.3224 42.4248 28.6549C41.8433 29.2163 41.7987 29.2912 41.8009 29.7047C41.8024 29.9495 41.8495 30.3518 41.9057 30.5986C41.9621 30.8454 41.9904 31.0653 41.9687 31.0871C41.9472 31.109 41.581 30.9595 41.155 30.755L40.3807 30.3832L39.6064 30.755C39.1804 30.9595 38.8142 31.109 38.7927 31.0871C38.771 31.0653 38.7994 30.8454 38.8557 30.5986C38.9119 30.3518 38.9591 29.9492 38.9605 29.704C38.9627 29.2926 38.9157 29.2114 38.3528 28.6542C38.0171 28.3221 37.7691 28.0504 37.8016 28.0504C37.8341 28.0504 38.1885 27.9999 38.589 27.9382C39.4479 27.8057 39.6267 27.6668 40.0264 26.8212C40.1861 26.4834 40.3455 26.207 40.3807 26.207C40.4159 26.207 40.5753 26.4834 40.7351 26.8212ZM45.2417 52.5781V53.6534H40.3807H35.5197V52.5781V51.5028H40.3807H45.2417V52.5781ZM48.9381 57.8523V60.1566H40.3807H31.8233L31.7959 57.9573C31.7809 56.7476 31.7909 55.6989 31.8182 55.6268C31.8582 55.5214 33.5416 55.5008 40.4031 55.5218L48.9381 55.548V57.8523ZM35.6512 57.0845C35.3055 57.3294 35.1706 57.8763 35.363 58.2526C35.4503 58.4234 35.6094 58.6106 35.7167 58.6685C35.9918 58.8175 44.7786 58.8126 45.0544 58.6634C45.1669 58.6025 45.324 58.3951 45.4036 58.2026C45.5289 57.899 45.5289 57.8056 45.4036 57.5021C45.324 57.3095 45.1669 57.1021 45.0544 57.0412C44.9167 56.9668 43.3824 56.9306 40.3592 56.9306C36.5273 56.9306 35.8367 56.9531 35.6512 57.0845Z" fill="#F6CE45" stroke="#F6CE45" stroke-width="0.75"/>
</svg>
