<svg width="25" height="25" fill="none" xmlns="http://www.w3.org/2000/svg"><path d="M22.785 13.77l1.382-7.56a.691.691 0 00-.38-.74.657.657 0 00-.288-.064H5.045L4.456 2.18A1.573 1.573 0 002.905.88H.855a.68.68 0 100 1.358h2.05a.226.226 0 01.215.181l3.136 17.226a2.942 2.942 0 104.425 3.71c.24-.437.365-.926.364-1.424a2.896 2.896 0 00-.464-1.584h6.815a2.942 2.942 0 102.48-1.358H7.513l-.578-3.17H20.34a2.492 2.492 0 002.445-2.048zM9.687 21.93a1.584 1.584 0 11-3.168 0 1.584 1.584 0 013.168 0zm11.774 0a1.584 1.584 0 01-2.706 1.12 1.584 1.584 0 112.242-2.24c.297.297.464.7.464 1.12zM5.294 6.764h17.39l-1.235 6.768a1.132 1.132 0 01-1.109.928H6.698L5.294 6.764z" fill="#112234"/></svg>