<svg width="13" height="10" fill="none" xmlns="http://www.w3.org/2000/svg"><path d="M12.757 3.477c-.54.421-1.219.937-3.61 2.671-.468.352-1.335 1.125-2.156 1.125-.844 0-1.687-.773-2.18-1.125-2.39-1.734-3.07-2.25-3.609-2.671-.094-.07-.21 0-.21.117v4.781A1.11 1.11 0 002.115 9.5h9.75c.61 0 1.125-.492 1.125-1.125V3.594c0-.117-.14-.188-.234-.117zM6.99 6.5c.54.023 1.313-.68 1.711-.96 3.117-2.25 3.352-2.462 4.055-3.024a.533.533 0 00.234-.446v-.445A1.14 1.14 0 0011.866.5h-9.75C1.483.5.991 1.016.991 1.625v.445c0 .188.07.352.211.446.703.562.938.773 4.055 3.023.398.281 1.172.984 1.734.961z" fill="#F6CE45"/></svg>