<svg width="24" height="25" fill="none" xmlns="http://www.w3.org/2000/svg"><path d="M12 24.121l-.424-.404C2.471 15.232 0 12.242 0 7.394 0 3.354 2.824.12 6.353.12 9.247.121 10.87 1.98 12 3.434 13.13 1.98 14.753.121 17.647.121 21.177.121 24 3.353 24 7.394c0 4.848-2.47 7.838-11.576 16.323l-.424.404zM6.353 1.737c-2.753 0-4.941 2.505-4.941 5.657 0 4.121 2.259 6.868 10.588 14.626 8.33-7.758 10.588-10.505 10.588-14.626 0-3.152-2.188-5.657-4.94-5.657-2.471 0-3.813 1.697-4.871 3.071L12 5.858l-.777-1.05c-1.058-1.374-2.4-3.07-4.87-3.07z" fill="#112234"/></svg>