<svg width="23" height="24" fill="none" xmlns="http://www.w3.org/2000/svg"><path fill-rule="evenodd" clip-rule="evenodd" d="M14.22.564c-.633.14-1.154.431-1.647.924-.315.316-.427.467-.596.805a4.27 4.27 0 00-.258.613l-.05.195H.592l-.2.101a.668.668 0 00-.39.678c.02.241.123.406.346.558l.148.101h11.161l.1.326c.284.929 1.083 1.755 2.029 2.1.912.332 1.84.268 2.717-.189.777-.403 1.467-1.274 1.676-2.114l.03-.123h4.295l.148-.101c.223-.152.325-.317.345-.558a.668.668 0 00-.389-.678c-.199-.1-.212-.1-2.302-.1h-2.102l-.05-.192c-.089-.338-.39-.901-.65-1.215A3.363 3.363 0 0014.886.5a4.06 4.06 0 00-.666.064zm1.285 1.457c.693.215 1.183.786 1.31 1.524.21 1.226-.908 2.362-2.137 2.172-1.132-.175-1.876-1.29-1.583-2.37.094-.346.346-.755.59-.957.198-.164.579-.362.795-.413a2.301 2.301 0 011.025.044zM7.251 8.76a3.355 3.355 0 00-2.386 2.258l-.08.257-2.17.013C.502 11.3.44 11.303.32 11.393c-.235.176-.31.32-.31.603 0 .284.075.428.31.604.121.09.183.093 2.3.105l2.174.013.074.255c.214.735.798 1.482 1.479 1.893.138.083.428.213.645.288.334.117.478.14.947.158.684.025 1.025-.047 1.627-.34.755-.369 1.425-1.142 1.673-1.93l.102-.326 5.607-.011c5.584-.012 5.608-.013 5.732-.105.236-.176.31-.32.31-.604s-.074-.427-.31-.603c-.124-.093-.148-.093-5.732-.105l-5.607-.011-.104-.332c-.244-.786-.924-1.566-1.687-1.936a4.257 4.257 0 00-.703-.267c-.41-.096-1.197-.087-1.596.018zm1.43 1.437a1.907 1.907 0 011.07 2.689c-.21.409-.592.733-1.071.907-.235.085-.346.098-.697.083-.352-.016-.466-.04-.722-.161-.96-.45-1.374-1.605-.912-2.548.216-.443.548-.744 1.044-.947.344-.142.914-.152 1.289-.023zm5.674 6.67c-1.225.238-2.252 1.132-2.598 2.26l-.1.326H.497l-.15.102c-.222.151-.324.317-.344.558a.668.668 0 00.389.677l.2.102H11.67l.05.195c.027.108.144.386.26.618.348.695.981 1.262 1.766 1.581 1.25.508 2.872.083 3.753-.983.287-.347.527-.786.634-1.153l.074-.258h2.101c2.09 0 2.102-.001 2.301-.102a.668.668 0 00.39-.677c-.02-.241-.123-.407-.346-.558l-.148-.101h-4.287l-.08-.258c-.168-.536-.425-.953-.857-1.384-.457-.457-.883-.71-1.463-.87-.438-.122-1.058-.154-1.462-.075zm1.012 1.444c.96.218 1.611 1.181 1.447 2.137-.094.548-.38.998-.823 1.294a1.91 1.91 0 01-2.649-.543c-.611-.946-.26-2.243.74-2.735.454-.223.796-.264 1.285-.152z" fill="#112234"/></svg>