<svg width="41" height="42" fill="none" xmlns="http://www.w3.org/2000/svg"><path fill-rule="evenodd" clip-rule="evenodd" d="M14.228 7.084C15.721 7.015 16.198 7 20 7c3.803 0 4.279.017 5.77.084 1.492.067 2.51.305 3.401.65.933.353 1.78.904 2.48 1.617a6.838 6.838 0 011.613 2.478c.346.89.583 1.909.652 3.398.069 1.495.084 1.971.084 5.773 0 3.803-.017 4.279-.084 5.772-.067 1.489-.305 2.507-.652 3.398a6.866 6.866 0 01-1.614 2.48 6.864 6.864 0 01-2.479 1.614c-.89.346-1.909.583-3.398.652-1.494.069-1.97.084-5.773.084s-4.279-.017-5.772-.084c-1.489-.067-2.507-.305-3.398-.652a6.87 6.87 0 01-2.48-1.614 6.862 6.862 0 01-1.616-2.479c-.345-.89-.581-1.909-.65-3.398C6.015 25.278 6 24.802 6 21c0-3.803.017-4.279.084-5.77.067-1.492.305-2.51.65-3.401a6.868 6.868 0 011.617-2.48 6.863 6.863 0 012.478-1.615c.89-.345 1.909-.581 3.398-.65h.001zm11.43 2.52c-1.477-.067-1.92-.081-5.658-.081-3.738 0-4.18.014-5.657.081-1.366.062-2.107.29-2.6.482a4.347 4.347 0 00-1.61 1.046 4.343 4.343 0 00-1.047 1.61c-.192.494-.42 1.235-.482 2.6-.067 1.477-.081 1.92-.081 5.658 0 3.738.014 4.18.081 5.657.062 1.366.29 2.107.482 2.6a4.348 4.348 0 001.046 1.61 4.348 4.348 0 001.61 1.047c.494.192 1.235.42 2.6.482 1.477.068 1.919.081 5.658.081 3.74 0 4.18-.013 5.657-.081 1.366-.062 2.107-.29 2.6-.482a4.347 4.347 0 001.61-1.047 4.348 4.348 0 001.047-1.61c.192-.493.42-1.234.482-2.6.067-1.476.081-1.919.081-5.657s-.014-4.18-.081-5.657c-.062-1.366-.29-2.107-.482-2.6a4.347 4.347 0 00-1.047-1.61 4.345 4.345 0 00-1.61-1.047c-.493-.192-1.234-.42-2.6-.482zm-7.446 15.712a4.67 4.67 0 103.361-8.713 4.67 4.67 0 00-3.361 8.713zm-3.3-9.404A7.197 7.197 0 1125.089 26.09a7.197 7.197 0 01-10.177-10.178zm13.88-1.036a1.7 1.7 0 00.036-2.441 1.702 1.702 0 10-.036 2.44z" fill="#F6CE45"/></svg>