<svg width="25" height="25" fill="none" xmlns="http://www.w3.org/2000/svg"><path d="M20.479 12.88l1.19-6.523a.596.596 0 00-.575-.693H5.176l-.508-2.783A1.357 1.357 0 003.33 1.758H1.562a.586.586 0 000 1.172H3.33a.195.195 0 01.186.156L6.22 17.949a2.54 2.54 0 104.13 1.973 2.5 2.5 0 00-.4-1.367h5.88a2.539 2.539 0 102.139-1.172H7.304l-.498-2.735h11.562a2.148 2.148 0 002.11-1.767zm-11.3 7.042a1.367 1.367 0 11-2.733 0 1.367 1.367 0 012.734 0zm10.157 0a1.366 1.366 0 11-2.733 0 1.366 1.366 0 012.733 0zM5.39 6.836h15l-1.065 5.84a.977.977 0 01-.957.8H6.602L5.39 6.837z" fill="#757575"/></svg>