<svg width="40" height="41" fill="none" xmlns="http://www.w3.org/2000/svg"><path fill-rule="evenodd" clip-rule="evenodd" d="M2.578.136C.808.61-.362 2.602.104 4.347c.146.548.297.822 1.659 3.017l1.204 1.941v21.417l-1.204 1.942C.4 34.859.25 35.134.103 35.68c-.481 1.806.77 3.823 2.638 4.254.224.051 4.624.08 12.614.08 13.242.003 12.677.02 13.494-.398.45-.229 1.166-.93 1.408-1.377.348-.643.474-1.22.43-1.978-.05-.878-.125-1.036-1.688-3.55l-1.262-2.03V14.075h4.127c4.67 0 4.623-.005 5.213.584.489.49.584.858.584 2.268 0 1.32-.082 1.693-.471 2.166-.428.52-.807.638-2.225.697-.977.04-1.352.088-1.713.216a4.394 4.394 0 00-2.717 2.728c-.16.464-.18.667-.18 1.812 0 1.144.02 1.348.18 1.812.574 1.661 2.028 2.791 3.766 2.927 1.014.08 1.068.121 2.499 1.928.853 1.078 1.357 1.648 1.528 1.73.974.462 2.038-.596 1.55-1.54-.19-.366-2.45-3.177-2.826-3.514-.593-.532-1.591-.92-2.363-.92-.85 0-1.644-.54-1.9-1.29-.17-.497-.175-1.753-.01-2.237.163-.479.511-.878.955-1.095.322-.158.536-.189 1.621-.234.977-.04 1.352-.087 1.713-.216a4.394 4.394 0 002.717-2.728c.167-.484.18-.648.18-2.242 0-1.593-.013-1.757-.18-2.241-.442-1.28-1.394-2.239-2.717-2.738-.456-.172-.529-.175-4.897-.2l-4.434-.024V9.348l1.325-2.136c.728-1.175 1.387-2.3 1.464-2.5.105-.272.141-.584.141-1.224 0-.806-.016-.893-.251-1.39-.462-.975-1.328-1.707-2.33-1.968-.68-.177-24.848-.172-25.508.006zM27.735 2.49c.39.196.627.587.627 1.033 0 .335-.1.528-1.218 2.333l-1.218 1.967H15.365L4.803 7.822l-.664-1.07c-1.575-2.534-1.797-2.93-1.797-3.201 0-.47.309-.918.781-1.132.065-.03 5.568-.056 12.229-.059 11.381-.005 12.128.003 12.383.131zm-8.671 7.725c-.234.06-13.513 2.297-13.631 2.297-.105 0-.122-.164-.122-1.172v-1.173l6.935.01c3.814.004 6.882.022 6.818.038zm6.329 2.747v1.467l-9.865 1.667c-5.426.916-9.944 1.684-10.041 1.706l-.176.04v-2.896l.215-.047c.197-.043 2.726-.471 15.218-2.579 2.45-.413 4.489-.765 4.532-.782a2.73 2.73 0 01.097-.036c.01-.003.02.654.02 1.46zm0 5.291c0 1.433-.002 1.445-.176 1.487-.097.024-4.606.792-10.021 1.707L5.35 23.112l-.021-1.407c-.012-.773.006-1.432.039-1.463.033-.03 1.66-.326 3.616-.657 1.955-.33 6.403-1.086 9.884-1.68 3.481-.593 6.373-1.082 6.427-1.087.075-.006.098.329.098 1.436zm0 5.314c0 1.433-.002 1.444-.176 1.484-.407.093-19.603 3.323-19.747 3.323-.154 0-.159-.045-.159-1.446 0-.795.024-1.445.054-1.445.078 0 15.62-2.635 18.426-3.124a30.58 30.58 0 011.426-.227l.176-.01v1.445zm0 5.08v1.211l-7.17-.01c-6.12-.007-7.083-.023-6.583-.11l4.572-.777c2.191-.373 5.075-.865 6.407-1.094 1.332-.228 2.501-.419 2.598-.423.175-.008.176-.003.176 1.203zm1.751 5.523c1.118 1.805 1.218 1.998 1.218 2.333 0 .446-.237.837-.627 1.032-.255.129-1.008.137-12.372.137H3.262l-.312-.175a1.234 1.234 0 01-.608-1.021c0-.271.222-.667 1.797-3.203l.664-1.069h10.562l10.561-.002 1.218 1.968z" fill="#F6CE45"/></svg>