<svg width="45" height="41" fill="none" xmlns="http://www.w3.org/2000/svg"><path fill-rule="evenodd" clip-rule="evenodd" d="M10.414.079C6.359.47 3.248 2.519 1.538 5.92.53 7.926.078 10.068.074 12.85c0 1.104.042 1.708.173 2.435.55 3.051 2.37 6.695 5.251 10.511l.787 1.041-3.016 3.022C1.242 31.889.209 32.985.119 33.2c-.311.75.008 1.696.713 2.11.54.316 1.204.324 1.7.02.192-.118 4.384-4.277 9.315-9.243 4.93-4.967 9.072-9.098 9.202-9.18.13-.083.418-.175.638-.205.898-.123.342-.627 10.462 9.474 9.689 9.67 9.413 9.412 10.105 9.412.601 0 1.223-.392 1.509-.952.185-.364.222-1.039.078-1.428-.05-.133-1.461-1.615-3.137-3.294l-3.047-3.053.696-.903c3.306-4.294 5.169-8.143 5.576-11.522.245-2.038-.09-5.057-.779-7.02-1.398-3.98-4.337-6.445-8.616-7.225-1.084-.198-3.518-.203-4.578-.009-2.299.42-4.044 1.232-5.828 2.71-.602.497-1.507 1.453-1.9 2.004l-.15.208-.274-.342C20.818 3.54 19.972 2.747 18.854 2 16.536.454 13.553-.225 10.413.08zm2.647 3.433c1.108.127 2.011.388 2.964.856 1.94.954 3.425 2.624 4.21 4.738.328.88.528 1.148 1.036 1.382.948.438 1.962-.03 2.357-1.086.677-1.808 2.007-3.494 3.568-4.523 2.1-1.382 4.95-1.793 7.684-1.105.827.207 2.056.81 2.706 1.325 1.893 1.501 2.992 4.393 2.99 7.867 0 2.9-1.502 6.28-4.672 10.522l-.693.927-.714-.71-.714-.71v-3.663c0-4.08-.024-4.294-.535-4.788-.883-.855-2.188-.653-2.741.424-.148.288-.164.524-.164 2.387 0 1.137-.027 2.067-.06 2.067s-1.262-1.194-2.73-2.653c-2.456-2.44-2.722-2.679-3.315-2.968-1.52-.742-3.117-.743-4.644-.002-.616.298-.878.544-5.771 5.426l-5.126 5.113-.6-.802c-2.766-3.706-4.35-7.052-4.574-9.66-.082-.948.012-2.68.2-3.708.713-3.89 3.085-6.217 6.776-6.646a10.967 10.967 0 012.562-.01zm7.346 20.973a1.72 1.72 0 00-.904 1.025c-.057.192-.084.82-.067 1.58.028 1.243.033 1.267.287 1.626.428.607.751.72 2.141.753 1.4.033 1.76-.062 2.235-.588.417-.462.504-.866.469-2.188-.027-.993-.054-1.164-.235-1.48-.418-.732-.848-.89-2.409-.887-.948.001-1.235.031-1.517.16zM12.5 30.334a1.7 1.7 0 00-.813 2.296c.273.565 4.265 4.209 6.514 5.947 1.383 1.068 2.377 1.438 3.845 1.431 1.569-.007 2.537-.41 4.19-1.745 1.389-1.12 2.704-2.292 4.515-4.02 1.348-1.288 1.493-1.455 1.613-1.858.221-.745-.037-1.492-.666-1.928-.435-.301-1.16-.362-1.63-.137-.177.084-1.048.835-1.936 1.668-1.83 1.718-2.958 2.718-4.173 3.696-1.215.978-1.974 1.152-2.924.669-.724-.368-3.662-2.874-6.013-5.129-.457-.439-.969-.855-1.136-.925a1.827 1.827 0 00-1.386.035z" fill="#F6CE45"/></svg>