<svg width="39" height="39" fill="none" xmlns="http://www.w3.org/2000/svg"><path d="M23.406 16.473l-1.54-.056-.333 9.037 1.54.056.333-9.037zm-2.976-.028h-1.54v9.037h1.54v-9.037zm-2.643 9.009l-.334-9.037-1.539.056.334 9.037 1.539-.056z" fill="#F6CE45"/><path d="M10.498 12.678v1.527h1.605l1.273 14.348a.767.767 0 00.767.697h11.01c.4 0 .732-.303.767-.697l1.273-14.348h1.63v-1.527H10.499zm13.95 15.045h-9.6l-1.2-13.518h12l-1.2 13.518z" fill="#F6CE45"/><path d="M22.177 9.75h-5.03a1.28 1.28 0 00-1.284 1.273v2.418h1.54v-2.164h4.518v2.164h1.54v-2.418a1.28 1.28 0 00-1.284-1.273z" fill="#F6CE45"/></svg>