<svg width="13" height="14" fill="none" xmlns="http://www.w3.org/2000/svg"><path fill-rule="evenodd" clip-rule="evenodd" d="M8.087.088C8.946.201 9.47.31 9.781.44c.896.377 1.834 1.297 2.245 2.203.337.742.537 2.658.42 4.024-.06.718-.213 1.648-.323 1.97-.332.972-1.363 2.043-2.36 2.45-.634.258-1.741.405-3.3.437l-1.159.024-.692.736c-.38.404-.747.765-.814.8-.244.129-.576.014-.728-.253-.028-.05-.054-.382-.067-.857l-.02-.775-.246-.094c-.5-.192-1.05-.585-1.52-1.085C.483 9.237.228 8.609.05 7.14c-.068-.564-.068-2.2 0-2.754.18-1.475.432-2.098 1.166-2.881C1.894.784 2.58.389 3.432.232a24.58 24.58 0 011.71-.218c.436-.04 2.462.011 2.945.074zM5.041 1.184c-.673.056-1.558.2-1.84.3-.381.135-.688.354-1.125.803-.486.5-.648.795-.763 1.4A11.04 11.04 0 001.27 7.58c.106.636.17.82.407 1.182.366.557 1.012 1.09 1.578 1.301l.231.087.011 1.217c.01 1.192.013 1.217.093 1.217.054 0 .437-.37 1.124-1.089l1.043-1.089.758-.027c1.345-.047 2.478-.206 2.899-.406.697-.331 1.44-1.11 1.635-1.716.21-.647.342-2.186.273-3.163-.048-.693-.171-1.511-.273-1.828-.154-.475-.799-1.233-1.329-1.56-.339-.209-.645-.304-1.293-.4a15.635 15.635 0 00-3.386-.122zM6.9 2.576c.935.228 1.664.812 2.076 1.663.223.46.306.792.346 1.388l.027.399-.107.05c-.09.041-.119.038-.184-.022C9 6 8.976 5.9 8.954 5.606c-.064-.839-.291-1.374-.806-1.902-.488-.5-1.036-.749-1.806-.82-.358-.033-.489-.162-.33-.324.089-.09.483-.083.89.016zm-2.454.522c.235.253.764 1.04.801 1.194.053.215-.023.385-.29.647-.305.298-.316.356-.143.77.166.396.455.818.742 1.082.326.3.894.595 1.148.595.171 0 .197-.015.41-.247.244-.268.41-.346.608-.288.164.048.933.59 1.198.845.165.159.215.235.215.328 0 .339-.528.973-.92 1.106-.193.065-.212.064-.458-.019-.717-.241-1.946-.975-2.596-1.548-.57-.503-1.155-1.266-1.583-2.068-.244-.456-.616-1.365-.615-1.503.003-.428.688-1.127 1.103-1.127.147 0 .187.024.38.233zm2.451.282c.801.208 1.39.804 1.572 1.591.08.344.079.665-.003.747-.142.146-.3.022-.3-.236 0-.225-.1-.648-.198-.843-.23-.458-.74-.816-1.301-.911a2.004 2.004 0 01-.366-.088c-.081-.043-.094-.2-.022-.273.066-.068.33-.062.618.013zm.25.897c.358.19.537.472.567.898.02.273.019.275-.094.304-.089.023-.128.01-.186-.064a.386.386 0 01-.075-.202.82.82 0 00-.279-.537.767.767 0 00-.297-.115.952.952 0 01-.24-.059c-.082-.043-.094-.199-.02-.276.065-.07.456-.037.624.051z" fill="#fff"/></svg>