<svg width="14" height="14" fill="none" xmlns="http://www.w3.org/2000/svg"><path d="M7 .76A6.247 6.247 0 00.76 7c0 1.199.34 2.363.985 3.367l.155.24-.607 2.156 2.23-.574.23.14c.975.596 2.098.91 3.247.91 3.44 0 6.24-2.799 6.24-6.24 0-3.44-2.8-6.24-6.24-6.24zm3.826 8.158l-.078.363c-.087.41-.331.773-.685 1-.446.285-1.024.425-1.76.217-2.282-.645-3.572-2.156-4.265-3.1-.692-.944-.96-1.889-.787-2.66.117-.517.495-.914.731-1.119a.59.59 0 01.42-.143l.487.026c.096.005.18.065.218.153l.71 1.662a.253.253 0 01-.04.265l-.619.715a.187.187 0 00-.023.208c.814 1.57 2.298 2.19 2.741 2.346.076.027.16.002.208-.062l.647-.838a.253.253 0 01.306-.075l1.648.76a.252.252 0 01.141.282z" fill="#fff"/></svg>