<svg width="45" height="44" fill="none" xmlns="http://www.w3.org/2000/svg"><path d="M41.865 21.88c0-.094 0-.202-.004-.326-.004-.348-.013-.74-.021-1.156a64.753 64.753 0 00-.19-3.52c-.128-1.55-.318-2.844-.575-3.815a5.995 5.995 0 00-4.224-4.232c-1.216-.327-3.597-.529-6.948-.653-1.594-.06-3.3-.1-5.006-.12-.597-.01-1.152-.014-1.65-.018h-1.263c-.499.004-1.053.009-1.65.017-1.706.022-3.412.06-5.006.12-3.352.13-5.737.331-6.948.654a5.988 5.988 0 00-4.224 4.232c-.262.971-.447 2.265-.576 3.816a64.693 64.693 0 00-.189 3.519c-.013.417-.017.808-.021 1.156 0 .124-.005.232-.005.326v.24c0 .095 0 .203.005.328a64.695 64.695 0 00.21 4.675c.129 1.55.318 2.844.576 3.815a5.988 5.988 0 004.224 4.233c1.211.326 3.596.528 6.948.653 1.594.06 3.3.099 5.006.12.597.009 1.151.013 1.65.017h1.263c.498-.004 1.053-.008 1.65-.017 1.706-.022 3.412-.06 5.006-.12 3.351-.13 5.736-.331 6.948-.653a5.98 5.98 0 004.224-4.233c.262-.971.447-2.264.575-3.816a64.78 64.78 0 00.21-4.674c0-.125.005-.233.005-.327v-.24zm-3.093.224c0 .09 0 .189-.005.305-.004.335-.013.704-.021 1.104a58.056 58.056 0 01-.18 3.347c-.117 1.384-.28 2.518-.482 3.279a2.891 2.891 0 01-2.037 2.04c-.902.242-3.175.435-6.265.55a195.054 195.054 0 01-6.552.134H22l-1.623-.013c-1.68-.021-3.36-.06-4.929-.12-3.09-.12-5.367-.31-6.265-.55a2.899 2.899 0 01-2.037-2.041c-.201-.76-.365-1.895-.48-3.279a62.236 62.236 0 01-.181-3.347c-.013-.4-.017-.773-.022-1.104 0-.116-.004-.22-.004-.305v-.206c0-.09 0-.19.004-.306.005-.335.013-.704.022-1.104.03-1.143.09-2.286.18-3.347.116-1.384.28-2.518.481-3.279a2.891 2.891 0 012.037-2.04c.902-.241 3.176-.435 6.265-.55a195.084 195.084 0 016.553-.134h1.229l1.624.013c1.68.021 3.36.06 4.928.12 3.09.12 5.367.31 6.265.55a2.899 2.899 0 012.037 2.041c.202.76.365 1.895.481 3.279a62.2 62.2 0 01.18 3.347c.014.4.018.774.022 1.104 0 .116.005.22.005.306v.206zM18.79 27.758l9.969-5.8-9.969-5.715v11.515z" fill="#F6CE45" stroke="#112234" stroke-width=".3"/></svg>