<svg width="81" height="80" fill="none" xmlns="http://www.w3.org/2000/svg"><rect x=".5" width="80" height="80" rx="40" fill="#fff"/><path fill-rule="evenodd" clip-rule="evenodd" d="M28.933 18.168c-.404.228-.486.605-.56 2.568-.154 4.114.24 8.408 1.014 11.066.217.744.208.768-.227.608-1.448-.532-2.795-1.721-3.546-3.13-.718-1.349-1.184-3.18-1.348-5.3l-.065-.845h1.1c.604 0 1.187-.05 1.297-.111.109-.06.262-.268.339-.46.122-.304.122-.398 0-.701-.078-.193-.23-.4-.34-.461-.12-.067-.86-.11-1.871-.11-1.628 0-1.681.006-1.95.247l-.276.247v1.622c.001 2.442.41 4.375 1.333 6.296 1.238 2.574 3.147 4.158 5.723 4.746l.76.174.722 1.45c1.38 2.772 2.684 4.732 4.659 7.002.648.745 1.28 1.566 1.404 1.825.543 1.132.498 2.795-.11 4.039l-.326.668-1.13.051c-.622.029-1.226.108-1.342.177-.34.203-.428.678-.428 2.29v1.513l-1.523.033c-2.147.046-1.962-.28-1.999 3.517l-.028 3.019h-.591c-.496 0-.63.04-.832.251-.323.336-.324.866-.004 1.254l.237.287h22.662l.238-.287c.315-.382.313-.878-.004-1.234-.21-.235-.32-.271-.832-.271h-.591l-.029-3.019c-.036-3.796.149-3.47-1.999-3.517l-1.522-.033v-1.514c0-.843-.048-1.657-.11-1.839-.206-.616-.278-.627-4.394-.627h-3.726l.25-.742c.224-.663.25-.897.247-2.176-.003-1.252-.033-1.512-.233-2.049-.336-.901-.746-1.517-1.772-2.662-1.918-2.141-3.285-4.196-4.63-6.964-1.133-2.33-1.696-4.222-2.104-7.067-.31-2.16-.474-6.588-.288-7.758l.06-.384h20.216l.06.384c.098.612.073 3.97-.039 5.413-.28 3.613-.916 6.33-2.064 8.824-1.338 2.907-2.85 5.226-4.91 7.533-1.416 1.585-1.932 2.667-2.045 4.288-.054.774-.05.793.246 1.1.587.612 1.495.25 1.5-.596.003-.64.241-1.591.524-2.094.15-.266.765-1.047 1.366-1.735 1.872-2.142 3.209-4.16 4.572-6.898l.72-1.447.92-.22c2.73-.657 4.773-2.562 5.942-5.54.668-1.7 1.04-3.905.99-5.849-.033-1.208-.04-1.24-.31-1.482l-.276-.247h-5.273l-.07-1.239c-.077-1.378-.167-1.679-.563-1.892-.405-.218-22.435-.21-22.821.008zm10.904 5.079c-.096.058-.466.713-.823 1.456a114.64 114.64 0 01-.661 1.367c-.008.009-.654.113-1.436.232-1.539.234-1.803.362-1.924.934-.092.44.146.802 1.195 1.815l.955.922-.215 1.369c-.271 1.72-.269 1.882.03 2.192.402.419.794.343 2.179-.422l1.22-.673 1.231.68c1.296.715 1.648.806 2.057.527.38-.26.404-.593.156-2.2l-.228-1.477.953-.92c1.047-1.011 1.286-1.374 1.193-1.813-.12-.572-.384-.7-1.924-.934a38.409 38.409 0 01-1.435-.232 114.56 114.56 0 01-.663-1.37c-.357-.743-.736-1.4-.841-1.459-.243-.135-.791-.132-1.019.006zm16.61.733c-.35 4.533-1.986 7.362-4.867 8.42-.484.178-.48.203-.156-1.016.483-1.819.934-5.305.934-7.234 0-.483.03-.91.066-.947.036-.038.97-.068 2.077-.068h2.01l-.065.845zM40.7 26.82c.389.846.562.985 1.397 1.117.389.062.74.112.78.112.04 0-.2.272-.535.605-.565.561-.608.636-.606 1.05.001.245.047.647.102.894.054.246.082.466.061.488-.021.022-.377-.128-.79-.332l-.753-.372-.752.372c-.414.204-.77.354-.79.332-.022-.022.006-.242.06-.488a5.17 5.17 0 00.103-.895c.002-.411-.044-.493-.59-1.05-.327-.332-.568-.604-.536-.604.031 0 .376-.05.765-.112.834-.132 1.008-.271 1.396-1.117.155-.338.31-.614.344-.614.035 0 .19.276.344.614zm4.379 25.757v1.075h-9.445v-2.15h9.445v1.075zm3.59 5.274v2.305H32.043l-.027-2.2c-.014-1.21-.005-2.258.022-2.33.039-.106 1.674-.126 8.34-.105l8.291.026v2.304zm-12.907-.767c-.336.244-.467.791-.28 1.168.084.17.24.358.343.416.268.149 8.804.144 9.072-.006.109-.06.261-.268.339-.46.122-.304.122-.397 0-.7-.078-.194-.23-.4-.34-.462-.133-.074-1.624-.11-4.56-.11-3.723 0-4.394.022-4.574.154z" fill="#112234" stroke="#112234" stroke-width=".75"/></svg>