<svg width="80" height="80" fill="none" xmlns="http://www.w3.org/2000/svg"><rect width="80" height="80" rx="40" fill="#fff"/><path fill-rule="evenodd" clip-rule="evenodd" d="M55.082 17.066c-.179.05-.504.252-.723.448-.597.534-.664.858-.664 3.219v1.95h-1.894c-1.103 0-2.056.042-2.283.1-.23.058-.553.245-.785.453a1.86 1.86 0 00.4 3.053c.465.236.477.237 2.508.237h2.04l.03 2.167.028 2.168.244.422c.622 1.076 2.055 1.267 2.918.387.523-.533.572-.8.572-3.121v-2.023h1.989c2.282 0 2.545-.05 3.069-.582a1.903 1.903 0 00-.381-2.968l-.415-.248-2.131-.03-2.13-.029v-4.166l-.246-.478c-.406-.79-1.31-1.193-2.146-.959zM34.85 22.773c-1.494.228-2.308.702-3.874 2.254-.693.687-1.38 1.289-1.558 1.364-.252.107-.735.135-2.346.135-2.295 0-2.89.089-3.908.585a5.62 5.62 0 00-2.56 2.567c-.64 1.294-.603.535-.603 12.175V52.31l.245.734c.477 1.435 1.488 2.64 2.79 3.33 1.263.667.216.625 15.68.625 15.41 0 14.4.04 15.683-.602.965-.482 1.961-1.508 2.45-2.523.634-1.318.622-1.148.624-9.141.001-6.247-.016-7.172-.135-7.463-.292-.712-.971-1.181-1.708-1.181-.775 0-1.336.339-1.7 1.028-.189.355-.19.398-.234 7.611l-.044 7.254-.267.388a2.415 2.415 0 01-.66.61l-.39.224H25.082l-.429-.27a1.722 1.722 0 01-.674-.747l-.245-.478v-9.913c0-10.853-.029-10.255.51-10.832.508-.545.64-.571 3.136-.62 2.494-.048 2.857-.106 3.86-.62.723-.369 1.06-.644 2.29-1.87.593-.59 1.197-1.111 1.381-1.19.278-.117.892-.138 4.134-.138h3.808l.462-.234c.791-.401 1.177-1.247.97-2.125-.142-.602-.748-1.23-1.33-1.379-.461-.118-7.349-.132-8.107-.015zm2.284 9.617c-3.408.619-6.178 3.047-7.299 6.4-.489 1.463-.596 3.465-.268 4.99.807 3.742 3.838 6.72 7.499 7.37 5.763 1.022 11.007-3.428 11.007-9.34 0-1.584-.315-2.967-.989-4.336-.888-1.805-2.623-3.515-4.399-4.334-1.756-.81-3.745-1.078-5.55-.75zm2.934 3.836c.747.18 1.797.746 2.406 1.298.624.565 1.309 1.6 1.545 2.334.517 1.604.436 2.938-.27 4.448-.5 1.067-1.485 2.07-2.534 2.577-1.485.72-2.797.802-4.373.276-.722-.241-1.739-.938-2.294-1.572-.544-.62-1.1-1.688-1.276-2.448-.171-.736-.172-2.04-.002-2.72.5-2.002 2.122-3.665 4.084-4.19.637-.17 2.012-.171 2.714-.003z" fill="#112234" stroke="#fff"/></svg>