<svg width="81" height="80" fill="none" xmlns="http://www.w3.org/2000/svg"><rect x=".5" width="80" height="80" rx="40" fill="#fff"/><path fill-rule="evenodd" clip-rule="evenodd" d="M40.02 20.148c-.231.153-.414.46-1.079 1.816l-.8 1.631-1.775.262c-.977.144-1.87.311-1.986.37-.231.12-.47.55-.47.844 0 .322.26.635 1.524 1.844l1.23 1.175-.31 1.8c-.17.99-.288 1.882-.264 1.98.084.337.453.662.807.709.301.04.46-.025 1.93-.8.88-.463 1.636-.843 1.679-.843.043 0 .786.376 1.652.834.94.498 1.666.834 1.8.834.32 0 .723-.27.872-.581.12-.252.11-.359-.188-2.098l-.313-1.832 1.229-1.176c1.264-1.211 1.523-1.524 1.523-1.846 0-.299-.24-.725-.48-.848-.12-.063-1.014-.23-1.985-.37l-1.766-.258-.8-1.626c-.506-1.028-.874-1.68-1-1.773-.335-.243-.712-.261-1.03-.049zm.997 3.975c.276.572.552 1.03.669 1.112.157.11 1.895.453 2.33.458.037 0-.307.367-.765.815-.548.536-.845.888-.87 1.03-.031.18.097 1.123.291 2.15.042.22.041.22-.95-.298-.553-.288-1.095-.519-1.222-.519s-.672.232-1.226.52l-.998.52.042-.222c.195-1.029.323-1.972.292-2.15-.025-.142-.324-.498-.866-1.03-.455-.448-.799-.815-.764-.816.433-.006 2.17-.348 2.325-.458.117-.083.393-.54.67-1.112.259-.534.493-.97.52-.97.028 0 .263.436.522.97zm-17.045 3.681c-.448.244-.478.42-.415 2.458l.058 1.846-1.406 1.053c-1.38 1.032-1.708 1.365-1.709 1.731 0 .222.17.565.369.744.08.073.933.354 1.894.625l1.747.492.507 1.5c.28.825.57 1.641.647 1.813.248.555.957.742 1.4.369.125-.106.653-.834 1.174-1.617l.945-1.425 1.867-.054c1.607-.046 1.896-.074 2.066-.195.29-.206.5-.674.436-.967-.03-.135-.547-.866-1.185-1.674l-1.132-1.434.428-1.364c.626-1.99.662-2.145.572-2.469a.98.98 0 00-.28-.438c-.418-.33-.592-.302-2.435.38l-1.72.637-1.52-1.068c-1.63-1.144-1.805-1.216-2.308-.943zm30.741.944l-1.517 1.069-1.723-.638c-1.846-.683-2.019-.71-2.437-.38a1.028 1.028 0 00-.287.466c-.075.277-.03.473.462 2.056l.545 1.75-1.132 1.433c-.638.807-1.155 1.538-1.185 1.673-.064.293.147.761.436.966.17.12.464.148 2.065.195l1.867.054.946 1.425c.52.784 1.05 1.512 1.175 1.618.281.237.71.253 1.06.039.279-.17.316-.255 1.041-2.389l.453-1.334 1.761-.493c1.788-.5 1.934-.569 2.16-1.007.277-.54.03-.862-1.624-2.105l-1.402-1.053.057-1.838c.064-2.043.034-2.214-.431-2.455-.506-.262-.665-.196-2.29.948zm-27.676 2.854c.43.29.724.267 1.83-.146.523-.195.956-.347.964-.337.009.009-.123.463-.293 1.009-.169.546-.308 1.086-.309 1.2-.001.239.19.538.923 1.447l.524.65-1.192.039c-1.413.047-1.294-.021-2.123 1.218l-.575.86-.332-.995c-.182-.548-.402-1.086-.489-1.196-.105-.134-.34-.254-.708-.361l-1.113-.326-.562-.163.78-.581c1.25-.931 1.181-.798 1.15-2.207l-.027-1.194.622.437c.342.24.76.531.93.646zm28.442.12c-.03 1.393-.112 1.236 1.11 2.16l.82.619-.562.164-1.112.325c-.369.107-.604.227-.71.361-.086.11-.306.648-.488 1.196l-.331.995-.576-.86c-.83-1.24-.71-1.171-2.123-1.218l-1.192-.04.524-.65c.733-.908.924-1.207.923-1.446-.001-.114-.14-.654-.31-1.2-.169-.546-.298-1.003-.288-1.014.011-.012.445.14.964.337.52.197 1.076.359 1.237.359.29 0 .635-.2 1.717-.994a4.68 4.68 0 01.397-.275c.015 0 .015.53 0 1.18zM40.14 34.66c-.088.04-.248.168-.358.285l-.198.214-.023 2.645-.023 2.645-.85 1.377-.85 1.377-1.031.685-1.032.684-.044-.585c-.039-.525-.07-.612-.298-.84l-.256-.256h-7.135l-.26.26-.259.259v16.039l.26.26.259.259h7.135l.213-.214.213-.213.287.147c.617.315.977.329 8.019.304l6.784-.024.485-.224a3.06 3.06 0 001.435-1.444c.189-.404.222-.579.222-1.152 0-.564-.034-.749-.21-1.123l-.21-.449.303-.296c.167-.163.404-.515.527-.783.19-.413.224-.589.225-1.161 0-.565-.034-.749-.21-1.124l-.21-.449.303-.296a3.17 3.17 0 00.527-.782c.19-.413.224-.59.224-1.162 0-.574-.032-.747-.221-1.15-.122-.26-.28-.537-.35-.615-.117-.13-.117-.153 0-.283.07-.077.228-.354.35-.615.188-.403.222-.576.222-1.15 0-.573-.034-.747-.222-1.151a3.06 3.06 0 00-1.436-1.444l-.484-.224-3.346-.023-3.346-.024-.033-2.439c-.028-2.05-.055-2.509-.173-2.876-.466-1.454-1.41-2.357-2.862-2.739-.571-.15-1.841-.23-2.063-.13zm1.898 2.08c.499.186.981.672 1.154 1.16.08.225.12 1.082.154 3.301l.047 2.997.26.26.258.26 3.886.04 3.885.039.26.26c.222.223.258.314.258.653 0 .34-.036.43-.259.654l-.259.26-1.346.04-1.346.04-.26.259c-.223.223-.259.315-.259.654s.036.43.26.653l.259.26 1.346.04 1.346.04.26.26c.222.223.258.314.258.653s-.036.43-.259.654l-.259.26-1.346.04-1.346.039-.26.26c-.223.223-.259.314-.259.653 0 .34.036.43.26.654l.259.26 1.028.04 1.029.04.26.259c.223.223.259.314.259.654 0 .339-.036.43-.26.653l-.259.26-1.029.04-1.028.04-.26.26c-.223.223-.259.314-.259.653 0 .337.037.43.253.647.237.237.301.257.977.306.676.049.74.069.977.306.216.217.253.31.253.647 0 .34-.036.43-.26.654l-.259.26H36.794l-.321-.213a2.03 2.03 0 01-.51-.517l-.189-.303-.02-5.083-.022-5.084 1.645-1.072c1.893-1.234 2.055-1.36 2.198-1.698.057-.136.493-.874.969-1.638l.864-1.39.023-2.244c.014-1.294.055-2.244.097-2.244.04 0 .27.074.51.164zM33.83 51.43v6.67h-4.443V44.757h4.443v6.672zm-2.579 4.28c-.353.156-.555.479-.555.887 0 .334.037.426.26.649.223.223.314.26.652.26.34 0 .43-.037.654-.26.223-.224.259-.315.259-.654 0-.334-.037-.431-.245-.64-.262-.262-.728-.372-1.025-.241z" fill="#112234" stroke="#112234" stroke-width=".5"/></svg>