<svg width="79" height="79" viewBox="0 0 79 79" fill="none" xmlns="http://www.w3.org/2000/svg">
<path d="M79 39.5C79 17.6848 61.3152 0 39.5 0C17.6848 0 0 17.6848 0 39.5C0 61.3152 17.6848 79 39.5 79C61.3152 79 79 61.3152 79 39.5Z" fill="#F6CE45"/>
<path d="M54.1231 38.7063L62.5177 28.4984L53.7086 28.5044L46.7812 37.4714L46.797 19.9109H39.4894L39.4857 50.9284L24.6111 50.8088C17.658 50.0017 19.7671 41.7054 19.7671 41.7054C20.7771 37.8484 24.7017 38.2629 24.7017 38.2629C28.9332 38.4875 29.1264 42.1477 29.1264 42.1477L22.8592 42.1307L22.8812 46.8226L35.9475 46.8178L35.9463 43.9867C35.9341 43.6858 35.8264 42.1778 35.7446 41.8395C33.1036 30.8763 22.7843 32.7468 22.7843 32.7468C19.2227 33.0163 14.3225 35.9539 12.8773 40.5127C11.4336 45.0718 12.4398 48.7197 14.6564 51.9072C16.8743 55.0947 21.5595 55.9829 21.5595 55.9829C22.8138 56.3189 24.9522 56.3889 24.9522 56.3889L62.9432 56.5206V51.0107L54.1231 38.7063ZM46.7225 50.9477V45.5623L48.9196 43.043L53.8969 50.9466L46.7225 50.9477Z" fill="#232524"/>
</svg>
