<svg width="330" height="88" viewBox="0 0 330 88" fill="none" xmlns="http://www.w3.org/2000/svg">
<rect width="88" height="88" rx="44" fill="#FFCF31"/>
<path d="M61.4131 42.5343L72.2252 29.2286L60.8792 29.2365L51.9568 40.9246L51.9772 18.0352H42.5651L42.5603 58.4653L23.4021 58.3094C14.4466 57.2573 17.1631 46.4434 17.1631 46.4434C18.4639 41.416 23.5187 41.9563 23.5187 41.9563C28.9689 42.2491 29.2177 47.0199 29.2177 47.0199L21.1456 46.9978L21.174 53.1135L38.0031 53.1072L38.0016 49.417C37.9859 49.0248 37.8472 47.0592 37.7418 46.6182C34.3402 32.3282 21.0492 34.7663 21.0492 34.7663C16.4619 35.1175 10.1505 38.9466 8.28914 44.8888C6.42968 50.8314 7.72561 55.5863 10.5806 59.7411C13.4372 63.8959 19.4716 65.0536 19.4716 65.0536C21.0872 65.4915 23.8414 65.5828 23.8414 65.5828L72.7732 65.7545V58.5725L61.4131 42.5343ZM51.8812 58.4904V51.4708L54.711 48.1869L61.1217 58.489L51.8812 58.4904Z" fill="black"/>
<path d="M117.92 53V47.368H108.192V45.032H117.696V39.4H108.192V37.288H117.92V31.656H101.728V53H117.92ZM130.679 53L136.663 37.544H130.583L127.607 46.376L124.663 37.544H118.583L124.567 53H130.679ZM143.548 53V43.528C144.188 42.76 145.756 42.44 146.972 42.44C147.516 42.44 147.996 42.504 148.284 42.6V37.096C146.524 37.096 144.508 38.12 143.548 39.24V37.544H137.788V53H143.548ZM157.872 53.384C163.376 53.384 166.576 49.576 166.576 45.256C166.576 40.936 163.376 37.16 157.872 37.16C152.4 37.16 149.2 40.936 149.2 45.256C149.2 49.576 152.4 53.384 157.872 53.384ZM157.872 48.296C156.112 48.296 155.12 46.984 155.12 45.256C155.12 43.56 156.112 42.248 157.872 42.248C159.664 42.248 160.656 43.56 160.656 45.256C160.656 46.984 159.664 48.296 157.872 48.296ZM185.333 53L179.669 44.584L184.981 37.544H178.037L174.485 43.048V31.656H168.725V53H174.485V49.512L175.605 48.008L178.261 53H185.333ZM193.841 53.384C199.345 53.384 202.545 49.576 202.545 45.256C202.545 40.936 199.345 37.16 193.841 37.16C188.369 37.16 185.169 40.936 185.169 45.256C185.169 49.576 188.369 53.384 193.841 53.384ZM193.841 48.296C192.081 48.296 191.089 46.984 191.089 45.256C191.089 43.56 192.081 42.248 193.841 42.248C195.633 42.248 196.625 43.56 196.625 45.256C196.625 46.984 195.633 48.296 193.841 48.296ZM214.71 53L220.694 37.544H214.614L211.638 46.376L208.694 37.544H202.614L208.598 53H214.71ZM227.579 53V43.528C228.219 42.76 229.787 42.44 231.003 42.44C231.547 42.44 232.027 42.504 232.315 42.6V37.096C230.555 37.096 228.539 38.12 227.579 39.24V37.544H221.819V53H227.579ZM241.904 53.384C247.408 53.384 250.608 49.576 250.608 45.256C250.608 40.936 247.408 37.16 241.904 37.16C236.432 37.16 233.232 40.936 233.232 45.256C233.232 49.576 236.432 53.384 241.904 53.384ZM241.904 48.296C240.144 48.296 239.152 46.984 239.152 45.256C239.152 43.56 240.144 42.248 241.904 42.248C243.696 42.248 244.688 43.56 244.688 45.256C244.688 46.984 243.696 48.296 241.904 48.296ZM258.516 53V31.656H252.756V53H258.516ZM264.605 36.424C266.397 36.424 267.837 34.984 267.837 33.192C267.837 31.4 266.397 29.96 264.605 29.96C262.813 29.96 261.373 31.4 261.373 33.192C261.373 34.984 262.813 36.424 264.605 36.424ZM267.485 53V37.544H261.725V53H267.485ZM286.918 53V42.024C286.918 39.336 285.35 37.16 281.766 37.16C279.046 37.16 277.35 38.28 276.454 39.304V37.544H270.694V53H276.454V43.464C276.934 42.92 277.606 42.248 278.918 42.248C280.294 42.248 281.158 42.856 281.158 44.456V53H286.918ZM293.043 53.384C294.899 53.384 296.467 51.816 296.467 49.96C296.467 48.104 294.899 46.536 293.043 46.536C291.187 46.536 289.619 48.104 289.619 49.96C289.619 51.816 291.187 53.384 293.043 53.384ZM304.954 53V43.528C305.594 42.76 307.162 42.44 308.378 42.44C308.922 42.44 309.402 42.504 309.69 42.6V37.096C307.93 37.096 305.914 38.12 304.954 39.24V37.544H299.194V53H304.954ZM327.855 53V37.544H322.095V47.08C321.615 47.624 320.943 48.296 319.663 48.296C318.255 48.296 317.423 47.688 317.423 46.12V37.544H311.663V48.584C311.663 51.24 313.199 53.384 316.783 53.384C319.503 53.384 321.199 52.264 322.095 51.272V53H327.855Z" fill="black"/>
</svg>
