<svg width="79" height="79" fill="none" xmlns="http://www.w3.org/2000/svg"><path d="M79 39.5C79 17.685 61.315 0 39.5 0S0 17.685 0 39.5 17.685 79 39.5 79 79 61.315 79 39.5z" fill="#F6CE45"/><path d="M54.123 38.706l8.395-10.208-8.81.006-6.927 8.967.016-17.56h-7.308l-.003 31.017-14.875-.12c-6.953-.806-4.844-9.103-4.844-9.103 1.01-3.857 4.935-3.442 4.935-3.442 4.231.224 4.424 3.885 4.424 3.885l-6.267-.017.022 4.692 13.066-.005v-2.831c-.013-.301-.12-1.81-.202-2.148-2.641-10.963-12.96-9.092-12.96-9.092-3.562.27-8.463 3.207-9.908 7.766-1.443 4.559-.437 8.207 1.78 11.394 2.217 3.188 6.902 4.076 6.902 4.076 1.255.336 3.393.406 3.393.406l37.991.132v-5.51l-8.82-12.305zm-7.4 12.242v-5.386l2.197-2.519 4.977 7.904h-7.175z" fill="#232524"/></svg>