<svg width="330" height="88" fill="none" xmlns="http://www.w3.org/2000/svg"><rect width="88" height="88" rx="44" fill="#FFCF31"/><path d="M61.413 42.534L72.225 29.23l-11.346.008-8.922 11.688.02-22.89h-9.412l-.005 40.43-19.158-.156c-8.955-1.052-6.239-11.866-6.239-11.866 1.3-5.027 6.356-4.487 6.356-4.487 5.45.293 5.699 5.064 5.699 5.064l-8.072-.022.028 6.116 16.83-.007-.002-3.69c-.016-.392-.155-2.358-.26-2.799-3.402-14.29-16.693-11.852-16.693-11.852-4.587.352-10.899 4.18-12.76 10.123-1.86 5.942-.563 10.697 2.292 14.852 2.856 4.155 8.89 5.313 8.89 5.313 1.616.438 4.37.529 4.37.529l48.932.171v-7.182l-11.36-16.038zM51.881 58.49v-7.02l2.83-3.283 6.41 10.302-9.24.001zM117.92 53v-5.632h-9.728v-2.336h9.504V39.4h-9.504v-2.112h9.728v-5.632h-16.192V53h16.192zm12.759 0l5.984-15.456h-6.08l-2.976 8.832-2.944-8.832h-6.08L124.567 53h6.112zm12.869 0v-9.472c.64-.768 2.208-1.088 3.424-1.088.544 0 1.024.064 1.312.16v-5.504c-1.76 0-3.776 1.024-4.736 2.144v-1.696h-5.76V53h5.76zm14.324.384c5.504 0 8.704-3.808 8.704-8.128s-3.2-8.096-8.704-8.096c-5.472 0-8.672 3.776-8.672 8.096s3.2 8.128 8.672 8.128zm0-5.088c-1.76 0-2.752-1.312-2.752-3.04 0-1.696.992-3.008 2.752-3.008 1.792 0 2.784 1.312 2.784 3.008 0 1.728-.992 3.04-2.784 3.04zM185.333 53l-5.664-8.416 5.312-7.04h-6.944l-3.552 5.504V31.656h-5.76V53h5.76v-3.488l1.12-1.504L178.261 53h7.072zm8.508.384c5.504 0 8.704-3.808 8.704-8.128s-3.2-8.096-8.704-8.096c-5.472 0-8.672 3.776-8.672 8.096s3.2 8.128 8.672 8.128zm0-5.088c-1.76 0-2.752-1.312-2.752-3.04 0-1.696.992-3.008 2.752-3.008 1.792 0 2.784 1.312 2.784 3.008 0 1.728-.992 3.04-2.784 3.04zM214.71 53l5.984-15.456h-6.08l-2.976 8.832-2.944-8.832h-6.08L208.598 53h6.112zm12.869 0v-9.472c.64-.768 2.208-1.088 3.424-1.088.544 0 1.024.064 1.312.16v-5.504c-1.76 0-3.776 1.024-4.736 2.144v-1.696h-5.76V53h5.76zm14.325.384c5.504 0 8.704-3.808 8.704-8.128s-3.2-8.096-8.704-8.096c-5.472 0-8.672 3.776-8.672 8.096s3.2 8.128 8.672 8.128zm0-5.088c-1.76 0-2.752-1.312-2.752-3.04 0-1.696.992-3.008 2.752-3.008 1.792 0 2.784 1.312 2.784 3.008 0 1.728-.992 3.04-2.784 3.04zM258.516 53V31.656h-5.76V53h5.76zm6.089-16.576a3.223 3.223 0 003.232-3.232 3.223 3.223 0 00-3.232-3.232 3.223 3.223 0 00-3.232 3.232 3.223 3.223 0 003.232 3.232zM267.485 53V37.544h-5.76V53h5.76zm19.433 0V42.024c0-2.688-1.568-4.864-5.152-4.864-2.72 0-4.416 1.12-5.312 2.144v-1.76h-5.76V53h5.76v-9.536c.48-.544 1.152-1.216 2.464-1.216 1.376 0 2.24.608 2.24 2.208V53h5.76zm6.125.384c1.856 0 3.424-1.568 3.424-3.424 0-1.856-1.568-3.424-3.424-3.424-1.856 0-3.424 1.568-3.424 3.424 0 1.856 1.568 3.424 3.424 3.424zM304.954 53v-9.472c.64-.768 2.208-1.088 3.424-1.088.544 0 1.024.064 1.312.16v-5.504c-1.76 0-3.776 1.024-4.736 2.144v-1.696h-5.76V53h5.76zm22.901 0V37.544h-5.76v9.536c-.48.544-1.152 1.216-2.432 1.216-1.408 0-2.24-.608-2.24-2.176v-8.576h-5.76v11.04c0 2.656 1.536 4.8 5.12 4.8 2.72 0 4.416-1.12 5.312-2.112V53h5.76z" fill="#000"/></svg>