<svg width="25" height="25" viewBox="0 0 25 25" fill="none" xmlns="http://www.w3.org/2000/svg">
<path d="M22.7854 13.7698L24.1667 6.20957C24.1833 6.11199 24.1788 6.01196 24.1534 5.91628C24.128 5.82059 24.0823 5.73149 24.0195 5.655C23.9574 5.57658 23.8782 5.51338 23.7879 5.47023C23.6977 5.42707 23.5987 5.40511 23.4987 5.40601H5.04473L4.45602 2.18045C4.39206 1.81571 4.20145 1.48522 3.91774 1.24715C3.63403 1.00907 3.2754 0.878673 2.90498 0.878907H0.8558C0.675642 0.878907 0.502863 0.950451 0.375472 1.0778C0.248081 1.20515 0.176514 1.37787 0.176514 1.55797C0.176514 1.73807 0.248081 1.91079 0.375472 2.03814C0.502863 2.16549 0.675642 2.23704 0.8558 2.23704H2.90498C2.95601 2.23856 3.00502 2.25728 3.04407 2.29015C3.08311 2.32302 3.1099 2.36812 3.12009 2.41812L6.25613 19.6438C5.86833 19.9557 5.56599 20.3609 5.3774 20.8214C5.18881 21.2819 5.12012 21.7827 5.17775 22.277C5.23538 22.7712 5.41746 23.2428 5.70694 23.6476C5.99643 24.0524 6.38388 24.3772 6.83306 24.5917C7.28225 24.8061 7.77849 24.9032 8.27539 24.8738C8.77229 24.8444 9.25362 24.6895 9.67437 24.4236C10.0951 24.1577 10.4416 23.7895 10.6813 23.3534C10.921 22.9173 11.0462 22.4276 11.0451 21.9299C11.0474 21.368 10.8861 20.8174 10.5809 20.3455H17.3964C17.0913 20.8174 16.93 21.368 16.9322 21.9299C16.9322 22.5119 17.1049 23.0809 17.4283 23.5648C17.7518 24.0487 18.2115 24.4258 18.7494 24.6486C19.2872 24.8713 19.8791 24.9296 20.4501 24.816C21.0211 24.7025 21.5456 24.4222 21.9572 24.0107C22.3689 23.5992 22.6493 23.0748 22.7628 22.504C22.8764 21.9332 22.8181 21.3415 22.5953 20.8039C22.3725 20.2662 21.9953 19.8066 21.5112 19.4832C21.0271 19.1599 20.458 18.9873 19.8758 18.9873H7.51281L6.93541 15.8184H20.34C20.923 15.817 21.487 15.6112 21.9339 15.2369C22.3807 14.8626 22.6821 14.3434 22.7854 13.7698V13.7698ZM9.68653 21.9299C9.68653 22.2433 9.59357 22.5497 9.4194 22.8102C9.24524 23.0708 8.9977 23.2739 8.70808 23.3938C8.41846 23.5137 8.09977 23.5451 7.79231 23.484C7.48485 23.4228 7.20242 23.2719 6.98076 23.0503C6.75909 22.8287 6.60813 22.5464 6.54698 22.2391C6.48582 21.9317 6.51721 21.6131 6.63717 21.3236C6.75714 21.0341 6.96029 20.7866 7.22094 20.6125C7.4816 20.4384 7.78804 20.3455 8.10152 20.3455C8.52189 20.3455 8.92504 20.5124 9.22229 20.8095C9.51954 21.1067 9.68653 21.5097 9.68653 21.9299V21.9299ZM21.4608 21.9299C21.4608 22.2433 21.3679 22.5497 21.1937 22.8102C21.0195 23.0708 20.772 23.2739 20.4824 23.3938C20.1928 23.5137 19.8741 23.5451 19.5666 23.484C19.2591 23.4228 18.9767 23.2719 18.7551 23.0503C18.5334 22.8287 18.3824 22.5464 18.3213 22.2391C18.2601 21.9317 18.2915 21.6131 18.4115 21.3236C18.5314 21.0341 18.7346 20.7866 18.9952 20.6125C19.2559 20.4384 19.5623 20.3455 19.8758 20.3455C20.2962 20.3455 20.6993 20.5124 20.9966 20.8095C21.2938 21.1067 21.4608 21.5097 21.4608 21.9299V21.9299ZM5.29381 6.76414H22.6835L21.4495 13.5322C21.402 13.792 21.265 14.027 21.0624 14.1965C20.8597 14.3659 20.6042 14.4593 20.34 14.4602H6.69766L5.29381 6.76414Z" fill="#112234"/>
</svg>
