<svg width="13" height="10" viewBox="0 0 13 10" fill="none" xmlns="http://www.w3.org/2000/svg">
<path d="M12.7568 3.47656C12.2178 3.89844 11.5381 4.41406 9.14746 6.14844C8.67871 6.5 7.81152 7.27344 6.99121 7.27344C6.14746 7.27344 5.30371 6.5 4.81152 6.14844C2.4209 4.41406 1.74121 3.89844 1.20215 3.47656C1.1084 3.40625 0.991211 3.47656 0.991211 3.59375V8.375C0.991211 9.00781 1.4834 9.5 2.11621 9.5H11.8662C12.4756 9.5 12.9912 9.00781 12.9912 8.375V3.59375C12.9912 3.47656 12.8506 3.40625 12.7568 3.47656ZM6.99121 6.5C7.53027 6.52344 8.30371 5.82031 8.70215 5.53906C11.8193 3.28906 12.0537 3.07813 12.7568 2.51563C12.8975 2.42188 12.9912 2.25781 12.9912 2.07031V1.625C12.9912 1.01563 12.4756 0.5 11.8662 0.5H2.11621C1.4834 0.5 0.991211 1.01563 0.991211 1.625V2.07031C0.991211 2.25781 1.06152 2.42188 1.20215 2.51563C1.90527 3.07813 2.13965 3.28906 5.25684 5.53906C5.65527 5.82031 6.42871 6.52344 6.99121 6.5Z" fill="#F6CE45"/>
</svg>
