<svg width="15" height="15" viewBox="0 0 15 15" fill="none" xmlns="http://www.w3.org/2000/svg">
<path d="M9.15169 7.5L14.7603 1.8911C14.9146 1.7367 14.9997 1.53071 15 1.31106C15 1.09129 14.9149 0.885058 14.7603 0.730901L14.2688 0.239528C14.1143 0.0847616 13.9083 0 13.6884 0C13.4689 0 13.2629 0.0847616 13.1084 0.239528L7.49975 5.84806L1.89085 0.239528C1.73657 0.0847616 1.53046 0 1.31069 0C1.09117 0 0.885056 0.0847616 0.730778 0.239528L0.239039 0.730901C-0.0809817 1.05092 -0.0809817 1.57144 0.239039 1.8911L5.84782 7.5L0.239039 13.1087C0.0846387 13.2633 -0.000366767 13.4693 -0.000366767 13.6889C-0.000366767 13.9086 0.0846387 14.1146 0.239039 14.2691L0.730656 14.7605C0.884934 14.9151 1.09117 15 1.31057 15C1.53034 15 1.73645 14.9151 1.89073 14.7605L7.49963 9.15181L13.1083 14.7605C13.2628 14.9151 13.4688 15 13.6883 15H13.6886C13.9082 15 14.1142 14.9151 14.2687 14.7605L14.7602 14.2691C14.9145 14.1147 14.9996 13.9086 14.9996 13.6889C14.9996 13.4693 14.9145 13.2633 14.7602 13.1088L9.15169 7.5Z" fill="#CA1228"/>
</svg>
