<svg width="24" height="25" viewBox="0 0 24 25" fill="none" xmlns="http://www.w3.org/2000/svg">
<path d="M12 24.1211L11.5765 23.7171C2.47059 15.2322 0 12.2423 0 7.39382C0 3.35342 2.82353 0.121094 6.35294 0.121094C9.24706 0.121094 10.8706 1.97968 12 3.43423C13.1294 1.97968 14.7529 0.121094 17.6471 0.121094C21.1765 0.121094 24 3.35342 24 7.39382C24 12.2423 21.5294 15.2322 12.4235 23.7171L12 24.1211ZM6.35294 1.73726C3.6 1.73726 1.41176 4.24231 1.41176 7.39382C1.41176 11.515 3.67059 14.2625 12 22.0201C20.3294 14.2625 22.5882 11.515 22.5882 7.39382C22.5882 4.24231 20.4 1.73726 17.6471 1.73726C15.1765 1.73726 13.8353 3.43423 12.7765 4.80796L12 5.85847L11.2235 4.80796C10.1647 3.43423 8.82353 1.73726 6.35294 1.73726Z" fill="#112234"/>
</svg>
