<svg width="23" height="24" viewBox="0 0 23 24" fill="none" xmlns="http://www.w3.org/2000/svg">
<path fill-rule="evenodd" clip-rule="evenodd" d="M14.2203 0.564058C13.5866 0.703189 13.0658 0.995469 12.5734 1.48838C12.2583 1.8038 12.1461 1.9551 11.9766 2.29348C11.8618 2.52268 11.7456 2.79821 11.7185 2.9058L11.6692 3.10136H6.13061H0.592052L0.391588 3.20244C0.118953 3.33991 -0.0218395 3.58515 0.00275754 3.87963C0.0229028 4.12133 0.124888 4.28638 0.3477 4.43787L0.496362 4.53895L6.07687 4.53935L11.6574 4.5398L11.757 4.86505C12.0415 5.79387 12.8397 6.62004 13.7855 6.96456C14.6976 7.29687 15.6253 7.23258 16.5032 6.77628C17.2797 6.37268 17.9703 5.50168 18.1791 4.66249L18.2099 4.53895H20.3568H22.5036L22.6523 4.43787C22.8751 4.28638 22.9771 4.12133 22.9972 3.87963C23.0218 3.58515 22.881 3.33991 22.6084 3.20244C22.4091 3.1019 22.3964 3.10136 20.3058 3.10136H18.2036L18.1536 2.91043C18.065 2.5721 17.7637 2.00888 17.5037 1.6954C16.8707 0.932395 15.8987 0.488674 14.8857 0.50022C14.6682 0.502736 14.3688 0.531443 14.2203 0.564058ZM15.5054 2.02074C16.1977 2.23597 16.6877 2.80674 16.8145 3.54539C17.0249 4.77098 15.907 5.90699 14.6777 5.71687C13.5465 5.54198 12.8023 4.42735 13.0952 3.3466C13.1889 3.00059 13.4408 2.59232 13.6855 2.38966C13.8833 2.22591 14.2638 2.02833 14.4805 1.97689C14.7562 1.91144 15.2173 1.93116 15.5054 2.02074ZM7.25061 8.75966C6.0972 9.06281 5.21751 9.89558 4.86496 11.0181L4.78425 11.2752L2.6144 11.2877C0.503107 11.2998 0.441232 11.3026 0.32045 11.3927C0.0845078 11.5688 0.0108966 11.7123 0.0108966 11.9964C0.0108966 12.2805 0.0845078 12.4241 0.32045 12.6001C0.441277 12.6903 0.503062 12.6931 2.6194 12.7053L4.79423 12.7177L4.86847 12.9729C5.08243 13.7081 5.66601 14.4553 6.34672 14.8656C6.48468 14.9487 6.77485 15.0786 6.99155 15.1542C7.32561 15.2709 7.46964 15.2948 7.93869 15.3118C8.62269 15.3366 8.96412 15.2652 9.56641 14.9714C10.3206 14.6034 10.9907 13.8303 11.2391 13.0414L11.3415 12.7163L16.9484 12.7045C22.5321 12.6928 22.5558 12.6924 22.6795 12.6001C22.9155 12.4241 22.9891 12.2805 22.9891 11.9964C22.9891 11.7123 22.9155 11.5688 22.6795 11.3927C22.5558 11.3005 22.5321 11.3001 16.9479 11.2884L11.3405 11.2766L11.2373 10.9446C10.9932 10.1591 10.3129 9.37868 9.54964 9.00886C9.32391 8.89947 9.0077 8.77925 8.84694 8.74165C8.43702 8.64587 7.64996 8.65472 7.25061 8.75966ZM8.68178 10.1968C9.78621 10.5764 10.2877 11.8373 9.75118 12.8857C9.54186 13.2948 9.15901 13.6189 8.67993 13.7928C8.44498 13.878 8.33409 13.8912 7.98294 13.8758C7.63103 13.8604 7.51749 13.8351 7.26077 13.715C6.30009 13.2656 5.88653 12.1103 6.34857 11.1668C6.56544 10.7239 6.89694 10.4233 7.39293 10.2195C7.73728 10.0781 8.30711 10.068 8.68178 10.1968ZM14.3554 16.8668C13.1303 17.105 12.1027 17.9992 11.757 19.1278L11.6574 19.4531L6.07687 19.4535L0.496362 19.4539L0.3477 19.555C0.124888 19.7065 0.0229028 19.8716 0.00275754 20.1132C-0.0218395 20.4077 0.118953 20.653 0.391588 20.7904L0.592052 20.8915H6.13061H11.6692L11.7185 21.0871C11.7456 21.1947 11.8629 21.4726 11.9791 21.7048C12.3269 22.3998 12.96 22.9667 13.7446 23.286C14.9943 23.7944 16.6174 23.3694 17.4977 22.3032C17.7846 21.9558 18.0255 21.5175 18.1318 21.1498L18.2065 20.8915H20.3072C22.3964 20.8915 22.4091 20.891 22.6084 20.7904C22.881 20.653 23.0218 20.4077 22.9972 20.1132C22.9771 19.8716 22.8751 19.7065 22.6523 19.555L22.5036 19.4539H20.3601H18.2165L18.1361 19.1956C17.9692 18.6599 17.7115 18.2434 17.2801 17.8124C16.8226 17.3554 16.3967 17.1017 15.8174 16.9413C15.379 16.82 14.7589 16.7883 14.3554 16.8668ZM15.3674 18.3115C16.3261 18.5293 16.9785 19.4923 16.8145 20.4475C16.7204 20.9958 16.4336 21.4465 15.9909 21.7419C15.1163 22.3253 13.9114 22.0782 13.3423 21.1986C12.7308 20.2533 13.0816 18.9557 14.0816 18.4643C14.5361 18.241 14.8782 18.2003 15.3674 18.3115Z" fill="#112234"/>
</svg>
