<svg width="9" height="12" viewBox="0 0 9 12" fill="none" xmlns="http://www.w3.org/2000/svg">
<path d="M4.02732 11.7541C4.23805 12.082 4.72976 12.082 4.94049 11.7541C8.35902 6.83707 8.99122 6.32195 8.99122 4.49561C8.99122 2.01366 6.97756 0 4.49561 0C1.99024 0 0 2.01366 0 4.49561C0 6.32195 0.608781 6.83707 4.02732 11.7541ZM4.49561 6.36878C3.44195 6.36878 2.62244 5.54927 2.62244 4.49561C2.62244 3.46537 3.44195 2.62244 4.49561 2.62244C5.52585 2.62244 6.36878 3.46537 6.36878 4.49561C6.36878 5.54927 5.52585 6.36878 4.49561 6.36878Z" fill="#F6CE45"/>
</svg>
