<svg width="41" height="42" viewBox="0 0 41 42" fill="none" xmlns="http://www.w3.org/2000/svg">
<path fill-rule="evenodd" clip-rule="evenodd" d="M14.2282 7.084C15.7211 7.01527 16.1971 7 20 7C23.8029 7 24.2789 7.01655 25.7705 7.084C27.2622 7.15145 28.2804 7.38945 29.1713 7.73436C30.1042 8.08691 30.9505 8.638 31.6505 9.35073C32.3633 10.0495 32.9131 10.8945 33.2644 11.8287C33.6105 12.7196 33.8473 13.7378 33.916 15.2269C33.9847 16.7224 34 17.1984 34 21C34 24.8029 33.9835 25.2789 33.916 26.7718C33.8485 28.2609 33.6105 29.2791 33.2644 30.17C32.9131 31.1043 32.3624 31.9508 31.6505 32.6505C30.9505 33.3633 30.1042 33.9131 29.1713 34.2644C28.2804 34.6105 27.2622 34.8473 25.7731 34.916C24.2789 34.9847 23.8029 35 20 35C16.1971 35 15.7211 34.9835 14.2282 34.916C12.7391 34.8485 11.7209 34.6105 10.83 34.2644C9.89572 33.913 9.04923 33.3623 8.34945 32.6505C7.63721 31.9514 7.08604 31.1053 6.73436 30.1713C6.38945 29.2804 6.15273 28.2622 6.084 26.7731C6.01527 25.2776 6 24.8016 6 21C6 17.1971 6.01655 16.7211 6.084 15.2295C6.15145 13.7378 6.38945 12.7196 6.73436 11.8287C7.08656 10.8946 7.63815 10.0486 8.35073 9.34945C9.04951 8.63737 9.89515 8.0862 10.8287 7.73436C11.7196 7.38945 12.7378 7.15273 14.2269 7.084H14.2282ZM25.6573 9.604C24.1809 9.53655 23.738 9.52255 20 9.52255C16.262 9.52255 15.8191 9.53655 14.3427 9.604C12.9771 9.66636 12.2364 9.89418 11.7425 10.0864C11.0896 10.3409 10.6225 10.6425 10.1325 11.1325C9.66806 11.5844 9.31059 12.1345 9.08636 12.7425C8.89418 13.2364 8.66636 13.9771 8.604 15.3427C8.53655 16.8191 8.52255 17.262 8.52255 21C8.52255 24.738 8.53655 25.1809 8.604 26.6573C8.66636 28.0229 8.89418 28.7636 9.08636 29.2575C9.31036 29.8645 9.668 30.4156 10.1325 30.8675C10.5844 31.332 11.1355 31.6896 11.7425 31.9136C12.2364 32.1058 12.9771 32.3336 14.3427 32.396C15.8191 32.4635 16.2607 32.4775 20 32.4775C23.7393 32.4775 24.1809 32.4635 25.6573 32.396C27.0229 32.3336 27.7636 32.1058 28.2575 31.9136C28.9104 31.6591 29.3775 31.3575 29.8675 30.8675C30.332 30.4156 30.6896 29.8645 30.9136 29.2575C31.1058 28.7636 31.3336 28.0229 31.396 26.6573C31.4635 25.1809 31.4775 24.738 31.4775 21C31.4775 17.262 31.4635 16.8191 31.396 15.3427C31.3336 13.9771 31.1058 13.2364 30.9136 12.7425C30.6591 12.0896 30.3575 11.6225 29.8675 11.1325C29.4155 10.6681 28.8654 10.3106 28.2575 10.0864C27.7636 9.89418 27.0229 9.66636 25.6573 9.604ZM18.2118 25.3158C19.2105 25.7315 20.3225 25.7876 21.3579 25.4746C22.3933 25.1615 23.288 24.4986 23.889 23.5992C24.49 22.6998 24.7601 21.6197 24.6532 20.5432C24.5462 19.4668 24.0689 18.4609 23.3027 17.6973C22.8143 17.2092 22.2237 16.8354 21.5735 16.6029C20.9233 16.3704 20.2296 16.285 19.5424 16.3528C18.8553 16.4206 18.1916 16.6399 17.5994 16.9949C17.0071 17.3499 16.5009 17.8319 16.1173 18.406C15.7336 18.9801 15.4821 19.6322 15.3807 20.3152C15.2793 20.9983 15.3306 21.6953 15.5309 22.3561C15.7312 23.0169 16.0755 23.6251 16.5391 24.1369C17.0027 24.6487 17.574 25.0513 18.2118 25.3158ZM14.9116 15.9116C15.5798 15.2434 16.3731 14.7134 17.2462 14.3517C18.1193 13.9901 19.055 13.804 20 13.804C20.945 13.804 21.8807 13.9901 22.7538 14.3517C23.6269 14.7134 24.4202 15.2434 25.0884 15.9116C25.7566 16.5798 26.2866 17.3731 26.6483 18.2462C27.0099 19.1193 27.196 20.055 27.196 21C27.196 21.945 27.0099 22.8807 26.6483 23.7538C26.2866 24.6269 25.7566 25.4202 25.0884 26.0884C23.7388 27.4379 21.9085 28.196 20 28.196C18.0915 28.196 16.2612 27.4379 14.9116 26.0884C13.5621 24.7388 12.804 22.9085 12.804 21C12.804 19.0915 13.5621 17.2612 14.9116 15.9116ZM28.792 14.8756C28.9576 14.7194 29.0902 14.5316 29.1818 14.3232C29.2735 14.1149 29.3225 13.8903 29.3258 13.6626C29.3291 13.435 29.2867 13.2091 29.2012 12.9981C29.1156 12.7872 28.9886 12.5956 28.8276 12.4346C28.6666 12.2736 28.475 12.1466 28.2641 12.061C28.0531 11.9754 27.8272 11.9331 27.5995 11.9364C27.3719 11.9397 27.1473 11.9887 26.9389 12.0803C26.7306 12.172 26.5427 12.3046 26.3865 12.4702C26.0828 12.7922 25.9164 13.22 25.9229 13.6626C25.9293 14.1053 26.1081 14.528 26.4211 14.8411C26.7342 15.1541 27.1569 15.3328 27.5995 15.3393C28.0422 15.3457 28.47 15.1794 28.792 14.8756Z" fill="#F6CE45"/>
</svg>
