<svg width="13" height="12" viewBox="0 0 13 12" fill="none" xmlns="http://www.w3.org/2000/svg">
<path d="M12.239 12C5.84071 12.009 0.984468 7.09499 0.991218 0.752249C0.991218 0.3375 1.32722 0 1.74122 0H3.72121C4.09246 0 4.40821 0.273 4.46296 0.640499C4.59354 1.52179 4.8499 2.37978 5.22421 3.18825L5.30146 3.35475C5.35335 3.46679 5.36452 3.59343 5.33303 3.71282C5.30154 3.83221 5.22937 3.93687 5.12896 4.00875C4.51546 4.44675 4.28146 5.32799 4.75921 6.01499C5.3607 6.87999 6.11142 7.63096 6.97621 8.23274C7.66396 8.70974 8.54521 8.47574 8.98246 7.86299C9.05426 7.76229 9.15901 7.68985 9.27857 7.65821C9.39814 7.62657 9.525 7.63773 9.63721 7.68974L9.80296 7.76624C10.6115 8.14124 11.4695 8.39774 12.3507 8.52824C12.7182 8.58299 12.9912 8.89874 12.9912 9.27074V11.25C12.9912 11.3485 12.9718 11.4461 12.934 11.5372C12.8963 11.6282 12.841 11.7109 12.7713 11.7806C12.7015 11.8502 12.6188 11.9055 12.5277 11.9431C12.4366 11.9808 12.339 12.0001 12.2405 12H12.239Z" fill="#F6CE45"/>
</svg>
