<svg width="45" height="41" viewBox="0 0 45 41" fill="none" xmlns="http://www.w3.org/2000/svg">
<path fill-rule="evenodd" clip-rule="evenodd" d="M10.4139 0.0788505C6.3588 0.470993 3.24781 2.51847 1.53795 5.92057C0.529901 7.92625 0.077561 10.0681 0.0743791 12.8497C0.0730892 13.9543 0.115829 14.5577 0.246801 15.2851C0.796145 18.3361 2.61694 21.9804 5.49841 25.7962L6.2845 26.8372L3.26853 29.8588C1.24169 31.8893 0.208877 32.9852 0.119613 33.2001C-0.192381 33.9506 0.127095 34.8963 0.832263 35.3096C1.37275 35.6263 2.03604 35.6342 2.53258 35.3298C2.72418 35.2124 6.91554 31.0529 11.8467 26.0867C16.7779 21.1204 20.9191 16.9895 21.0494 16.9068C21.1797 16.8242 21.4666 16.7318 21.6869 16.7016C22.5846 16.5786 22.0289 16.0754 32.1492 26.1759C41.8377 35.8456 41.5615 35.5883 42.2538 35.5883C42.8554 35.5883 43.4766 35.1961 43.7625 34.6359C43.9482 34.2718 43.9852 33.5971 43.8406 33.2084C43.7912 33.0753 42.3797 31.5926 40.7041 29.9135L37.6575 26.8606L38.3529 25.9577C41.6593 21.664 43.522 17.8154 43.929 14.4364C44.1744 12.3981 43.8394 9.37933 43.1501 7.41673C41.752 3.43657 38.8128 0.97149 34.5344 0.190731C33.4503 -0.0070596 31.0162 -0.0116174 29.9563 0.182132C27.657 0.602567 25.9123 1.41351 24.1281 2.89118C23.5265 3.38944 22.6206 4.34469 22.2271 4.89566L22.0786 5.1036L21.8037 4.76237C20.8182 3.53942 19.9716 2.74688 18.8533 2.00043C16.5371 0.454396 13.5543 -0.224802 10.4139 0.0788505ZM13.0613 3.51225C14.169 3.63918 15.072 3.9 16.0249 4.36825C17.9648 5.32152 19.4497 6.99234 20.2357 9.10646C20.5626 9.98577 20.7633 10.2537 21.2707 10.4878C22.2192 10.9255 23.2334 10.4587 23.6285 9.40246C24.3051 7.59439 25.6351 5.90827 27.1964 4.87941C29.2953 3.49651 32.1469 3.08605 34.8804 3.7735C35.707 3.98144 36.9358 4.58341 37.5861 5.09913C39.4789 6.60011 40.5781 9.49156 40.5765 12.9657C40.5751 15.8655 39.074 19.2458 35.9035 23.4878L35.2107 24.4147L34.4969 23.7046L33.7831 22.9946V19.332C33.7831 15.2528 33.7591 15.0384 33.248 14.5437C32.3646 13.6887 31.0595 13.8908 30.5069 14.9682C30.3595 15.2558 30.3433 15.4917 30.3433 17.3546C30.3433 18.4917 30.3161 19.422 30.283 19.422C30.2498 19.422 29.0211 18.228 27.5526 16.7687C25.0968 14.3282 24.8308 14.0901 24.2376 13.8007C22.7176 13.0591 21.1206 13.0584 19.5938 13.7988C18.978 14.0972 18.7163 14.3434 13.823 19.225L8.69721 24.3385L8.09773 23.5357C5.33149 19.8303 3.74659 16.4836 3.52274 13.8752C3.44147 12.9277 3.53529 11.1962 3.72362 10.168C4.4361 6.27788 6.80839 3.95091 10.4994 3.52153C11.3875 3.41825 12.2149 3.41524 13.0613 3.51225ZM20.4072 24.4854C19.9874 24.6761 19.632 25.0789 19.5031 25.5101C19.4458 25.702 19.4192 26.3303 19.4363 27.0901C19.4644 28.333 19.4686 28.3569 19.7228 28.7163C20.1514 29.3225 20.4741 29.4359 21.8642 29.4687C23.2641 29.5018 23.6233 29.4073 24.0985 28.8814C24.5163 28.4189 24.6029 28.0149 24.5678 26.6927C24.5414 25.7001 24.5144 25.5294 24.3332 25.2128C23.9146 24.4811 23.4855 24.3231 21.9244 24.3256C20.976 24.3272 20.6889 24.3574 20.4072 24.4854ZM12.4991 30.334C11.6303 30.735 11.2662 31.7631 11.6859 32.6302C11.9593 33.1949 15.951 36.8385 18.2004 38.5766C19.5825 39.6445 20.5772 40.0148 22.0447 40.008C23.6138 40.0007 24.5825 39.5972 26.2357 38.2628C27.6237 37.1424 28.9392 35.9707 30.7499 34.2421C32.098 32.9549 32.2433 32.7878 32.3629 32.3849C32.5842 31.6398 32.3264 30.8932 31.6971 30.4571C31.2624 30.1559 30.5366 30.0947 30.0661 30.3195C29.89 30.4036 29.0193 31.1547 28.1312 31.9885C26.3017 33.7061 25.1726 34.7059 23.9583 35.6835C22.743 36.6618 21.984 36.8355 21.034 36.3529C20.3103 35.9853 17.3722 33.4791 15.0213 31.2241C14.5639 30.7853 14.0524 30.369 13.8846 30.2989C13.4736 30.1272 12.9166 30.1413 12.4991 30.334Z" fill="#F6CE45"/>
</svg>
