<svg width="40" height="41" viewBox="0 0 40 41" fill="none" xmlns="http://www.w3.org/2000/svg">
<path fill-rule="evenodd" clip-rule="evenodd" d="M2.57817 0.135679C0.80763 0.611465 -0.362105 2.60244 0.103914 4.34712C0.250189 4.89456 0.401153 5.16913 1.76272 7.36405L2.96699 9.3054V20.0139V30.7224L1.76272 32.6638C0.401153 34.8587 0.250189 35.1333 0.103914 35.6807C-0.378436 37.4865 0.872251 39.5036 2.74133 39.9345C2.96457 39.986 7.36526 40.0143 15.3551 40.0155C28.597 40.0176 28.0321 40.0342 28.8493 39.6173C29.2984 39.3882 30.0152 38.6867 30.2571 38.2397C30.6052 37.5967 30.7307 37.0195 30.6875 36.2617C30.6374 35.3839 30.5625 35.2263 28.9995 32.7125L27.7369 30.6819V22.3786V14.0754H31.8644C36.5348 14.0754 36.4872 14.0701 37.0765 14.6594C37.5656 15.1484 37.6605 15.5171 37.6605 16.9274C37.6605 18.2468 37.5793 18.6204 37.1896 19.0931C36.7615 19.6125 36.3831 19.731 34.9648 19.7897C33.9883 19.8301 33.6133 19.8776 33.252 20.0062C31.9571 20.4673 30.9791 21.4492 30.5352 22.7339C30.3749 23.1979 30.3546 23.4015 30.3546 24.546C30.3546 25.6904 30.3749 25.894 30.5352 26.358C31.1092 28.0194 32.5626 29.1493 34.3006 29.2853C35.3152 29.3648 35.3687 29.406 36.7998 31.2133C37.6531 32.2909 38.157 32.861 38.3278 32.9421C39.3023 33.4045 40.3659 32.3474 39.8773 31.4023C39.6882 31.0368 37.4278 28.2255 37.0524 27.8891C36.4586 27.357 35.4609 26.9683 34.6888 26.9683C33.8387 26.9683 33.0447 26.4296 32.7891 25.6793C32.6197 25.1823 32.6141 23.9262 32.7791 23.442C32.9422 22.9632 33.2905 22.5637 33.734 22.3468C34.0564 22.1891 34.2698 22.1584 35.3554 22.1134C36.3319 22.073 36.7069 22.0256 37.0682 21.897C38.3631 21.4359 39.3411 20.4539 39.785 19.1692C39.9524 18.6847 39.9656 18.5209 39.9656 16.9274C39.9656 15.334 39.9524 15.1702 39.785 14.6856C39.343 13.4064 38.3909 12.447 37.0682 11.9481C36.6125 11.7763 36.5394 11.7733 32.1713 11.7488L27.7369 11.724L27.737 10.536L27.7371 9.34799L29.0615 7.21191C29.7899 6.0371 30.4492 4.9119 30.5265 4.71148C30.6313 4.43994 30.6671 4.12817 30.6671 3.48759C30.6671 2.68183 30.6514 2.59486 30.4159 2.09766C29.954 1.12265 29.0878 0.391192 28.0858 0.130209C27.4059 -0.0468533 3.23829 -0.0416962 2.57817 0.135679ZM27.7354 2.49148C28.1248 2.68706 28.362 3.07807 28.362 3.52424C28.362 3.8593 28.2616 4.05175 27.1441 5.85683L25.9261 7.82429L15.3647 7.8235L4.80325 7.82272L4.13907 6.7534C2.56419 4.21788 2.34188 3.82187 2.34188 3.55127C2.34188 3.08072 2.651 2.63268 3.12327 2.41865C3.18773 2.38943 8.69065 2.36318 15.352 2.36021C26.7331 2.35513 27.4799 2.3631 27.7354 2.49148ZM19.0635 10.2163C18.8301 10.2756 5.55103 12.5126 5.43265 12.5126C5.32811 12.5126 5.31115 12.3488 5.31115 11.3405V10.1684L12.246 10.1775C16.0601 10.1825 19.128 10.1999 19.0635 10.2163ZM25.3928 12.9632V14.4297L15.5278 16.0967C10.1021 17.0135 5.58362 17.7815 5.48696 17.8033L5.31115 17.843V16.3952V14.9473L5.52603 14.9004C5.72333 14.8575 8.25205 14.4289 20.7435 12.321C23.1932 11.9077 25.2326 11.5559 25.2756 11.5393C25.3185 11.5227 25.3625 11.5063 25.3732 11.503C25.3839 11.4996 25.3928 12.1567 25.3928 12.9632ZM25.3928 18.2543C25.3928 19.6871 25.3914 19.6987 25.217 19.7412C25.1202 19.7648 20.6107 20.5328 15.1957 21.4479L5.35022 23.1117L5.32889 21.7053C5.31709 20.9317 5.33467 20.2734 5.36796 20.2423C5.40117 20.2112 7.02825 19.9156 8.98366 19.5854C10.9391 19.2551 15.3871 18.4993 18.8682 17.9058C22.3493 17.3123 25.2414 16.823 25.2951 16.8185C25.37 16.8122 25.3928 17.1468 25.3928 18.2543ZM25.3928 23.5677C25.3928 25.0013 25.3915 25.0121 25.217 25.0519C24.8104 25.1447 5.61441 28.3747 5.46969 28.3747C5.31607 28.3747 5.31115 28.3297 5.31115 26.9292C5.31115 26.1341 5.33529 25.4836 5.36483 25.4836C5.44266 25.4836 20.9842 22.849 23.7909 22.36C24.4786 22.2402 25.1202 22.138 25.217 22.133L25.3928 22.1237V23.5677ZM25.3928 28.6482V29.8594L18.2236 29.8498C12.1022 29.8417 11.14 29.8256 11.6404 29.7397C11.9627 29.6843 14.0197 29.3341 16.2115 28.9615C18.4033 28.5888 21.2866 28.097 22.6189 27.8683C23.9511 27.6398 25.1202 27.4492 25.217 27.4449C25.3921 27.4371 25.3928 27.442 25.3928 28.6482ZM27.1441 34.171C28.2616 35.9761 28.362 36.1685 28.362 36.5036C28.362 36.9498 28.1248 37.3408 27.7354 37.5363C27.48 37.6647 26.7272 37.673 15.3626 37.6731L3.26173 37.6732L2.95004 37.4981C2.59419 37.298 2.34188 36.8743 2.34188 36.4765C2.34188 36.206 2.56419 35.8099 4.13907 33.2744L4.80325 32.2051L15.3647 32.2043L25.9261 32.2035L27.1441 34.171Z" fill="#F6CE45"/>
</svg>
