<svg width="14" height="12" viewBox="0 0 14 12" fill="none" xmlns="http://www.w3.org/2000/svg">
<path d="M10.4336 2.56964L5.47931 7.17471C5.30523 7.33651 5.19275 7.55376 5.16094 7.78927L4.99236 9.03974C4.9699 9.20658 4.73513 9.22336 4.68911 9.06147L4.04009 6.78117C3.96602 6.52091 4.07401 6.24306 4.30437 6.10115L10.3073 2.40371C10.415 2.33743 10.5262 2.48347 10.4336 2.56964ZM12.8373 0.0248616L0.231726 4.88771C-0.0790373 5.00761 -0.0766541 5.44818 0.235392 5.5647L3.30681 6.71122L4.49578 10.5346C4.57196 10.7795 4.87154 10.8698 5.07028 10.7077L6.78241 9.31191C6.9619 9.16561 7.2173 9.15846 7.40467 9.2945L10.493 11.5367C10.7055 11.691 11.0067 11.5746 11.0601 11.3174L13.3221 0.436187C13.3805 0.155584 13.1048 -0.0783595 12.8373 0.0248616Z" fill="white"/>
</svg>
