<svg width="20" height="20" viewBox="0 0 20 20" fill="none" xmlns="http://www.w3.org/2000/svg">
<path d="M19.6875 10C19.6875 4.6875 15.3125 0.3125 10 0.3125C4.64844 0.3125 0.3125 4.6875 0.3125 10C0.3125 15.3516 4.64844 19.6875 10 19.6875C15.3125 19.6875 19.6875 15.3516 19.6875 10ZM8.86719 15.1562C8.63281 15.3906 8.20312 15.3906 7.96875 15.1562L3.90625 11.0938C3.67188 10.8594 3.67188 10.4297 3.90625 10.1953L4.80469 9.33594C5.03906 9.0625 5.42969 9.0625 5.66406 9.33594L8.4375 12.0703L14.2969 6.21094C14.5312 5.9375 14.9219 5.9375 15.1562 6.21094L16.0547 7.07031C16.2891 7.30469 16.2891 7.73438 16.0547 7.96875L8.86719 15.1562Z" fill="#266D24"/>
</svg>
