<svg width="13" height="14" viewBox="0 0 13 14" fill="none" xmlns="http://www.w3.org/2000/svg">
<path fill-rule="evenodd" clip-rule="evenodd" d="M8.08697 0.0884882C8.94572 0.200926 9.47016 0.30983 9.7805 0.440186C10.6768 0.816666 11.6154 1.73746 12.0263 2.64325C12.3627 3.38499 12.5629 5.30055 12.4468 6.66662C12.3858 7.38456 12.2329 8.31522 12.1232 8.63671C11.7914 9.60892 10.7599 10.6798 9.76371 11.0861C9.12888 11.345 8.02185 11.4919 6.46369 11.5241L5.30437 11.548L4.61233 12.2838C4.23176 12.6885 3.86535 13.0486 3.79817 13.084C3.5536 13.2128 3.22192 13.0975 3.07039 12.831C3.04174 12.7806 3.01588 12.449 3.00349 11.9739L2.98332 11.199L2.73722 11.1048C2.23702 10.9134 1.68627 10.5204 1.21689 10.02C0.482694 9.23725 0.228278 8.60852 0.0511633 7.13922C-0.0167375 6.57592 -0.0171407 4.93953 0.0504777 4.3858C0.230659 2.91054 0.482856 2.28761 1.21689 1.50498C1.89352 0.783625 2.58076 0.388734 3.43151 0.232447C3.79135 0.166323 4.582 0.0654332 5.14178 0.0141456C5.57824 -0.0258407 7.60449 0.0252827 8.08697 0.0884882ZM5.04092 1.18431C4.36756 1.24032 3.48295 1.38465 3.2011 1.48447C2.82 1.61943 2.5135 1.8381 2.07556 2.28749C1.58964 2.78606 1.42838 3.08199 1.31267 3.68717C1.06794 4.96727 1.05342 6.28389 1.26979 7.58022C1.37585 8.21552 1.43952 8.40037 1.67663 8.76152C2.04268 9.31899 2.68896 9.85204 3.25505 10.0634L3.48647 10.1498L3.49712 11.3671C3.50761 12.5594 3.5095 12.5844 3.58971 12.5844C3.64369 12.5844 4.02669 12.2135 4.71417 11.4954L5.75672 10.4063L6.51509 10.3795C7.85955 10.332 8.99349 10.1729 9.41404 9.97299C10.1105 9.64188 10.8534 8.86213 11.0493 8.2565C11.2585 7.6101 11.3914 6.07126 11.3224 5.09446C11.2735 4.40051 11.151 3.58254 11.0486 3.26639C10.8947 2.7905 10.2501 2.03347 9.72046 1.70656C9.38136 1.49721 9.07466 1.40245 8.42684 1.30686C7.32469 1.1442 6.06911 1.09875 5.04092 1.18431ZM6.90139 2.5759C7.8357 2.8041 8.56482 3.38807 8.97743 4.23872C9.20037 4.69842 9.28324 5.03137 9.32298 5.62706L9.34957 6.02589L9.2429 6.07537C9.15333 6.11696 9.124 6.11355 9.05949 6.05409C8.99974 5.99902 8.9763 5.89961 8.95378 5.60581C8.88955 4.76705 8.66261 4.23153 8.14797 3.70427C7.65952 3.2038 7.11195 2.95513 6.34168 2.88387C5.98419 2.85079 5.85307 2.72195 6.01207 2.55995C6.10091 2.4695 6.49459 2.47657 6.90139 2.5759ZM4.44748 3.09843C4.68233 3.35138 5.21061 4.13848 5.24837 4.29165C5.30135 4.5067 5.22477 4.67709 4.95732 4.93895C4.6526 5.23739 4.64199 5.2948 4.81519 5.70835C4.98133 6.10496 5.27032 6.52669 5.55713 6.7911C5.88316 7.09159 6.45086 7.3858 6.70475 7.3858C6.8765 7.3858 6.90171 7.37055 7.11417 7.13865C7.35903 6.87136 7.5244 6.79328 7.72282 6.85126C7.88666 6.8991 8.65624 7.44161 8.9205 7.69554C9.0862 7.85474 9.13594 7.93052 9.13594 8.02373C9.13594 8.36281 8.60811 8.997 8.21531 9.12991C8.02302 9.19496 8.00406 9.19418 7.75832 9.11137C7.04139 8.86969 5.81159 8.13645 5.16196 7.56341C4.59119 7.05995 4.007 6.29692 3.57865 5.49539C3.33493 5.03935 2.96303 4.12961 2.96404 3.99202C2.96718 3.56442 3.6518 2.86525 4.06731 2.86525C4.21405 2.86525 4.25351 2.88946 4.44748 3.09843ZM6.89841 3.37986C7.6995 3.58817 8.28781 4.18381 8.47001 4.97101C8.54973 5.31535 8.5486 5.63573 8.46738 5.7185C8.32489 5.86361 8.16794 5.74011 8.16706 5.4822C8.16629 5.25736 8.06704 4.83428 7.96937 4.6392C7.73964 4.18053 7.22895 3.82291 6.66763 3.72765C6.5052 3.70007 6.34051 3.66054 6.3017 3.63979C6.22073 3.59655 6.20798 3.43949 6.27951 3.36662C6.3458 3.2991 6.60966 3.30473 6.89841 3.37986ZM7.14766 4.27706C7.50649 4.46606 7.68497 4.74851 7.71499 5.17476C7.73427 5.44833 7.73371 5.45022 7.62147 5.47891C7.53207 5.50176 7.49313 5.4884 7.43463 5.41484C7.394 5.36372 7.36036 5.2731 7.35987 5.21343C7.35846 5.04255 7.22076 4.77679 7.08117 4.67553C7.01097 4.62461 6.87722 4.57307 6.78395 4.56099C6.69067 4.54891 6.58258 4.5224 6.54377 4.50206C6.46179 4.45916 6.45041 4.30295 6.5236 4.22577C6.58924 4.15657 6.97982 4.18866 7.14766 4.27706Z" fill="white"/>
</svg>
