<svg width="14" height="14" viewBox="0 0 14 14" fill="none" xmlns="http://www.w3.org/2000/svg">
<path d="M6.99976 0.759766C3.55902 0.759766 0.759766 3.55902 0.759766 6.99977C0.759766 8.19865 1.1005 9.36287 1.74505 10.3666L1.89996 10.6078L1.29304 12.7634L3.52328 12.1893L3.75331 12.3298C4.72844 12.9251 5.85107 13.2398 6.99976 13.2398C10.4405 13.2398 13.2397 10.4405 13.2397 6.99977C13.2397 3.55902 10.4405 0.759766 6.99976 0.759766ZM10.8262 8.91761L10.7483 9.28124C10.6605 9.69152 10.4169 10.0544 10.0634 10.2806C9.61706 10.566 9.03856 10.7062 8.30327 10.4983C6.02132 9.85304 4.7308 8.34222 4.03838 7.39796C3.3459 6.4537 3.0784 5.50944 3.25148 4.73831C3.36757 4.22114 3.74556 3.82431 3.98196 3.61898C4.09777 3.51842 4.248 3.46724 4.40111 3.4756L4.88873 3.50218C4.98476 3.50742 5.06946 3.56672 5.10728 3.65515L5.8176 5.3171C5.85556 5.4059 5.83955 5.50854 5.77643 5.58158L5.15813 6.29686C5.10799 6.35484 5.09925 6.43746 5.13457 6.50549C5.9489 8.0741 7.43299 8.69566 7.87604 8.85137C7.95153 8.8779 8.03519 8.85283 8.08411 8.78942L8.73107 7.95073C8.80302 7.85744 8.92988 7.82628 9.03686 7.87561L10.6848 8.63522C10.7922 8.68475 10.8509 8.80203 10.8262 8.91761Z" fill="white"/>
</svg>
