<svg width="45" height="44" viewBox="0 0 45 44" fill="none" xmlns="http://www.w3.org/2000/svg">
<path d="M41.8652 21.8803C41.8652 21.7858 41.8652 21.6784 41.8609 21.5537C41.8566 21.2057 41.848 20.8147 41.8395 20.3979C41.8051 19.199 41.7449 18.0045 41.6504 16.8787C41.5215 15.3276 41.3324 14.0342 41.0746 13.0631C40.8025 12.0497 40.2693 11.1254 39.528 10.3827C38.7868 9.63996 37.8636 9.10479 36.8508 8.83067C35.6348 8.5041 33.2543 8.30215 29.9027 8.17754C28.3086 8.11738 26.6027 8.07871 24.8969 8.05723C24.2996 8.04863 23.7453 8.04434 23.2469 8.04004H21.9836C21.4852 8.04434 20.9309 8.04863 20.3336 8.05723C18.6277 8.07871 16.9219 8.11738 15.3277 8.17754C11.9762 8.30645 9.59141 8.5084 8.37969 8.83067C7.36649 9.10412 6.44295 9.63906 5.70163 10.3819C4.96032 11.1247 4.42725 12.0493 4.15586 13.0631C3.89375 14.0342 3.70898 15.3276 3.58008 16.8787C3.48555 18.0045 3.42539 19.199 3.39102 20.3979C3.37812 20.8147 3.37383 21.2057 3.36953 21.5537C3.36953 21.6784 3.36523 21.7858 3.36523 21.8803V22.1209C3.36523 22.2155 3.36523 22.3229 3.36953 22.4475C3.37383 22.7955 3.38242 23.1866 3.39102 23.6034C3.42539 24.8022 3.48555 25.9967 3.58008 27.1225C3.70898 28.6737 3.89805 29.967 4.15586 30.9381C4.70586 32.9963 6.32148 34.6206 8.37969 35.1706C9.59141 35.4971 11.9762 35.6991 15.3277 35.8237C16.9219 35.8839 18.6277 35.9225 20.3336 35.944C20.9309 35.9526 21.4852 35.9569 21.9836 35.9612H23.2469C23.7453 35.9569 24.2996 35.9526 24.8969 35.944C26.6027 35.9225 28.3086 35.8839 29.9027 35.8237C33.2543 35.6948 35.6391 35.4928 36.8508 35.1706C38.909 34.6206 40.5246 33.0006 41.0746 30.9381C41.3367 29.967 41.5215 28.6737 41.6504 27.1225C41.7449 25.9967 41.8051 24.8022 41.8395 23.6034C41.8523 23.1866 41.8566 22.7955 41.8609 22.4475C41.8609 22.3229 41.8652 22.2155 41.8652 22.1209V21.8803ZM38.7715 22.1037C38.7715 22.194 38.7715 22.2928 38.7672 22.4088C38.7629 22.744 38.7543 23.1135 38.7457 23.5131C38.7156 24.6561 38.6555 25.7991 38.5652 26.8604C38.4492 28.244 38.2859 29.3784 38.084 30.1389C37.8176 31.1315 37.0355 31.9178 36.0473 32.1799C35.1449 32.4206 32.8719 32.6139 29.7824 32.7299C28.2184 32.7901 26.534 32.8288 24.8539 32.8503C24.2652 32.8588 23.7195 32.8631 23.2297 32.8631H22.0008L20.3766 32.8503C18.6965 32.8288 17.0164 32.7901 15.448 32.7299C12.3586 32.6096 10.0812 32.4206 9.1832 32.1799C8.19492 31.9135 7.41289 31.1315 7.14648 30.1389C6.94453 29.3784 6.78125 28.244 6.66523 26.8604C6.575 25.7991 6.51914 24.6561 6.48477 23.5131C6.47188 23.1135 6.46758 22.7397 6.46328 22.4088C6.46328 22.2928 6.45898 22.1897 6.45898 22.1037V21.8975C6.45898 21.8073 6.45898 21.7084 6.46328 21.5924C6.46758 21.2573 6.47617 20.8877 6.48477 20.4881C6.51484 19.3451 6.575 18.2022 6.66523 17.1408C6.78125 15.7572 6.94453 14.6229 7.14648 13.8623C7.41289 12.8697 8.19492 12.0834 9.1832 11.8213C10.0855 11.5807 12.3586 11.3873 15.448 11.2713C17.0121 11.2111 18.6965 11.1725 20.3766 11.151C20.9652 11.1424 21.5109 11.1381 22.0008 11.1381H23.2297L24.8539 11.151C26.534 11.1725 28.2141 11.2111 29.7824 11.2713C32.8719 11.3916 35.1492 11.5807 36.0473 11.8213C37.0355 12.0877 37.8176 12.8697 38.084 13.8623C38.2859 14.6229 38.4492 15.7572 38.5652 17.1408C38.6555 18.2022 38.7113 19.3451 38.7457 20.4881C38.7586 20.8877 38.7629 21.2616 38.7672 21.5924C38.7672 21.7084 38.7715 21.8116 38.7715 21.8975V22.1037ZM18.791 27.7584L28.7598 21.9576L18.791 16.2428V27.7584Z" fill="#F6CE45" stroke="#112234" stroke-width="0.3"/>
</svg>
