<svg width="80" height="80" fill="none" xmlns="http://www.w3.org/2000/svg"><rect width="80" height="80" rx="40" fill="#fff"/><path fill-rule="evenodd" clip-rule="evenodd" d="M39.423 18.177c-.276.185-.495.553-1.293 2.18l-.96 1.957-2.131.314c-1.172.173-2.245.374-2.384.445-.276.144-.564.66-.563 1.012 0 .387.311.763 1.829 2.213l1.475 1.41-.37 2.16c-.205 1.189-.348 2.258-.318 2.377.1.404.544.793.968.85.362.048.552-.03 2.316-.96 1.056-.556 1.963-1.011 2.015-1.011.052 0 .944.45 1.983 1 1.127.598 1.998 1.001 2.16 1.001.384 0 .867-.323 1.045-.698.144-.302.133-.43-.224-2.516l-.376-2.199 1.474-1.412c1.518-1.453 1.828-1.829 1.828-2.215.001-.358-.288-.87-.575-1.018-.145-.075-1.218-.275-2.383-.444l-2.118-.308-.961-1.953c-.607-1.232-1.05-2.016-1.201-2.127-.401-.291-.853-.313-1.236-.058zm1.197 4.771c.332.685.663 1.235.803 1.334.188.133 2.274.544 2.795.55.045 0-.367.44-.917.978-.657.643-1.014 1.066-1.043 1.236-.038.215.115 1.347.349 2.58.05.264.049.264-1.141-.358-.663-.346-1.314-.622-1.466-.622-.152 0-.807.277-1.471.623l-1.197.624.05-.266c.234-1.234.387-2.366.35-2.581-.03-.17-.389-.597-1.039-1.236-.546-.537-.959-.977-.917-.978.52-.007 2.603-.418 2.79-.55.14-.1.471-.649.803-1.334.311-.64.593-1.165.626-1.165.033 0 .314.524.625 1.165zm-20.453 4.417c-.539.292-.575.504-.498 2.95l.069 2.215-1.688 1.263C16.396 35.03 16 35.43 16 35.87c0 .266.203.678.442.892.097.088 1.12.425 2.273.75l2.098.59.608 1.8c.334.991.684 1.97.776 2.176.298.666 1.148.89 1.68.443.15-.127.784-1 1.408-1.94l1.135-1.71 2.24-.065c1.928-.056 2.275-.089 2.48-.234.346-.248.6-.809.523-1.16-.036-.163-.657-1.04-1.423-2.01l-1.358-1.72.514-1.637c.75-2.388.793-2.574.686-2.963a1.177 1.177 0 00-.336-.526c-.501-.394-.71-.362-2.922.457l-2.065.764-1.823-1.28c-1.956-1.375-2.166-1.46-2.77-1.133zm36.889 1.133l-1.82 1.282-2.068-.765c-2.215-.82-2.423-.853-2.925-.457-.135.106-.29.358-.345.56-.089.332-.036.568.555 2.467l.654 2.1-1.359 1.72c-.765.969-1.386 1.845-1.421 2.008-.077.351.176.913.523 1.159.204.144.557.178 2.478.234l2.24.065 1.136 1.71c.624.94 1.258 1.814 1.409 1.94.338.285.853.304 1.273.047.334-.203.379-.306 1.249-2.866l.544-1.6 2.113-.592c2.145-.601 2.32-.683 2.59-1.21.334-.648.037-1.034-1.948-2.524l-1.682-1.264.07-2.206c.075-2.451.04-2.657-.519-2.946-.607-.314-.797-.235-2.747 1.138zm-33.211 3.424c.515.348.869.32 2.196-.175.626-.234 1.147-.416 1.157-.405.01.011-.149.556-.352 1.212-.203.655-.37 1.303-.37 1.44-.003.286.227.646 1.107 1.736l.629.78-1.431.047c-1.695.056-1.552-.026-2.547 1.46l-.691 1.033-.398-1.194c-.218-.657-.482-1.302-.586-1.435-.127-.16-.41-.304-.851-.434l-1.336-.39-.673-.196.935-.697c1.501-1.117 1.418-.957 1.38-2.648l-.032-1.433.746.524c.41.289.913.638 1.117.775zm34.13.144c-.037 1.672-.134 1.483 1.332 2.592l.983.743-.673.197-1.335.39c-.442.129-.725.273-.851.433-.104.133-.368.778-.587 1.435l-.397 1.194-.691-1.032c-.995-1.487-.852-1.405-2.547-1.461l-1.431-.048.629-.78c.88-1.09 1.109-1.449 1.107-1.735 0-.137-.168-.785-.37-1.44-.204-.656-.36-1.204-.347-1.218.013-.014.534.168 1.157.405.623.237 1.29.43 1.484.431.348 0 .762-.24 2.06-1.193.245-.18.46-.328.477-.33.017 0 .017.637 0 1.417zm-18.409 3.526c-.105.047-.297.201-.428.342l-.238.257-.028 3.174-.027 3.174-1.02 1.652-1.02 1.652-1.238.822-1.238.822-.052-.703c-.047-.63-.084-.734-.36-1.009l-.306-.306H25.05l-.311.311-.311.312v19.246l.31.312.312.311h8.561l.256-.256.255-.256.344.176c.742.379 1.173.395 9.623.365l8.141-.028.582-.27a3.672 3.672 0 001.723-1.732c.226-.486.266-.695.266-1.382 0-.677-.041-.899-.252-1.349l-.252-.538.363-.355c.2-.195.485-.618.633-.94.228-.495.27-.706.27-1.393 0-.678-.041-.898-.252-1.349l-.252-.538.363-.355c.2-.196.485-.618.633-.94.228-.495.269-.706.27-1.393 0-.689-.04-.896-.267-1.38-.146-.313-.335-.645-.42-.739-.14-.155-.14-.183 0-.338.085-.094.274-.426.42-.74.227-.482.267-.69.267-1.379 0-.687-.04-.896-.267-1.382a3.672 3.672 0 00-1.722-1.732l-.582-.27-4.015-.027-4.015-.028-.04-2.927c-.033-2.46-.066-3.01-.207-3.451-.56-1.745-1.693-2.829-3.435-3.286-.685-.18-2.21-.277-2.476-.157zm2.279 2.495c.598.224 1.177.807 1.385 1.393.095.27.143 1.298.184 3.962l.056 3.596.311.312.312.311 4.662.048 4.662.047.311.312c.268.268.311.377.311.784 0 .407-.043.517-.31.785l-.312.312-1.615.047-1.616.048-.31.311c-.268.269-.312.378-.312.785 0 .407.044.516.311.785l.311.311 1.616.048 1.615.047.311.312c.268.268.311.378.311.785 0 .406-.043.516-.31.784l-.312.312-1.615.047-1.616.048-.31.312c-.268.268-.312.377-.312.784 0 .407.044.516.311.785l.312.311 1.234.048 1.234.048.311.311c.268.268.312.378.312.785 0 .407-.044.516-.312.784l-.31.312-1.235.048-1.234.047-.312.312c-.267.268-.31.377-.31.784 0 .405.043.517.303.777.284.284.36.308 1.172.367.811.059.888.083 1.172.367.26.26.304.372.304.777 0 .407-.043.516-.311.784l-.312.312h-16.34l-.386-.256a2.44 2.44 0 01-.612-.62l-.226-.363-.025-6.1-.026-6.1 1.974-1.287c2.272-1.481 2.467-1.632 2.637-2.037.07-.164.593-1.05 1.163-1.967l1.038-1.668.028-2.692c.016-1.552.065-2.693.115-2.693.048 0 .324.089.612.197zm-9.849 17.628v8.007h-5.332V47.709h5.332v8.006zm-3.094 5.138c-.424.186-.667.573-.667 1.063 0 .4.045.512.312.78.267.267.377.31.783.31.407 0 .516-.043.784-.31.268-.27.311-.378.311-.785 0-.402-.044-.518-.294-.768-.315-.315-.873-.447-1.23-.29z" fill="#F6CE45"/></svg>