<svg width="80" height="80" fill="none" xmlns="http://www.w3.org/2000/svg"><rect width="80" height="80" rx="40" fill="#fff"/><path fill-rule="evenodd" clip-rule="evenodd" d="M49.078 21.086c-.119.047-1.184 1.054-2.368 2.237-1.779 1.78-2.211 2.169-2.496 2.246-.478.13-8.139.13-8.609-.001-.283-.079-.727-.478-2.496-2.243-2.304-2.298-2.38-2.352-3.071-2.203-.347.074-.807.525-7.311 7.151L18 33.09v1.166l1.916 1.958c2.239 2.29 2.349 2.457 2.487 3.787.132 1.272.302 1.998.628 2.67l.292.602-.168.237c-.872 1.232-.904 3.16-.073 4.422.575.872 1.573 1.545 2.548 1.718l.52.092.1.534c.26 1.406 1.267 2.56 2.646 3.033.227.078.52.141.65.141.288 0 .313.036.423.62.282 1.498 1.486 2.743 2.998 3.101.44.105 1.389.082 1.914-.046.202-.049.245-.009.47.44 1.017 2.018 3.693 2.732 5.565 1.482.571-.38 1.63-1.475 1.856-1.918l.159-.312.211.166c1.18.927 2.997 1.053 4.295.299a3.95 3.95 0 001.868-2.545c.077-.35.154-.653.17-.672.017-.019.233-.066.482-.106 1.485-.236 2.942-1.74 3.127-3.23l.056-.454.53-.099a3.904 3.904 0 002.777-2.136c.556-1.172.538-2.388-.05-3.555l-.357-.709.264-.43c.601-.984.983-2.236 1.09-3.573.031-.404.1-.839.154-.966.052-.127 1.052-1.222 2.22-2.434 2.33-2.415 2.385-2.497 2.128-3.195-.09-.245-1.565-1.795-5.844-6.141-3.486-3.54-5.832-5.859-6.002-5.93a1.28 1.28 0 00-.972-.02zm5.18 7.825l4.62 4.674-1.655 1.688c-2.12 2.162-2.235 2.372-2.45 4.5-.078.756-.462 2.078-.605 2.078-.03 0-1.46-1.414-3.179-3.142l-3.123-3.141.606-.417c1.09-.749 2.395-2.36 2.552-3.15.077-.387-.172-1.007-.497-1.24a1.372 1.372 0 00-1.313-.117c-.231.11-.447.349-.79.87-.58.888-1.163 1.414-2.058 1.86-.843.419-1.484.545-2.496.491-.648-.034-.938-.103-1.765-.42-.93-.357-1.042-.38-1.851-.38-1.428 0-2.08.297-3.33 1.52-.893.871-1.63 1.22-2.689 1.269-.503.023-.916-.005-1.158-.078l-.377-.115 2.936-3.549c1.614-1.951 3.043-3.606 3.174-3.677.19-.103.796-.14 2.993-.186 3.797-.078 3.65-.018 6.033-2.419.896-.902 1.668-1.63 1.715-1.617.048.012 2.166 2.127 4.706 4.698zm-22.187-3c1.378 1.372 1.73 1.675 2.2 1.898.307.146.705.292.882.325.178.033.323.075.323.094 0 .02-1.318 1.622-2.928 3.561-1.925 2.32-2.96 3.635-3.024 3.843-.227.745.192 1.375 1.346 2.024.887.499 1.748.743 2.81.797 1.989.1 3.492-.487 5.024-1.964.379-.365.797-.71.93-.767.39-.167.874-.12 1.551.15 1.063.425 1.591.534 2.84.587l1.19.05 4.402 4.486c2.422 2.468 4.46 4.595 4.53 4.727.175.338.156.901-.045 1.246a1.32 1.32 0 01-1.64.591c-.133-.05-.9-.747-1.705-1.548-1.542-1.536-1.705-1.642-2.323-1.526-.35.066-.695.329-.864.659-.151.294-.167.884-.03 1.15.053.103.686.792 1.407 1.53s1.375 1.466 1.453 1.619c.535 1.047-.459 2.281-1.553 1.928-.24-.078-.712-.486-1.75-1.514-.78-.774-1.504-1.45-1.608-1.504-.103-.053-.355-.096-.56-.096-.813.002-1.394.787-1.18 1.596.075.284.355.618 1.453 1.736.748.762 1.427 1.518 1.509 1.68.19.38.137 1.017-.114 1.371-.382.54-1.18.697-1.753.346-.174-.107-.837-.74-1.473-1.406-.636-.666-1.373-1.361-1.639-1.545-.575-.397-1.379-.743-1.736-.748-.373-.005-.44-.08-.505-.561-.13-.98-.978-2.203-1.88-2.712-.296-.167-.398-.27-.358-.363.224-.51.395-1.155.435-1.639.128-1.534-.811-3.121-2.255-3.815-.531-.255-.705-.293-1.464-.324-.72-.03-.945-.005-1.377.15-.284.1-.582.205-.661.231-.105.034-.196-.054-.332-.323-.243-.477-.958-1.191-1.494-1.49-1.422-.795-3.166-.61-4.458.472-.221.186-.426.299-.455.252-.028-.047-.09-.428-.137-.846-.291-2.6-.6-3.201-2.742-5.345L21.02 33.68l4.624-4.692c2.543-2.58 4.66-4.695 4.705-4.7.045-.005.82.726 1.722 1.623zm-3.222 16.793c.556.298.831 1.09.596 1.715-.124.327-2.208 2.443-2.554 2.593a1.296 1.296 0 01-1.832-1.196c0-.234.056-.53.123-.658.138-.261 2.234-2.367 2.503-2.515.267-.146.832-.116 1.164.061zm5.65 1.926c.545.338.765 1.062.51 1.675-.138.334-3.786 4.102-4.25 4.39-1.11.69-2.453-.589-1.859-1.772.159-.316 3.817-4.064 4.209-4.311.357-.226 1.013-.217 1.39.018zm1.909 5.68c.498.372.704 1.17.438 1.69-.145.284-2.05 2.239-2.403 2.467-.615.396-1.482.137-1.808-.54-.216-.45-.218-.827-.006-1.238.197-.382 2.194-2.395 2.503-2.523.32-.134 1.01-.056 1.276.143zm3.51 3.651c.584.267.889.943.718 1.592-.13.494-1.043 1.409-1.491 1.493-.72.136-1.402-.264-1.584-.928-.162-.587-.011-.986.605-1.605.516-.52.806-.68 1.27-.706.071-.004.288.066.482.154z" fill="#F6CE45"/></svg>