<svg width="80" height="80" fill="none" xmlns="http://www.w3.org/2000/svg"><rect width="80" height="80" rx="40" fill="#fff"/><path fill-rule="evenodd" clip-rule="evenodd" d="M28.622 18.168c-.416.228-.5.605-.576 2.568-.159 4.114.246 8.408 1.043 11.066.223.744.214.768-.233.608-1.491-.532-2.878-1.721-3.65-3.13-.74-1.349-1.22-3.18-1.388-5.3l-.067-.845h1.131c.622 0 1.223-.05 1.336-.111.113-.06.27-.268.35-.46.124-.304.124-.398 0-.701-.08-.193-.238-.4-.35-.461-.123-.067-.887-.11-1.927-.11-1.676 0-1.73.006-2.007.247l-.284.247v1.622c.001 2.442.422 4.375 1.372 6.296 1.274 2.574 3.24 4.158 5.892 4.746l.782.174.742 1.45c1.42 2.772 2.763 4.732 4.796 7.002.668.745 1.318 1.566 1.446 1.825.56 1.132.513 2.795-.113 4.039l-.336.668-1.164.051c-.64.029-1.26.108-1.38.177-.35.203-.441.678-.441 2.29v1.513l-1.568.033c-2.21.046-2.02-.28-2.057 3.517l-.03 3.019h-.608c-.51 0-.648.04-.856.251-.332.336-.334.866-.005 1.254l.245.287h23.327l.245-.287c.324-.382.323-.878-.004-1.234-.216-.235-.329-.271-.857-.271h-.608l-.03-3.019c-.037-3.796.154-3.47-2.057-3.517l-1.567-.033v-1.514c0-.843-.05-1.657-.112-1.839-.213-.616-.288-.627-4.524-.627h-3.835l.258-.742c.23-.663.257-.897.253-2.176-.003-1.252-.034-1.512-.24-2.049-.346-.901-.768-1.517-1.824-2.662-1.974-2.141-3.381-4.196-4.767-6.964-1.165-2.33-1.745-4.222-2.164-7.067-.319-2.16-.489-6.588-.297-7.758l.062-.384h20.809l.063.384c.1.612.075 3.97-.04 5.413-.29 3.613-.944 6.33-2.125 8.824-1.378 2.907-2.934 5.226-5.055 7.533-1.457 1.585-1.988 2.667-2.105 4.288-.055.774-.051.793.254 1.1.604.612 1.538.25 1.543-.596.003-.64.248-1.591.54-2.094.154-.266.787-1.047 1.406-1.735 1.926-2.142 3.303-4.16 4.706-6.898l.74-1.447.948-.22c2.81-.657 4.914-2.562 6.117-5.54.688-1.7 1.071-3.905 1.018-5.849-.033-1.208-.04-1.24-.318-1.482l-.284-.247h-5.429l-.071-1.239c-.08-1.378-.172-1.679-.58-1.892-.417-.218-23.094-.21-23.491.008zm11.224 5.079c-.098.058-.48.713-.846 1.456-.367.743-.674 1.358-.682 1.367a40.57 40.57 0 01-1.477.232c-1.585.234-1.856.362-1.98.934-.096.44.15.802 1.23 1.815l.982.922-.221 1.369c-.28 1.72-.277 1.882.03 2.192.414.419.818.343 2.244-.422l1.255-.673 1.268.68c1.334.715 1.696.806 2.117.527.391-.26.416-.593.16-2.2l-.234-1.477.981-.92c1.078-1.011 1.323-1.374 1.228-1.813-.124-.572-.396-.7-1.98-.934a40.57 40.57 0 01-1.478-.232 113.47 113.47 0 01-.682-1.37c-.368-.743-.757-1.4-.866-1.459-.25-.135-.814-.132-1.049.006zm17.097.733c-.36 4.533-2.043 7.362-5.01 8.42-.497.178-.493.203-.16-1.016.498-1.819.962-5.305.962-7.234 0-.483.031-.91.068-.947.037-.038 1-.068 2.138-.068h2.07l-.068.845zm-16.208 2.84c.4.846.578.985 1.437 1.117.4.062.763.112.804.112.041 0-.207.272-.551.605-.582.561-.626.636-.624 1.05.001.245.048.647.105.894.056.246.084.466.063.488-.022.022-.388-.128-.814-.332l-.774-.372-.775.372c-.426.204-.792.354-.813.332-.022-.022.006-.242.063-.488.056-.247.103-.65.105-.895.002-.411-.045-.493-.608-1.05-.336-.332-.584-.604-.551-.604.032 0 .386-.05.787-.112.859-.132 1.038-.271 1.437-1.117.16-.338.32-.614.355-.614.035 0 .194.276.354.614zm4.507 25.757v1.075H35.52v-2.15h9.722v1.075zm3.696 5.274v2.305H31.823l-.027-2.2c-.015-1.21-.005-2.258.022-2.33.04-.106 1.724-.126 8.585-.105l8.535.026v2.304zm-13.287-.767c-.346.244-.48.791-.288 1.168.087.17.246.358.354.416.275.149 9.062.144 9.337-.006.113-.06.27-.268.35-.46.125-.304.125-.397 0-.7-.08-.194-.237-.4-.35-.462-.137-.074-1.672-.11-4.695-.11-3.832 0-4.522.022-4.708.154z" fill="#F6CE45" stroke="#F6CE45" stroke-width=".75"/></svg>