<svg width="81" height="80" viewBox="0 0 81 80" fill="none" xmlns="http://www.w3.org/2000/svg">
<rect x="0.5" width="80" height="80" rx="40" fill="white"/>
<path fill-rule="evenodd" clip-rule="evenodd" d="M29.533 23.4811L20.0412 28.9623L20.0206 39.9608L20 50.9593L29.3791 56.3754C34.5376 59.3543 38.8268 61.8245 38.9108 61.8646C39.027 61.9203 39.653 61.5971 41.533 60.5106C42.8914 59.7257 44.0497 59.0835 44.1072 59.0835C44.1648 59.0835 44.3057 59.1858 44.4203 59.3108C44.7768 59.6995 45.8928 60.4902 46.616 60.8664C48.3951 61.7921 50.5758 62.1858 52.4355 61.9172C56.7064 61.3003 59.9687 58.2633 60.8819 54.0542C61.0854 53.1166 61.086 51.1282 60.8832 50.1855C60.4889 48.353 59.6372 46.6785 58.4521 45.4058L58.084 45.0105L58.062 36.9846L58.0401 28.9587L48.8413 23.6419C43.7819 20.7176 39.5035 18.2519 39.3336 18.1625L39.0248 18L29.533 23.4811ZM46.649 25.3596C50.7391 27.7233 54.0855 29.687 54.0855 29.7235C54.0855 29.76 52.6979 30.5925 51.0019 31.5735L47.9184 33.3571L45.9624 32.2286C44.8866 31.6079 41.488 29.6493 38.4099 27.8762C35.3318 26.1031 32.8127 24.633 32.8119 24.6093C32.8088 24.5151 38.9635 21.0053 39.0836 21.0327C39.1546 21.0489 42.559 22.996 46.649 25.3596ZM38.0707 30.6471C42.0292 32.9295 45.2692 34.8165 45.2708 34.8406C45.2722 34.8647 43.8755 35.6906 42.1669 36.6759C39.5039 38.2117 39.0342 38.4549 38.8785 38.3789C38.2256 38.0605 24.0189 29.787 24.0193 29.7253C24.0195 29.6831 25.4063 28.8467 27.1011 27.8667L30.1824 26.0847L30.5279 26.2911C30.7179 26.4046 34.1122 28.3649 38.0707 30.6471ZM30.2287 36.3691L37.6651 40.6657L37.687 49.4017C37.6991 54.2065 37.6797 58.1363 37.6441 58.1345C37.6084 58.1326 34.2134 56.1859 30.0997 53.8084L22.6203 49.4857L22.5984 40.7349C22.5809 33.7435 22.5982 31.993 22.6843 32.0283C22.7437 32.0526 26.1386 34.006 30.2287 36.3691ZM55.504 37.5909C55.504 40.6643 55.4878 43.1789 55.4682 43.1789C55.4485 43.1789 55.2453 43.098 55.0168 42.9992C51.9047 41.6524 48.0907 42.0997 45.3597 44.1318C42.7448 46.0775 41.3189 48.897 41.3189 52.1217C41.3189 53.6817 41.5661 54.8202 42.2005 56.1821C42.3933 56.5958 42.5349 56.9467 42.5152 56.9617C42.3919 57.0565 40.4721 58.1378 40.4274 58.1378C40.3971 58.1378 40.3822 54.2073 40.3943 49.4034L40.4162 40.669L47.8956 36.3421C52.0093 33.9624 55.404 32.0124 55.4395 32.0091C55.475 32.0056 55.504 34.5174 55.504 37.5909ZM53.0538 45.0266C53.8675 45.2442 55.2256 45.9603 55.8664 46.5097C57.0344 47.5111 57.8825 48.8549 58.2679 50.3145C58.534 51.3222 58.5332 52.8933 58.2661 53.8823C57.5039 56.7045 55.2935 58.765 52.4517 59.3022C49.3801 59.8828 46.0519 58.2145 44.6679 55.4005C44.1609 54.3699 43.9774 53.6452 43.9237 52.461C43.8237 50.259 44.4915 48.4999 45.9969 46.9996C47.1059 45.8943 48.21 45.2834 49.7024 44.9492C50.4532 44.7811 52.2945 44.8236 53.0538 45.0266ZM52.0871 50.5071L50.0031 52.591L49.0548 51.6462L48.1065 50.7014L47.2062 51.647L46.3059 52.5927L48.1754 54.4173L50.0449 56.2418L53.0323 53.2571C54.6755 51.6156 56.0198 50.2328 56.0198 50.1844C56.0198 50.0718 54.3685 48.4231 54.2557 48.4231C54.2091 48.4231 53.2333 49.3609 52.0871 50.5071Z" fill="#112234"/>
</svg>
