<svg width="80" height="80" viewBox="0 0 80 80" fill="none" xmlns="http://www.w3.org/2000/svg">
<rect width="80" height="80" rx="40" fill="white"/>
<path fill-rule="evenodd" clip-rule="evenodd" d="M20.5345 16.1406C19.9593 16.3906 20.0008 14.6916 20.0008 38.0052C20.0008 61.3949 19.956 59.6239 20.5534 59.8735C20.8149 59.9827 23.6287 59.9992 41.9948 59.9992C65.3845 59.9992 63.6135 60.044 63.8631 59.4466C64.0484 59.0032 64.0518 45.7108 63.8667 45.2679C63.614 44.6631 64.744 44.7065 49.2588 44.7065H35.2935V30.7412C35.2935 15.256 35.3369 16.386 34.7321 16.1333C34.2958 15.9509 20.9551 15.9579 20.5345 16.1406ZM33.4034 31.3039V44.7065H27.6471H21.8909V43.7615V42.8164L22.3419 42.8159C23.3229 42.8149 23.781 42.5005 23.781 41.8284C23.781 41.1563 23.3229 40.8419 22.3419 40.8409L21.8909 40.8404V39.8953V38.9503H23.4416C25.1245 38.9503 25.3597 38.8992 25.5811 38.4855C25.7326 38.2023 25.7326 37.8081 25.5811 37.5249C25.3597 37.1112 25.1245 37.0601 23.4416 37.0601H21.8909V36.1151V35.17L22.3419 35.1695C23.3229 35.1685 23.781 34.8541 23.781 34.182C23.781 33.5099 23.3229 33.1956 22.3419 33.1945L21.8909 33.194V32.249V31.3039H23.4416C25.1245 31.3039 25.3597 31.2529 25.5811 30.8391C25.7326 30.5559 25.7326 30.1618 25.5811 29.8786C25.3597 29.4648 25.1245 29.4138 23.4416 29.4138H21.8909V28.4687V27.5237H22.3097C22.9586 27.5237 23.2542 27.4359 23.5284 27.1616C23.7294 26.9607 23.781 26.8338 23.781 26.5406C23.781 25.8631 23.3257 25.5492 22.3419 25.5482L21.8909 25.5476V24.6026V23.6575H23.4029C24.5886 23.6575 24.9752 23.6289 25.1946 23.5248C25.8273 23.2245 25.8894 22.2941 25.3007 21.9351C25.0559 21.7858 24.8602 21.768 23.4588 21.7678L21.8909 21.7674V19.8343V17.9013H27.6471H33.4034V31.3039ZM62.0987 52.3529V58.1091H41.9948H21.8909V52.3529V46.5966H41.9948H62.0987V52.3529ZM55.8011 48.5775C55.0776 48.6636 54.154 49.1476 53.6041 49.729C51.6382 51.8078 52.5392 55.1728 55.2849 56.0059C55.8151 56.1668 56.8698 56.1668 57.4001 56.0059C58.6646 55.6222 59.6134 54.6691 60.0004 53.3941C60.1569 52.8783 60.1544 51.8193 59.9955 51.2953C59.441 49.4679 57.716 48.3501 55.8011 48.5775ZM57.3609 50.745C58.5167 51.5099 58.5037 53.2301 57.3368 53.9419C56.9701 54.1656 56.8324 54.1997 56.3059 54.1977C55.7925 54.1957 55.6415 54.159 55.3338 53.9609C54.7916 53.6119 54.5093 53.1321 54.4684 52.4901C54.4154 51.6575 54.7794 51.0074 55.505 50.6389C56.0319 50.3713 56.8684 50.419 57.3609 50.745Z" fill="#112234"/>
</svg>
