<svg width="81" height="80" viewBox="0 0 81 80" fill="none" xmlns="http://www.w3.org/2000/svg">
<rect x="0.5" width="80" height="80" rx="40" fill="white"/>
<path fill-rule="evenodd" clip-rule="evenodd" d="M40.202 18.0759C39.2659 18.2521 38.7886 18.5704 36.9775 20.2268C35.8358 21.2709 35.1294 21.8525 34.9049 21.9331C34.5957 22.044 34.3758 22.0301 32.5103 21.781C31.3805 21.6301 30.1886 21.5032 29.8617 21.499C28.5213 21.4818 27.2933 22.1016 26.5478 23.1716C26.0938 23.8235 26.0005 24.1416 25.5663 26.5163C25.3681 27.6006 25.1444 28.6018 25.0691 28.7413C24.9033 29.0487 24.6684 29.1925 22.8287 30.1122C20.3241 31.3642 19.8907 31.6936 19.3773 32.736C19.0893 33.3206 19.0024 33.7303 19 34.5141C18.9978 35.2431 19.1335 35.6 20.2443 37.7872C20.9742 39.2245 21.1931 39.7362 21.1931 40.0051C21.1931 40.274 20.9742 40.7857 20.2443 42.223C19.1335 44.4101 18.9978 44.767 19 45.496C19.0024 46.2799 19.0893 46.6895 19.3773 47.2741C19.8907 48.3165 20.3241 48.646 22.8287 49.898C24.6684 50.8177 24.9033 50.9614 25.0691 51.2689C25.1444 51.4083 25.3685 52.4116 25.5671 53.4984C25.7658 54.5852 25.984 55.6515 26.052 55.8682C26.5381 57.4164 28.0424 58.4959 29.7382 58.5131C30.0837 58.5166 31.3109 58.3925 32.4654 58.2372C34.3742 57.9805 34.5953 57.9659 34.9049 58.0771C35.1294 58.1576 35.8358 58.7392 36.9775 59.7833C38.3555 61.0436 38.823 61.4183 39.2645 61.6163C40.4048 62.1279 41.595 62.1279 42.7352 61.6163C43.1767 61.4183 43.6442 61.0436 45.0222 59.7833C46.164 58.7392 46.8704 58.1576 47.0948 58.0771C47.404 57.9661 47.624 57.9801 49.4894 58.2292C50.6193 58.3801 51.8111 58.507 52.138 58.5112C53.4785 58.5284 54.7065 57.9086 55.4519 56.8385C55.906 56.1866 55.9993 55.8686 56.4334 53.4939C56.6316 52.4095 56.8553 51.4083 56.9306 51.2689C57.0981 50.9583 57.2994 50.8368 59.4075 49.7745C61.3941 48.7734 61.8343 48.4724 62.3158 47.786C62.7907 47.1087 62.9924 46.4729 62.9996 45.6298C63.0071 44.7576 62.9156 44.5073 61.7555 42.223C61.0256 40.7857 60.8066 40.274 60.8066 40.0051C60.8066 39.7362 61.0256 39.2245 61.7555 37.7872C62.9156 35.5028 63.0071 35.2526 62.9996 34.3804C62.9924 33.5372 62.7907 32.9014 62.3158 32.2242C61.8343 31.5378 61.3941 31.2368 59.4075 30.2356C57.2994 29.1733 57.0981 29.0518 56.9306 28.7413C56.8553 28.6018 56.6316 27.6006 56.4334 26.5163C55.9993 24.1416 55.906 23.8235 55.4519 23.1716C54.7065 22.1016 53.4785 21.4818 52.138 21.499C51.8111 21.5032 50.6193 21.6301 49.4894 21.781C47.624 22.0301 47.404 22.044 47.0948 21.9331C46.8704 21.8525 46.164 21.2709 45.0222 20.2268C43.6652 18.9858 43.1732 18.5903 42.7503 18.4005C41.8878 18.0137 41.0795 17.9106 40.202 18.0759ZM41.6729 20.7281C41.8209 20.8183 42.6792 21.5706 43.58 22.4C45.3793 24.0565 45.853 24.3574 46.9096 24.515C47.522 24.6063 47.7332 24.5884 50.4891 24.2101C51.4391 24.0796 52.2573 24.0088 52.4381 24.0413C52.8149 24.1091 53.2344 24.4309 53.369 24.7555C53.4234 24.8865 53.6338 25.9018 53.8367 27.0115C54.2373 29.2032 54.3786 29.6575 54.8744 30.3476C55.316 30.9623 55.7272 31.233 57.9199 32.3522C58.9535 32.8798 59.8754 33.3755 59.9686 33.4538C60.1931 33.6425 60.3824 34.085 60.3824 34.4209C60.3824 34.5909 59.9991 35.45 59.3544 36.7249C58.2826 38.8443 58.1435 39.2211 58.1435 40.0051C58.1435 40.789 58.2826 41.1659 59.3544 43.2853C59.9991 44.5602 60.3824 45.4193 60.3824 45.5893C60.3824 45.9251 60.1931 46.3676 59.9686 46.5564C59.8754 46.6346 58.9535 47.1304 57.9199 47.658C55.7272 48.7772 55.316 49.0479 54.8744 49.6625C54.3786 50.3526 54.2373 50.8069 53.8367 52.9986C53.6338 54.1084 53.4234 55.1236 53.369 55.2546C53.2344 55.5792 52.8149 55.901 52.4381 55.9688C52.2573 56.0013 51.4391 55.9305 50.4891 55.8C47.7332 55.4218 47.522 55.4038 46.9096 55.4952C45.853 55.6528 45.3793 55.9537 43.58 57.6102C42.6792 58.4395 41.8209 59.1919 41.6729 59.282C41.3649 59.4696 40.7028 59.4974 40.399 59.3355C40.2906 59.2777 39.471 58.5623 38.5776 57.7456C36.8385 56.1557 36.4759 55.8898 35.7056 55.6392C34.988 55.4059 34.1403 55.4295 31.8695 55.7463C30.6719 55.9133 29.7483 56.0024 29.5615 55.9688C29.1848 55.901 28.7653 55.5792 28.6307 55.2546C28.5764 55.1236 28.3659 54.1084 28.163 52.9986C27.7625 50.8069 27.6211 50.3526 27.1254 49.6625C26.6838 49.0479 26.2725 48.7772 24.0799 47.658C23.0462 47.1304 22.1243 46.6346 22.0312 46.5564C21.8066 46.3676 21.6173 45.9251 21.6173 45.5893C21.6173 45.4193 22.0006 44.5602 22.6454 43.2853C23.7172 41.1659 23.8563 40.789 23.8563 40.0051C23.8563 39.2211 23.7172 38.8443 22.6454 36.7249C22.0006 35.45 21.6173 34.5909 21.6173 34.4209C21.6173 34.085 21.8066 33.6425 22.0312 33.4538C22.1243 33.3755 23.0462 32.8798 24.0799 32.3522C26.2725 31.233 26.6838 30.9623 27.1254 30.3476C27.6211 29.6575 27.7625 29.2032 28.163 27.0115C28.3659 25.9018 28.5764 24.8865 28.6307 24.7555C28.7653 24.4309 29.1848 24.1091 29.5616 24.0413C29.7425 24.0088 30.5607 24.0796 31.5107 24.2101C34.2665 24.5884 34.4777 24.6063 35.0902 24.515C36.1468 24.3574 36.6205 24.0565 38.4197 22.4C39.3206 21.5706 40.1788 20.8183 40.3269 20.7281C40.6801 20.513 41.3196 20.513 41.6729 20.7281ZM34.6736 28.6923C32.4469 29.167 30.8559 31.0628 30.8613 33.2349C30.8664 35.2938 32.3193 37.1113 34.4432 37.7158C35.0551 37.8899 36.2236 37.895 36.8988 37.7264C38.6744 37.283 40.1202 35.8082 40.4671 34.0864C41.1134 30.8794 38.0021 27.9826 34.6736 28.6923ZM49.2105 30.4689C48.9312 30.6141 31.2236 47.5888 31.0785 47.8505C30.7803 48.3881 31.0188 49.1289 31.5994 49.4682C31.9216 49.6566 32.4683 49.6923 32.7727 49.5448C33.051 49.4101 50.7653 32.4409 50.9212 32.1596C51.2194 31.6221 50.9809 30.8812 50.4003 30.542C50.0808 30.3552 49.498 30.3194 49.2105 30.4689ZM36.8349 31.4498C38.0216 32.153 38.2439 33.7074 37.2938 34.6576C36.4182 35.5333 35.0412 35.5525 34.1433 34.7017C33.5751 34.1633 33.3572 33.1331 33.6634 32.4327C34.1765 31.2584 35.7102 30.7832 36.8349 31.4498ZM45.0626 42.2881C43.3145 42.7394 41.8757 44.2214 41.5326 45.9237C41.3169 46.9944 41.5924 48.3603 42.2045 49.2547C42.9711 50.3751 44.2618 51.1816 45.5987 51.376C48.4852 51.7958 51.1455 49.5864 51.1385 46.7753C51.1334 44.7164 49.6805 42.8988 47.5566 42.2944C46.9575 42.1239 45.7106 42.1208 45.0626 42.2881ZM47.273 44.9044C48.0251 45.2723 48.4795 45.992 48.4716 46.8032C48.4596 48.0414 47.4539 48.9291 46.1529 48.8496C44.3163 48.7375 43.4394 46.6185 44.706 45.3528C45.3907 44.6684 46.4221 44.4882 47.273 44.9044Z" fill="#112234"/>
</svg>
