<svg width="81" height="80" fill="none" xmlns="http://www.w3.org/2000/svg"><rect x=".5" width="80" height="80" rx="40" fill="#fff"/><path fill-rule="evenodd" clip-rule="evenodd" d="M29.533 23.481l-9.492 5.481-.02 10.999L20 50.959l9.38 5.416c5.158 2.98 9.447 5.45 9.53 5.49.117.055.743-.268 2.623-1.354 1.358-.785 2.517-1.428 2.574-1.428.058 0 .199.103.313.228.357.389 1.473 1.18 2.196 1.555 1.78.926 3.96 1.32 5.82 1.051 4.27-.617 7.533-3.654 8.446-7.863.203-.937.204-2.926.001-3.869-.394-1.832-1.246-3.507-2.43-4.78l-.369-.395-.022-8.025-.022-8.026-9.199-5.317a2315.42 2315.42 0 00-9.507-5.48l-.31-.162-9.491 5.481zm17.116 1.879c4.09 2.363 7.437 4.327 7.437 4.364 0 .036-1.388.869-3.084 1.85l-3.084 1.783-1.956-1.128c-1.075-.621-4.474-2.58-7.552-4.353-3.078-1.773-5.597-3.243-5.598-3.267-.003-.094 6.152-3.604 6.272-3.576.07.016 3.475 1.963 7.565 4.327zm-8.578 5.287c3.958 2.282 7.198 4.17 7.2 4.194.001.024-1.395.85-3.104 1.835-2.663 1.536-3.133 1.779-3.288 1.703-.653-.319-14.86-8.592-14.86-8.654 0-.042 1.387-.878 3.082-1.858l3.081-1.782.346.206c.19.114 3.584 2.074 7.543 4.356zm-7.842 5.722l7.436 4.297.022 8.736c.012 4.804-.007 8.734-.043 8.733-.036-.002-3.43-1.95-7.544-4.327l-7.48-4.322-.022-8.751c-.017-6.992 0-8.742.086-8.707.06.025 3.455 1.978 7.545 4.341zm25.275 1.222c0 3.073-.016 5.588-.036 5.588a4.63 4.63 0 01-.451-.18c-3.112-1.347-6.926-.9-9.657 1.133-2.615 1.946-4.041 4.765-4.041 7.99 0 1.56.247 2.698.881 4.06.193.414.335.765.315.78-.123.094-2.043 1.176-2.088 1.176-.03 0-.045-3.93-.033-8.735l.022-8.734 7.48-4.327c4.113-2.38 7.508-4.33 7.544-4.333.035-.003.064 2.508.064 5.582zm-2.45 7.436c.813.217 2.172.933 2.812 1.483a7.615 7.615 0 012.402 3.805c.266 1.007.265 2.578-.002 3.567-.762 2.823-2.972 4.883-5.814 5.42-3.072.58-6.4-1.087-7.784-3.901-.507-1.031-.69-1.756-.744-2.94-.1-2.202.568-3.961 2.073-5.461 1.109-1.106 2.213-1.717 3.705-2.05.751-.169 2.593-.126 3.352.077zm-.967 5.48l-2.084 2.084-.948-.945-.949-.945-.9.946-.9.946 1.87 1.824 1.869 1.825 2.987-2.985c1.644-1.641 2.988-3.024 2.988-3.073 0-.112-1.652-1.76-1.764-1.76-.047 0-1.023.937-2.169 2.083z" fill="#112234"/></svg>