<svg width="80" height="80" fill="none" xmlns="http://www.w3.org/2000/svg"><rect width="80" height="80" rx="40" fill="#fff"/><path fill-rule="evenodd" clip-rule="evenodd" d="M20.535 16.14c-.576.25-.534-1.448-.534 21.865 0 23.39-.045 21.619.552 21.868.262.11 3.076.126 21.442.126 23.39 0 21.619.045 21.868-.552.185-.444.189-13.736.004-14.18-.253-.604.877-.56-14.608-.56H35.294V30.74c0-15.485.043-14.355-.562-14.608-.436-.182-13.777-.175-14.197.008zm12.868 15.164v13.402H21.891v-1.89h.45c.982-.001 1.44-.316 1.44-.988 0-.672-.458-.986-1.44-.987h-.45V38.95h1.55c1.684 0 1.919-.05 2.14-.465a1.072 1.072 0 000-.96c-.221-.414-.456-.465-2.14-.465h-1.55v-1.89h.45c.982-.002 1.44-.316 1.44-.988 0-.672-.458-.986-1.44-.988h-.45v-1.89h1.55c1.684 0 1.919-.051 2.14-.465a1.072 1.072 0 000-.96c-.221-.414-.456-.465-2.14-.465h-1.55v-1.89h.419c.649 0 .944-.088 1.218-.362.201-.201.253-.328.253-.621 0-.678-.455-.992-1.44-.993h-.45v-1.891h1.512c1.186 0 1.572-.028 1.792-.132.632-.3.694-1.23.106-1.59-.245-.15-.44-.167-1.842-.167H21.89V17.9h11.512v13.403zM62.1 52.353v5.756H21.89V46.597h40.208v5.756zm-6.3-3.776c-.723.087-1.647.57-2.197 1.152-1.966 2.079-1.065 5.444 1.68 6.277.531.16 1.586.16 2.116 0a3.855 3.855 0 002.6-2.612c.157-.516.154-1.575-.005-2.099-.554-1.827-2.279-2.945-4.194-2.718zm1.56 2.168c1.156.765 1.143 2.485-.024 3.197-.367.224-.505.258-1.031.256-.514-.002-.664-.039-.972-.237-.542-.35-.825-.829-.866-1.47-.053-.834.311-1.484 1.037-1.852.527-.268 1.363-.22 1.856.106z" fill="#112234"/></svg>