<svg width="81" height="80" fill="none" xmlns="http://www.w3.org/2000/svg"><rect x=".5" width="80" height="80" rx="40" fill="#fff"/><path fill-rule="evenodd" clip-rule="evenodd" d="M40.202 18.076c-.936.176-1.413.494-3.224 2.15-1.142 1.045-1.849 1.627-2.073 1.707-.31.111-.53.097-2.395-.152-1.13-.15-2.321-.278-2.648-.282-1.34-.017-2.569.603-3.314 1.673-.454.651-.547.97-.982 3.344-.198 1.085-.422 2.086-.497 2.225-.166.308-.4.451-2.24 1.371-2.505 1.252-2.938 1.582-3.452 2.624-.288.585-.375.994-.377 1.778-.002.73.134 1.086 1.244 3.273.73 1.438.95 1.95.95 2.218 0 .269-.22.78-.95 2.218-1.11 2.187-1.246 2.544-1.244 3.273.002.784.09 1.194.377 1.778.514 1.042.947 1.372 3.452 2.624 1.84.92 2.074 1.063 2.24 1.37.075.14.3 1.144.498 2.23.199 1.087.417 2.154.485 2.37.486 1.548 1.99 2.628 3.686 2.645.346.004 1.573-.12 2.727-.276 1.91-.257 2.13-.271 2.44-.16.224.08.93.662 2.072 1.706 1.379 1.26 1.846 1.635 2.288 1.833 1.14.512 2.33.512 3.47 0 .442-.198.91-.572 2.287-1.833 1.142-1.044 1.848-1.625 2.073-1.706.309-.11.529-.097 2.394.152 1.13.151 2.322.278 2.649.282 1.34.017 2.569-.602 3.314-1.672.454-.652.547-.97.981-3.345.199-1.084.422-2.086.498-2.225.167-.31.368-.432 2.477-1.494 1.986-1.002 2.426-1.303 2.908-1.989.475-.677.676-1.313.684-2.156.007-.872-.084-1.123-1.245-3.407-.73-1.437-.948-1.949-.948-2.218 0-.269.219-.78.948-2.218 1.16-2.284 1.252-2.534 1.245-3.407-.008-.843-.21-1.479-.684-2.156-.482-.686-.922-.987-2.909-1.988-2.108-1.063-2.309-1.184-2.476-1.495-.076-.14-.3-1.14-.498-2.225-.434-2.374-.527-2.692-.981-3.344-.745-1.07-1.974-1.69-3.314-1.673-.327.004-1.519.131-2.649.282-1.865.25-2.085.263-2.394.152-.225-.08-.931-.662-2.073-1.706-1.357-1.241-1.849-1.637-2.272-1.826-.862-.387-1.67-.49-2.548-.325zm1.47 2.652c.149.09 1.007.843 1.908 1.672 1.8 1.657 2.273 1.957 3.33 2.115.612.091.823.073 3.58-.305.95-.13 1.767-.201 1.948-.169.377.068.796.39.931.715.054.13.265 1.146.468 2.256.4 2.191.542 2.645 1.037 3.336.442.614.853.885 3.046 2.004 1.033.528 1.955 1.024 2.049 1.102.224.188.413.631.413.967 0 .17-.383 1.029-1.028 2.304-1.071 2.12-1.21 2.496-1.21 3.28 0 .784.139 1.16 1.21 3.28.645 1.275 1.028 2.134 1.028 2.304 0 .336-.189.779-.413.967-.094.079-1.016.574-2.05 1.102-2.192 1.12-2.603 1.39-3.045 2.005-.495.69-.637 1.144-1.037 3.336-.203 1.11-.414 2.125-.468 2.256-.135.324-.554.646-.93.714-.182.032-1-.038-1.95-.169-2.756-.378-2.967-.396-3.58-.305-1.056.158-1.53.459-3.329 2.115-.9.83-1.76 1.582-1.907 1.672-.308.188-.97.215-1.274.054-.108-.058-.928-.774-1.821-1.59-1.74-1.59-2.102-1.856-2.872-2.107-.718-.233-1.566-.21-3.837.107-1.197.167-2.12.256-2.308.223-.376-.068-.796-.39-.93-.714-.055-.131-.265-1.147-.468-2.256-.4-2.192-.542-2.646-1.038-3.337-.441-.614-.852-.885-3.045-2.004-1.034-.528-1.956-1.023-2.049-1.102-.224-.188-.414-.63-.414-.967 0-.17.384-1.029 1.028-2.304 1.072-2.12 1.211-2.496 1.211-3.28 0-.784-.139-1.16-1.21-3.28-.645-1.275-1.029-2.134-1.029-2.304 0-.336.19-.779.414-.967.093-.078 1.015-.574 2.049-1.102 2.193-1.119 2.604-1.39 3.045-2.004.496-.69.637-1.145 1.038-3.336.203-1.11.413-2.125.468-2.256.134-.325.554-.647.93-.715.181-.032 1 .039 1.95.17 2.756.377 2.967.395 3.58.304 1.056-.158 1.53-.459 3.329-2.115.9-.83 1.759-1.582 1.907-1.672.353-.215.993-.215 1.346 0zm-6.998 7.964c-2.227.475-3.818 2.37-3.813 4.543.005 2.059 1.458 3.876 3.582 4.48.612.175 1.78.18 2.456.011 1.775-.443 3.221-1.918 3.568-3.64.646-3.207-2.465-6.103-5.793-5.394zM49.21 30.47c-.28.145-17.987 17.12-18.133 17.381-.298.538-.06 1.279.521 1.618.323.189.87.224 1.174.077.278-.135 17.992-17.104 18.148-17.385.298-.538.06-1.279-.52-1.618-.32-.187-.903-.223-1.19-.073zm-12.376.98c1.187.704 1.409 2.258.459 3.209a2.24 2.24 0 01-3.15.044c-.569-.539-.787-1.569-.48-2.27.512-1.174 2.046-1.649 3.17-.982zm8.228 10.84c-1.748.45-3.187 1.932-3.53 3.635-.216 1.07.06 2.436.672 3.33.766 1.121 2.057 1.928 3.394 2.122 2.886.42 5.547-1.79 5.54-4.6-.006-2.06-1.459-3.877-3.582-4.482-.6-.17-1.846-.173-2.494-.006zm2.21 2.615c.752.368 1.206 1.088 1.199 1.9-.012 1.237-1.018 2.125-2.32 2.046-1.836-.113-2.713-2.232-1.446-3.497a2.243 2.243 0 012.567-.449z" fill="#112234"/></svg>