<svg width="81" height="80" viewBox="0 0 81 80" fill="none" xmlns="http://www.w3.org/2000/svg">
<rect x="0.5" width="80" height="80" rx="40" fill="white"/>
<path fill-rule="evenodd" clip-rule="evenodd" d="M28.933 18.1676C28.5292 18.396 28.447 18.7732 28.3734 20.7359C28.219 24.8503 28.6123 29.1441 29.3868 31.8018C29.6036 32.5459 29.5948 32.5696 29.1601 32.4101C27.7117 31.8781 26.3648 30.689 25.6139 29.2794C24.8958 27.9313 24.4301 26.0996 24.2664 23.9795L24.2012 23.1346H25.3001C25.9045 23.1346 26.4884 23.0849 26.5976 23.024C26.7069 22.9631 26.8595 22.7557 26.9368 22.5632C27.0586 22.2596 27.0586 22.1662 26.9368 21.8627C26.8595 21.6701 26.7069 21.4628 26.5976 21.4018C26.4777 21.335 25.7362 21.2912 24.7256 21.2912C23.0978 21.2912 23.0445 21.298 22.7761 21.5386L22.5 21.7861L22.5004 23.4077C22.501 25.8502 22.9103 27.7833 23.8334 29.704C25.0705 32.278 26.9803 33.8619 29.5563 34.4505L30.3163 34.6241L31.0377 36.0739C32.4171 38.8458 33.7216 40.8064 35.6969 43.0763C36.3449 43.821 36.9768 44.6422 37.1011 44.9013C37.6443 46.0335 37.5992 47.6962 36.9917 48.94L36.6653 49.6081L35.5347 49.6593C34.9129 49.6875 34.3092 49.7672 34.1931 49.8364C33.8535 50.039 33.7647 50.5135 33.7647 52.1253V53.639L32.2422 53.6719C30.0947 53.7181 30.2795 53.3928 30.2433 57.1893L30.2146 60.2078H29.624C29.1282 60.2078 28.9947 60.2481 28.792 60.4592C28.4695 60.7948 28.4678 61.3253 28.7879 61.7126L29.0254 62H40.3563H51.6872L51.9247 61.7126C52.2399 61.3312 52.2383 60.8354 51.9208 60.4788C51.7115 60.2437 51.6013 60.2078 51.0887 60.2078H50.4979L50.4692 57.1893C50.433 53.3928 50.6178 53.7181 48.4703 53.6719L46.9478 53.639V52.1253C46.9478 51.2817 46.8995 50.4675 46.8388 50.286C46.6324 49.6697 46.5598 49.6593 42.4445 49.6593H38.7185L38.9688 48.9169C39.1922 48.2543 39.2188 48.02 39.2152 46.7406C39.2119 45.489 39.1823 45.2288 38.9821 44.6924C38.6456 43.7906 38.2361 43.1755 37.2096 42.0297C35.292 39.8889 33.9254 37.8337 32.5795 35.0656C31.4469 32.7363 30.8838 30.8441 30.4763 27.9992C30.1668 25.8382 30.0021 21.4107 30.1877 20.2415L30.2487 19.8574H40.3563H50.4638L50.5248 20.2415C50.6219 20.8532 50.5975 24.2105 50.4854 25.6545C50.205 29.2674 49.5694 31.9847 48.4213 34.4783C47.083 37.3851 45.5713 39.7042 43.5113 42.0106C42.0952 43.5958 41.5794 44.6776 41.4662 46.299C41.4121 47.0733 41.4161 47.0916 41.7123 47.3999C42.2992 48.0108 43.2067 47.6497 43.2114 46.8035C43.2149 46.1621 43.453 45.2115 43.7359 44.7091C43.8858 44.4426 44.5006 43.6617 45.1021 42.9736C46.9736 40.8323 48.311 38.8146 49.6735 36.0764L50.3935 34.6295L51.3134 34.4081C54.0431 33.7516 56.0872 31.8466 57.2562 28.8697C57.9241 27.1692 58.2968 24.964 58.2453 23.02C58.2132 21.8123 58.2064 21.7796 57.9365 21.5381L57.6604 21.2912H55.0236H52.3866L52.3171 20.0522C52.2396 18.6736 52.1502 18.3731 51.7543 18.16C51.3489 17.9417 29.3191 17.9492 28.933 18.1676ZM39.8373 23.2467C39.7413 23.3048 39.3711 23.9602 39.0145 24.7029C38.658 25.4457 38.3603 26.0607 38.3528 26.0697C38.3454 26.0787 37.6995 26.1832 36.9173 26.302C35.378 26.5357 35.1141 26.664 34.9933 27.2365C34.9007 27.6756 35.1391 28.0375 36.1883 29.051L37.1431 29.9732L36.9279 31.3417C36.657 33.0628 36.6593 33.2235 36.9577 33.5341C37.3598 33.9527 37.7523 33.8766 39.1368 33.1121L40.3563 32.4387L41.5882 33.119C42.8838 33.8344 43.2364 33.9248 43.6452 33.646C44.025 33.3869 44.0486 33.053 43.8009 31.4457L43.5733 29.9694L44.5262 29.0491C45.5735 28.0375 45.8118 27.6754 45.7192 27.2365C45.5984 26.664 45.3346 26.5357 43.7952 26.302C43.0131 26.1832 42.3671 26.0787 42.3597 26.0697C42.3522 26.0607 42.054 25.4447 41.697 24.7008C41.3399 23.9569 40.9615 23.3001 40.856 23.2414C40.6128 23.106 40.0649 23.1087 39.8373 23.2467ZM56.4461 23.9795C56.0962 28.5128 54.4613 31.3416 51.5795 32.4001C51.0964 32.5775 51.1002 32.6031 51.4243 31.3837C51.9074 29.5654 52.3577 26.079 52.3585 24.1503C52.3586 23.6668 52.3883 23.2404 52.4244 23.2029C52.4604 23.1654 53.3948 23.1346 54.5007 23.1346H56.5113L56.4461 23.9795ZM40.7005 26.8212C41.0887 27.6668 41.2624 27.8057 42.0968 27.9382C42.4859 27.9999 42.8371 28.0504 42.8773 28.0504C42.9175 28.0504 42.6766 28.3224 42.342 28.6549C41.7771 29.2163 41.7338 29.2912 41.736 29.7047C41.7373 29.9495 41.7832 30.3518 41.8378 30.5986C41.8925 30.8454 41.92 31.0653 41.899 31.0871C41.878 31.109 41.5223 30.9595 41.1085 30.755L40.3563 30.3832L39.604 30.755C39.1902 30.9595 38.8345 31.109 38.8135 31.0871C38.7925 31.0653 38.82 30.8454 38.8747 30.5986C38.9293 30.3518 38.9752 29.9492 38.9766 29.704C38.9787 29.2926 38.9331 29.2114 38.3862 28.6542C38.0601 28.3221 37.8192 28.0504 37.8508 28.0504C37.8824 28.0504 38.2266 27.9999 38.6157 27.9382C39.4501 27.8057 39.6238 27.6668 40.012 26.8212C40.1672 26.4834 40.322 26.207 40.3563 26.207C40.3905 26.207 40.5453 26.4834 40.7005 26.8212ZM45.0786 52.5781V53.6534H40.3563H35.6339V52.5781V51.5028H40.3563H45.0786V52.5781ZM48.6695 57.8523V60.1566H40.3563H32.043L32.0164 57.9573C32.0018 56.7476 32.0115 55.6989 32.0381 55.6268C32.077 55.5214 33.7123 55.5008 40.378 55.5218L48.6695 55.548V57.8523ZM35.7617 57.0845C35.4259 57.3294 35.2948 57.8763 35.4817 58.2526C35.5665 58.4234 35.7211 58.6106 35.8253 58.6685C36.0926 58.8175 44.6287 58.8126 44.8966 58.6634C45.0059 58.6025 45.1585 58.3951 45.2358 58.2026C45.3576 57.899 45.3576 57.8056 45.2358 57.5021C45.1585 57.3095 45.0059 57.1021 44.8966 57.0412C44.7629 56.9668 43.2723 56.9306 40.3354 56.9306C36.6128 56.9306 35.9419 56.9531 35.7617 57.0845Z" fill="#112234" stroke="#112234" stroke-width="0.75"/>
</svg>
