<svg width="80" height="80" viewBox="0 0 80 80" fill="none" xmlns="http://www.w3.org/2000/svg">
<rect width="80" height="80" rx="40" fill="white"/>
<path fill-rule="evenodd" clip-rule="evenodd" d="M55.0824 17.0664C54.9031 17.1168 54.5776 17.318 54.3592 17.5136C53.7621 18.0483 53.6953 18.3719 53.6953 20.733V22.683H51.8013C50.6979 22.683 49.7445 22.7246 49.5176 22.7828C49.2886 22.8414 48.9654 23.0281 48.7335 23.2358C47.7508 24.1156 47.9575 25.6933 49.1336 26.2894C49.598 26.5248 49.6102 26.526 51.6409 26.526H53.6816L53.7104 28.6933L53.7392 30.8606L53.9832 31.2827C54.6054 32.3595 56.0379 32.5497 56.9011 31.6702C57.4243 31.1373 57.4733 30.8697 57.4733 28.5489V26.526H59.462C61.7436 26.526 62.0066 26.4761 62.5306 25.9439C63.3952 25.0658 63.2081 23.6088 62.1496 22.9758L61.7346 22.7277L59.604 22.6983L57.4733 22.669V20.5859V18.5028L57.2278 18.0249C56.8224 17.2352 55.9188 16.8316 55.0824 17.0664ZM34.849 22.7725C33.3548 23.001 32.5411 23.4746 30.9751 25.0268C30.2821 25.7136 29.5947 26.3156 29.4172 26.3911C29.1652 26.4982 28.6817 26.526 27.0715 26.526C24.776 26.526 24.1818 26.615 23.1634 27.1111C22.0634 27.6471 21.1611 28.552 20.6034 29.6785C19.9628 30.9723 20.0004 30.2129 20.0004 41.8535V52.3101L20.2448 53.0443C20.7225 54.4788 21.7326 55.6836 23.0354 56.3732C24.2981 57.0413 23.2511 56.9995 38.7149 56.9995C54.1257 56.9995 53.1154 57.0384 54.3982 56.3971C55.363 55.9149 56.3591 54.8887 56.8473 53.8741C57.4818 52.5558 57.4701 52.7265 57.4718 44.7329C57.4732 38.4863 57.4564 37.5613 57.3369 37.2702C57.0446 36.5584 56.3658 36.0889 55.6289 36.0889C54.8536 36.0889 54.2928 36.4278 53.9284 37.1167C53.7403 37.4722 53.739 37.5149 53.6953 44.7281L53.6514 51.982L53.3839 52.3695C53.2367 52.5826 52.9402 52.8575 52.7249 52.9804L52.3334 53.2038H38.7081H25.0826L24.6541 52.9344C24.3421 52.7381 24.1588 52.5348 23.98 52.1868L23.7345 51.7088V41.7957C23.7345 30.9434 23.7064 31.5407 24.2444 30.9641C24.7532 30.4188 24.8849 30.3928 27.3808 30.3446C29.8753 30.2962 30.2378 30.238 31.2411 29.7248C31.9635 29.3553 32.3005 29.0798 33.5311 27.8538C34.1235 27.2636 34.7285 26.7426 34.9121 26.6647C35.1902 26.5467 35.8045 26.526 39.0463 26.526H42.8538L43.3163 26.2916C44.1072 25.8907 44.4929 25.0453 44.2858 24.1667C44.1438 23.5649 43.5385 22.937 42.9568 22.788C42.4947 22.6696 35.6075 22.6564 34.849 22.7725ZM37.1334 32.3896C33.725 33.0086 30.9553 35.437 29.8345 38.7893C29.3452 40.2526 29.2376 42.2552 29.5664 43.7798C30.3733 47.5216 33.4036 50.4997 37.0648 51.1491C42.8281 52.1715 48.0722 47.7224 48.0722 41.8106C48.0722 40.2257 47.7568 38.8428 47.0835 37.4742C46.195 35.6685 44.4595 33.9588 42.6841 33.1404C40.9281 32.3308 38.9386 32.0617 37.1334 32.3896ZM40.0667 36.2261C40.8137 36.4052 41.8639 36.9716 42.4731 37.524C43.0968 38.0893 43.7815 39.1237 44.0184 39.8581C44.5355 41.4616 44.4542 42.7957 43.7472 44.3062C43.2479 45.3728 42.2626 46.3751 41.214 46.8829C39.7291 47.6021 38.4175 47.6848 36.8412 47.1588C36.1191 46.9179 35.1023 46.2214 34.5465 45.5869C34.0034 44.9672 33.4466 43.899 33.2706 43.1392C33.1 42.4032 33.0992 41.0988 33.2688 40.4199C33.7693 38.4174 35.3906 36.754 37.3531 36.2298C37.9901 36.0596 39.3646 36.0577 40.0667 36.2261Z" fill="#112234" stroke="white"/>
</svg>
