<svg width="81" height="80" viewBox="0 0 81 80" fill="none" xmlns="http://www.w3.org/2000/svg">
<rect x="0.5" width="80" height="80" rx="40" fill="white"/>
<path fill-rule="evenodd" clip-rule="evenodd" d="M40.0195 20.1475C39.7887 20.3013 39.6064 20.6085 38.9415 21.9639L38.1413 23.5952L36.3656 23.8571C35.3889 24.0012 34.4951 24.168 34.3795 24.2279C34.1489 24.3472 33.9095 24.7771 33.9099 25.0707C33.9104 25.3932 34.1692 25.7063 35.4338 26.9146L36.6634 28.0895L36.3544 29.8902C36.1844 30.8807 36.0655 31.7717 36.0901 31.8704C36.174 32.2072 36.5432 32.5316 36.8966 32.579C37.1984 32.6195 37.3565 32.554 38.8264 31.7798C39.707 31.316 40.4627 30.9365 40.5058 30.9365C40.5489 30.9365 41.2925 31.3118 42.1582 31.7705C43.0979 32.2684 43.8235 32.6043 43.9588 32.6042C44.2781 32.6038 44.6808 32.3348 44.8295 32.0227C44.9493 31.771 44.9398 31.6644 44.6423 29.9255L44.3288 28.0934L45.5579 26.9166C46.8225 25.7058 47.0807 25.3929 47.0812 25.0707C47.0817 24.7725 46.8409 24.3465 46.6018 24.2228C46.4806 24.1601 45.587 23.9933 44.6159 23.8521L42.8504 23.5955L42.0499 21.9687C41.5443 20.9412 41.1756 20.2881 41.0492 20.1962C40.7147 19.9529 40.3381 19.935 40.0195 20.1475ZM41.0166 24.1234C41.2935 24.6945 41.5691 25.1522 41.6858 25.2349C41.8425 25.3458 43.581 25.6879 44.0154 25.6932C44.0529 25.6937 43.709 26.0604 43.2513 26.5083C42.7034 27.0442 42.4061 27.3962 42.3813 27.5382C42.35 27.7173 42.4778 28.6606 42.6725 29.6879C42.7143 29.9086 42.7132 29.9082 41.7214 29.39C41.1693 29.1016 40.6269 28.8713 40.4999 28.8713C40.3731 28.8713 39.8275 29.1026 39.2739 29.391L38.2764 29.9108L38.3185 29.6889C38.5134 28.6605 38.6411 27.7173 38.6097 27.5382C38.5849 27.397 38.2859 27.0412 37.7442 26.5083C37.2889 26.0605 36.9452 25.6937 36.9802 25.6932C37.4129 25.6875 39.1496 25.3451 39.3053 25.2349C39.4221 25.1522 39.6976 24.6945 39.9746 24.1234C40.2336 23.5893 40.468 23.1524 40.4956 23.1524C40.5231 23.1524 40.7576 23.5893 41.0166 24.1234ZM23.9722 27.8042C23.5236 28.0479 23.4938 28.2244 23.5572 30.2622L23.6146 32.1081L22.2086 33.1605C20.8297 34.1927 20.5006 34.5262 20.5 34.892C20.4996 35.1142 20.6695 35.4573 20.8685 35.6361C20.9493 35.7088 21.8019 35.9898 22.7629 36.2607L24.5105 36.7531L25.0174 38.2533C25.2962 39.0783 25.5871 39.894 25.6639 40.0657C25.9122 40.6209 26.6207 40.8076 27.0637 40.4346C27.1891 40.3289 27.7174 39.6013 28.2375 38.8179L29.1832 37.3933L31.0505 37.3392C32.6569 37.2926 32.9455 37.2654 33.1161 37.1439C33.4053 36.9379 33.6164 36.47 33.5522 36.1774C33.5225 36.0419 33.0053 35.3113 32.367 34.5031L31.2345 33.0693L31.6633 31.705C32.2887 29.7148 32.3246 29.56 32.2352 29.2362C32.193 29.0831 32.0668 28.8858 31.9548 28.7976C31.5372 28.4687 31.3629 28.496 29.5201 29.1783L27.7996 29.8152L26.2798 28.7475C24.6499 27.6026 24.4751 27.5311 23.9722 27.8042ZM54.7131 28.7483L53.1959 29.8169L51.4732 29.1791C49.6274 28.4957 49.4541 28.4686 49.0356 28.7982C48.9231 28.8868 48.794 29.0969 48.7487 29.2651C48.6743 29.5418 48.7185 29.7383 49.2111 31.3207L49.7557 33.0703L48.6237 34.5036C47.9857 35.3114 47.4687 36.0419 47.4389 36.1774C47.3746 36.4702 47.5861 36.9385 47.875 37.1431C48.0451 37.2636 48.3393 37.2914 49.9404 37.338L51.8073 37.3924L52.7533 38.8174C53.2736 39.6012 53.8021 40.3289 53.9275 40.4346C54.2091 40.6718 54.6382 40.6876 54.9886 40.4737C55.2669 40.3038 55.304 40.2187 56.0291 38.0852L56.4823 36.7515L58.243 36.2582C60.0305 35.7572 60.1767 35.689 60.4022 35.2508C60.6803 34.7102 60.4321 34.3885 58.7787 33.1463L57.377 32.0934L57.4342 30.2549C57.4978 28.2122 57.4677 28.041 57.0027 27.8003C56.4966 27.5384 56.338 27.6041 54.7131 28.7483ZM27.0372 31.6018C27.4671 31.892 27.7613 31.8686 28.8676 31.4559C29.3895 31.2612 29.8232 31.1094 29.8315 31.1185C29.8398 31.1276 29.7079 31.5818 29.5385 32.1279C29.3692 32.674 29.2301 33.2141 29.2294 33.3281C29.2278 33.5668 29.4189 33.8664 30.1521 34.7749L30.6762 35.4242L29.4841 35.4639C28.0715 35.511 28.1905 35.4427 27.3614 36.6816L26.7856 37.5417L26.4543 36.5466C26.2721 35.9993 26.0521 35.4613 25.9655 35.351C25.8602 35.2171 25.6249 35.0971 25.2566 34.9895C24.9533 34.9009 24.4525 34.7547 24.1437 34.6645L23.5822 34.5005L24.3619 33.92C25.6128 32.9888 25.5431 33.1224 25.5117 31.7134L25.485 30.5187L26.1068 30.9561C26.4488 31.1966 26.8674 31.4871 27.0372 31.6018ZM55.4792 31.7218C55.4481 33.1149 55.3674 32.9577 56.5892 33.8815L57.4081 34.5007L56.8471 34.6646C56.5385 34.7547 56.0379 34.9009 55.7346 34.9895C55.3663 35.0971 55.131 35.2171 55.0257 35.351C54.939 35.4613 54.7191 35.9993 54.5368 36.5466L54.2055 37.5417L53.6298 36.6816C52.8007 35.4427 52.9196 35.511 51.507 35.4639L50.3149 35.4242L50.839 34.7749C51.5723 33.8664 51.7633 33.5668 51.7618 33.3281C51.761 33.2141 51.6219 32.674 51.4526 32.1279C51.2833 31.5818 51.1536 31.1254 51.1645 31.1137C51.1754 31.1019 51.6091 31.2537 52.1283 31.4511C52.6475 31.6484 53.204 31.8099 53.3649 31.81C53.6549 31.8102 54.0002 31.6103 55.0819 30.8157C55.2859 30.6658 55.4646 30.5423 55.4792 30.5413C55.4937 30.5402 55.4937 31.0714 55.4792 31.7218ZM40.1385 34.6604C40.0512 34.6996 39.8905 34.8278 39.7814 34.9453L39.5831 35.1589L39.5602 37.804L39.5374 40.4493L38.6874 41.8261L37.8374 43.2028L36.8059 43.8876L35.7743 44.5724L35.7305 43.987C35.6912 43.462 35.6605 43.3754 35.4315 43.1461L35.1762 42.8906H31.6085H28.0408L27.7814 43.1503L27.5221 43.4099V51.4293V59.4486L27.7814 59.7083L28.0408 59.9679H31.6083H35.1756L35.3888 59.7545L35.602 59.5412L35.8885 59.6875C36.5064 60.003 36.8658 60.0166 43.9076 59.9918L50.6919 59.9679L51.1767 59.7436C51.7835 59.4629 52.323 58.9203 52.6121 58.2999C52.8007 57.8955 52.8343 57.7212 52.8343 57.1482C52.8343 56.5839 52.7998 56.3994 52.6242 56.0245L52.4142 55.576L52.717 55.2799C52.8836 55.1171 53.1208 54.7649 53.2441 54.4973C53.4344 54.0845 53.4684 53.9083 53.4687 53.3356C53.469 52.7708 53.4347 52.5871 53.259 52.2119L53.049 51.7633L53.3517 51.4673C53.5184 51.3045 53.7556 50.9523 53.8789 50.6847C54.0691 50.2719 54.1032 50.0957 54.1035 49.523C54.1038 48.9492 54.0706 48.7765 53.882 48.3734C53.7599 48.1124 53.6026 47.8355 53.5324 47.7578C53.4152 47.6281 53.4152 47.6052 53.5324 47.4755C53.6026 47.3978 53.7599 47.1209 53.882 46.8599C54.0704 46.4571 54.1039 46.2836 54.1039 45.7103C54.1039 45.1373 54.0703 44.9631 53.8817 44.5586C53.5926 43.9383 53.0531 43.3956 52.4463 43.1149L51.9615 42.8906L48.6158 42.8675L45.2702 42.8444L45.2372 40.4052C45.2095 38.3543 45.182 37.8964 45.0642 37.5291C44.5976 36.0749 43.6536 35.1718 42.2016 34.7904C41.631 34.6405 40.3607 34.5604 40.1385 34.6604ZM42.0373 36.7396C42.5358 36.9262 43.0183 37.4116 43.1913 37.9004C43.271 38.1254 43.311 38.9819 43.3454 41.2014L43.3918 44.1984L43.6511 44.458L43.9104 44.7175L47.7957 44.7572L51.6809 44.7969L51.9402 45.0566C52.1633 45.2801 52.1995 45.3712 52.1995 45.7103C52.1995 46.0494 52.1633 46.1407 51.9403 46.3641L51.6811 46.6238L50.3348 46.6635L48.9886 46.7032L48.7294 46.9629C48.5063 47.1863 48.4701 47.2776 48.4701 47.6167C48.4701 47.9557 48.5063 48.047 48.7294 48.2704L48.9886 48.5301L50.3348 48.5698L51.6811 48.6095L51.9403 48.8692C52.1633 49.0926 52.1995 49.1839 52.1995 49.523C52.1995 49.862 52.1633 49.9533 51.9403 50.1767L51.6811 50.4364L50.3348 50.4761L48.9886 50.5158L48.7294 50.7755C48.5063 50.9989 48.4701 51.0902 48.4701 51.4293C48.4701 51.7684 48.5062 51.8595 48.7295 52.083L48.9889 52.3427L50.0174 52.3824L51.046 52.4221L51.3053 52.6818C51.5286 52.9053 51.5647 52.9964 51.5647 53.3356C51.5647 53.6747 51.5286 53.7658 51.3053 53.9894L51.046 54.249L50.0174 54.2887L48.9889 54.3284L48.7295 54.5881C48.5062 54.8116 48.4701 54.9027 48.4701 55.2419C48.4701 55.5791 48.5067 55.6725 48.7233 55.8894C48.9598 56.1262 49.024 56.1462 49.7 56.195C50.3761 56.2439 50.4403 56.2639 50.6768 56.5007C50.8934 56.7175 50.9299 56.811 50.9299 57.1482C50.9299 57.4874 50.8938 57.5785 50.6706 57.802L50.4111 58.0616H43.6027H36.7943L36.4726 57.8485C36.2956 57.7314 36.0662 57.499 35.9626 57.3322L35.7743 57.029L35.7532 51.9456L35.7321 46.8621L37.3769 45.7898C39.27 44.5555 39.4324 44.43 39.5746 44.0924C39.6322 43.9557 40.0683 43.2182 40.5437 42.4537L41.4081 41.0637L41.4314 38.8198C41.4448 37.5264 41.4856 36.576 41.5276 36.576C41.5677 36.576 41.7971 36.6496 42.0373 36.7396ZM33.8303 51.4293V58.1013H31.6085H29.3867V51.4293V44.7572H31.6085H33.8303V51.4293ZM31.2514 55.7108C30.8983 55.866 30.696 56.1888 30.696 56.597C30.696 56.9307 30.733 57.0233 30.9554 57.246C31.1787 57.4695 31.2697 57.5056 31.6085 57.5056C31.9473 57.5056 32.0383 57.4695 32.2616 57.246C32.4849 57.0224 32.521 56.9313 32.521 56.5922C32.521 56.2575 32.484 56.161 32.2756 55.9524C32.0136 55.6901 31.5481 55.5803 31.2514 55.7108Z" fill="#112234" stroke="#112234" stroke-width="0.5"/>
</svg>
